%TF.GenerationSoftware,KiCad,Pcbnew,8.0.9-8.0.9-0~ubuntu24.04.1*%
%TF.CreationDate,2026-09-24T08:54:17+00:00*%
%TF.ProjectId,uaefi,75616566-692e-46b6-9963-61645f706362,E*%
%TF.SameCoordinates,Original*%
%TF.FileFunction,Drillmap*%
%TF.FilePolarity,Positive*%
%FSLAX45Y45*%
G04 Gerber Fmt 4.5, Leading zero omitted, Abs format (unit mm)*
G04 Created by KiCad (PCBNEW 8.0.9-8.0.9-0~ubuntu24.04.1) date 2026-09-24 08:54:17*
%MOMM*%
%LPD*%
G01*
G04 APERTURE LIST*
%ADD10C,0.100000*%
%ADD11C,0.200000*%
%ADD12C,0.150002*%
%ADD13C,0.285000*%
G04 APERTURE END LIST*
D10*
X15000000Y-4550000D02*
X15000000Y-17450000D01*
X5350000Y-17800000D02*
G75*
G02*
X5000000Y-17450000I0J350000D01*
G01*
X15000000Y-17450000D02*
G75*
G02*
X14650000Y-17800000I-350000J0D01*
G01*
X5000000Y-4550000D02*
G75*
G02*
X5350000Y-4200000I350000J0D01*
G01*
X5000000Y-17450000D02*
X5000000Y-4550000D01*
X14650000Y-17800000D02*
X5350000Y-17800000D01*
X5350000Y-4200000D02*
X14650000Y-4200000D01*
X14650000Y-4200000D02*
G75*
G02*
X15000000Y-4550000I0J-350000D01*
G01*
D11*
D10*
X9678500Y-15307000D02*
X9743500Y-15372000D01*
X9743500Y-15307000D02*
X9678500Y-15372000D01*
X10256500Y-15307000D02*
X10321500Y-15372000D01*
X10321500Y-15307000D02*
X10256500Y-15372000D01*
D12*
X14275001Y-13090000D02*
G75*
G02*
X14124999Y-13090000I-75001J0D01*
G01*
X14124999Y-13090000D02*
G75*
G02*
X14275001Y-13090000I75001J0D01*
G01*
X14275001Y-13839986D02*
G75*
G02*
X14124999Y-13839986I-75001J0D01*
G01*
X14124999Y-13839986D02*
G75*
G02*
X14275001Y-13839986I75001J0D01*
G01*
D13*
X6190000Y-4907500D02*
X6190000Y-5192500D01*
X6047500Y-5050000D02*
X6332500Y-5050000D01*
X6190000Y-16907500D02*
X6190000Y-17192500D01*
X6047500Y-17050000D02*
X6332500Y-17050000D01*
X11890000Y-4907500D02*
X11890000Y-5192500D01*
X11747500Y-5050000D02*
X12032500Y-5050000D01*
X11890000Y-16907500D02*
X11890000Y-17192500D01*
X11747500Y-17050000D02*
X12032500Y-17050000D01*
D11*
X5255777Y-18116484D02*
X5255777Y-17916484D01*
X5255777Y-17916484D02*
X5303396Y-17916484D01*
X5303396Y-17916484D02*
X5331967Y-17926008D01*
X5331967Y-17926008D02*
X5351015Y-17945055D01*
X5351015Y-17945055D02*
X5360539Y-17964103D01*
X5360539Y-17964103D02*
X5370063Y-18002198D01*
X5370063Y-18002198D02*
X5370063Y-18030770D01*
X5370063Y-18030770D02*
X5360539Y-18068865D01*
X5360539Y-18068865D02*
X5351015Y-18087912D01*
X5351015Y-18087912D02*
X5331967Y-18106960D01*
X5331967Y-18106960D02*
X5303396Y-18116484D01*
X5303396Y-18116484D02*
X5255777Y-18116484D01*
X5455777Y-18116484D02*
X5455777Y-17983150D01*
X5455777Y-18021246D02*
X5465301Y-18002198D01*
X5465301Y-18002198D02*
X5474824Y-17992674D01*
X5474824Y-17992674D02*
X5493872Y-17983150D01*
X5493872Y-17983150D02*
X5512920Y-17983150D01*
X5579586Y-18116484D02*
X5579586Y-17983150D01*
X5579586Y-17916484D02*
X5570063Y-17926008D01*
X5570063Y-17926008D02*
X5579586Y-17935531D01*
X5579586Y-17935531D02*
X5589110Y-17926008D01*
X5589110Y-17926008D02*
X5579586Y-17916484D01*
X5579586Y-17916484D02*
X5579586Y-17935531D01*
X5703396Y-18116484D02*
X5684348Y-18106960D01*
X5684348Y-18106960D02*
X5674824Y-18087912D01*
X5674824Y-18087912D02*
X5674824Y-17916484D01*
X5808158Y-18116484D02*
X5789110Y-18106960D01*
X5789110Y-18106960D02*
X5779586Y-18087912D01*
X5779586Y-18087912D02*
X5779586Y-17916484D01*
X6036729Y-18116484D02*
X6036729Y-17916484D01*
X6036729Y-17916484D02*
X6103396Y-18059341D01*
X6103396Y-18059341D02*
X6170062Y-17916484D01*
X6170062Y-17916484D02*
X6170062Y-18116484D01*
X6351015Y-18116484D02*
X6351015Y-18011722D01*
X6351015Y-18011722D02*
X6341491Y-17992674D01*
X6341491Y-17992674D02*
X6322443Y-17983150D01*
X6322443Y-17983150D02*
X6284348Y-17983150D01*
X6284348Y-17983150D02*
X6265301Y-17992674D01*
X6351015Y-18106960D02*
X6331967Y-18116484D01*
X6331967Y-18116484D02*
X6284348Y-18116484D01*
X6284348Y-18116484D02*
X6265301Y-18106960D01*
X6265301Y-18106960D02*
X6255777Y-18087912D01*
X6255777Y-18087912D02*
X6255777Y-18068865D01*
X6255777Y-18068865D02*
X6265301Y-18049817D01*
X6265301Y-18049817D02*
X6284348Y-18040293D01*
X6284348Y-18040293D02*
X6331967Y-18040293D01*
X6331967Y-18040293D02*
X6351015Y-18030770D01*
X6446253Y-17983150D02*
X6446253Y-18183150D01*
X6446253Y-17992674D02*
X6465301Y-17983150D01*
X6465301Y-17983150D02*
X6503396Y-17983150D01*
X6503396Y-17983150D02*
X6522443Y-17992674D01*
X6522443Y-17992674D02*
X6531967Y-18002198D01*
X6531967Y-18002198D02*
X6541491Y-18021246D01*
X6541491Y-18021246D02*
X6541491Y-18078389D01*
X6541491Y-18078389D02*
X6531967Y-18097436D01*
X6531967Y-18097436D02*
X6522443Y-18106960D01*
X6522443Y-18106960D02*
X6503396Y-18116484D01*
X6503396Y-18116484D02*
X6465301Y-18116484D01*
X6465301Y-18116484D02*
X6446253Y-18106960D01*
X6627205Y-18097436D02*
X6636729Y-18106960D01*
X6636729Y-18106960D02*
X6627205Y-18116484D01*
X6627205Y-18116484D02*
X6617682Y-18106960D01*
X6617682Y-18106960D02*
X6627205Y-18097436D01*
X6627205Y-18097436D02*
X6627205Y-18116484D01*
X6627205Y-17992674D02*
X6636729Y-18002198D01*
X6636729Y-18002198D02*
X6627205Y-18011722D01*
X6627205Y-18011722D02*
X6617682Y-18002198D01*
X6617682Y-18002198D02*
X6627205Y-17992674D01*
X6627205Y-17992674D02*
X6627205Y-18011722D01*
D10*
X4930000Y-18412500D02*
X4995000Y-18477500D01*
X4995000Y-18412500D02*
X4930000Y-18477500D01*
D11*
X5293872Y-18336484D02*
X5312920Y-18336484D01*
X5312920Y-18336484D02*
X5331967Y-18346008D01*
X5331967Y-18346008D02*
X5341491Y-18355531D01*
X5341491Y-18355531D02*
X5351015Y-18374579D01*
X5351015Y-18374579D02*
X5360539Y-18412674D01*
X5360539Y-18412674D02*
X5360539Y-18460293D01*
X5360539Y-18460293D02*
X5351015Y-18498389D01*
X5351015Y-18498389D02*
X5341491Y-18517436D01*
X5341491Y-18517436D02*
X5331967Y-18526960D01*
X5331967Y-18526960D02*
X5312920Y-18536484D01*
X5312920Y-18536484D02*
X5293872Y-18536484D01*
X5293872Y-18536484D02*
X5274824Y-18526960D01*
X5274824Y-18526960D02*
X5265301Y-18517436D01*
X5265301Y-18517436D02*
X5255777Y-18498389D01*
X5255777Y-18498389D02*
X5246253Y-18460293D01*
X5246253Y-18460293D02*
X5246253Y-18412674D01*
X5246253Y-18412674D02*
X5255777Y-18374579D01*
X5255777Y-18374579D02*
X5265301Y-18355531D01*
X5265301Y-18355531D02*
X5274824Y-18346008D01*
X5274824Y-18346008D02*
X5293872Y-18336484D01*
X5446253Y-18517436D02*
X5455777Y-18526960D01*
X5455777Y-18526960D02*
X5446253Y-18536484D01*
X5446253Y-18536484D02*
X5436729Y-18526960D01*
X5436729Y-18526960D02*
X5446253Y-18517436D01*
X5446253Y-18517436D02*
X5446253Y-18536484D01*
X5627205Y-18336484D02*
X5589110Y-18336484D01*
X5589110Y-18336484D02*
X5570063Y-18346008D01*
X5570063Y-18346008D02*
X5560539Y-18355531D01*
X5560539Y-18355531D02*
X5541491Y-18384103D01*
X5541491Y-18384103D02*
X5531967Y-18422198D01*
X5531967Y-18422198D02*
X5531967Y-18498389D01*
X5531967Y-18498389D02*
X5541491Y-18517436D01*
X5541491Y-18517436D02*
X5551015Y-18526960D01*
X5551015Y-18526960D02*
X5570063Y-18536484D01*
X5570063Y-18536484D02*
X5608158Y-18536484D01*
X5608158Y-18536484D02*
X5627205Y-18526960D01*
X5627205Y-18526960D02*
X5636729Y-18517436D01*
X5636729Y-18517436D02*
X5646253Y-18498389D01*
X5646253Y-18498389D02*
X5646253Y-18450770D01*
X5646253Y-18450770D02*
X5636729Y-18431722D01*
X5636729Y-18431722D02*
X5627205Y-18422198D01*
X5627205Y-18422198D02*
X5608158Y-18412674D01*
X5608158Y-18412674D02*
X5570063Y-18412674D01*
X5570063Y-18412674D02*
X5551015Y-18422198D01*
X5551015Y-18422198D02*
X5541491Y-18431722D01*
X5541491Y-18431722D02*
X5531967Y-18450770D01*
X5827205Y-18336484D02*
X5731967Y-18336484D01*
X5731967Y-18336484D02*
X5722443Y-18431722D01*
X5722443Y-18431722D02*
X5731967Y-18422198D01*
X5731967Y-18422198D02*
X5751015Y-18412674D01*
X5751015Y-18412674D02*
X5798634Y-18412674D01*
X5798634Y-18412674D02*
X5817682Y-18422198D01*
X5817682Y-18422198D02*
X5827205Y-18431722D01*
X5827205Y-18431722D02*
X5836729Y-18450770D01*
X5836729Y-18450770D02*
X5836729Y-18498389D01*
X5836729Y-18498389D02*
X5827205Y-18517436D01*
X5827205Y-18517436D02*
X5817682Y-18526960D01*
X5817682Y-18526960D02*
X5798634Y-18536484D01*
X5798634Y-18536484D02*
X5751015Y-18536484D01*
X5751015Y-18536484D02*
X5731967Y-18526960D01*
X5731967Y-18526960D02*
X5722443Y-18517436D01*
X5960539Y-18336484D02*
X5979586Y-18336484D01*
X5979586Y-18336484D02*
X5998634Y-18346008D01*
X5998634Y-18346008D02*
X6008158Y-18355531D01*
X6008158Y-18355531D02*
X6017682Y-18374579D01*
X6017682Y-18374579D02*
X6027205Y-18412674D01*
X6027205Y-18412674D02*
X6027205Y-18460293D01*
X6027205Y-18460293D02*
X6017682Y-18498389D01*
X6017682Y-18498389D02*
X6008158Y-18517436D01*
X6008158Y-18517436D02*
X5998634Y-18526960D01*
X5998634Y-18526960D02*
X5979586Y-18536484D01*
X5979586Y-18536484D02*
X5960539Y-18536484D01*
X5960539Y-18536484D02*
X5941491Y-18526960D01*
X5941491Y-18526960D02*
X5931967Y-18517436D01*
X5931967Y-18517436D02*
X5922443Y-18498389D01*
X5922443Y-18498389D02*
X5912920Y-18460293D01*
X5912920Y-18460293D02*
X5912920Y-18412674D01*
X5912920Y-18412674D02*
X5922443Y-18374579D01*
X5922443Y-18374579D02*
X5931967Y-18355531D01*
X5931967Y-18355531D02*
X5941491Y-18346008D01*
X5941491Y-18346008D02*
X5960539Y-18336484D01*
X6112920Y-18536484D02*
X6112920Y-18403150D01*
X6112920Y-18422198D02*
X6122443Y-18412674D01*
X6122443Y-18412674D02*
X6141491Y-18403150D01*
X6141491Y-18403150D02*
X6170063Y-18403150D01*
X6170063Y-18403150D02*
X6189110Y-18412674D01*
X6189110Y-18412674D02*
X6198634Y-18431722D01*
X6198634Y-18431722D02*
X6198634Y-18536484D01*
X6198634Y-18431722D02*
X6208158Y-18412674D01*
X6208158Y-18412674D02*
X6227205Y-18403150D01*
X6227205Y-18403150D02*
X6255777Y-18403150D01*
X6255777Y-18403150D02*
X6274824Y-18412674D01*
X6274824Y-18412674D02*
X6284348Y-18431722D01*
X6284348Y-18431722D02*
X6284348Y-18536484D01*
X6379586Y-18536484D02*
X6379586Y-18403150D01*
X6379586Y-18422198D02*
X6389110Y-18412674D01*
X6389110Y-18412674D02*
X6408158Y-18403150D01*
X6408158Y-18403150D02*
X6436729Y-18403150D01*
X6436729Y-18403150D02*
X6455777Y-18412674D01*
X6455777Y-18412674D02*
X6465301Y-18431722D01*
X6465301Y-18431722D02*
X6465301Y-18536484D01*
X6465301Y-18431722D02*
X6474824Y-18412674D01*
X6474824Y-18412674D02*
X6493872Y-18403150D01*
X6493872Y-18403150D02*
X6522443Y-18403150D01*
X6522443Y-18403150D02*
X6541491Y-18412674D01*
X6541491Y-18412674D02*
X6551015Y-18431722D01*
X6551015Y-18431722D02*
X6551015Y-18536484D01*
X6941491Y-18326960D02*
X6770063Y-18584103D01*
X7198634Y-18336484D02*
X7217682Y-18336484D01*
X7217682Y-18336484D02*
X7236729Y-18346008D01*
X7236729Y-18346008D02*
X7246253Y-18355531D01*
X7246253Y-18355531D02*
X7255777Y-18374579D01*
X7255777Y-18374579D02*
X7265301Y-18412674D01*
X7265301Y-18412674D02*
X7265301Y-18460293D01*
X7265301Y-18460293D02*
X7255777Y-18498389D01*
X7255777Y-18498389D02*
X7246253Y-18517436D01*
X7246253Y-18517436D02*
X7236729Y-18526960D01*
X7236729Y-18526960D02*
X7217682Y-18536484D01*
X7217682Y-18536484D02*
X7198634Y-18536484D01*
X7198634Y-18536484D02*
X7179586Y-18526960D01*
X7179586Y-18526960D02*
X7170063Y-18517436D01*
X7170063Y-18517436D02*
X7160539Y-18498389D01*
X7160539Y-18498389D02*
X7151015Y-18460293D01*
X7151015Y-18460293D02*
X7151015Y-18412674D01*
X7151015Y-18412674D02*
X7160539Y-18374579D01*
X7160539Y-18374579D02*
X7170063Y-18355531D01*
X7170063Y-18355531D02*
X7179586Y-18346008D01*
X7179586Y-18346008D02*
X7198634Y-18336484D01*
X7351015Y-18517436D02*
X7360539Y-18526960D01*
X7360539Y-18526960D02*
X7351015Y-18536484D01*
X7351015Y-18536484D02*
X7341491Y-18526960D01*
X7341491Y-18526960D02*
X7351015Y-18517436D01*
X7351015Y-18517436D02*
X7351015Y-18536484D01*
X7484348Y-18336484D02*
X7503396Y-18336484D01*
X7503396Y-18336484D02*
X7522444Y-18346008D01*
X7522444Y-18346008D02*
X7531967Y-18355531D01*
X7531967Y-18355531D02*
X7541491Y-18374579D01*
X7541491Y-18374579D02*
X7551015Y-18412674D01*
X7551015Y-18412674D02*
X7551015Y-18460293D01*
X7551015Y-18460293D02*
X7541491Y-18498389D01*
X7541491Y-18498389D02*
X7531967Y-18517436D01*
X7531967Y-18517436D02*
X7522444Y-18526960D01*
X7522444Y-18526960D02*
X7503396Y-18536484D01*
X7503396Y-18536484D02*
X7484348Y-18536484D01*
X7484348Y-18536484D02*
X7465301Y-18526960D01*
X7465301Y-18526960D02*
X7455777Y-18517436D01*
X7455777Y-18517436D02*
X7446253Y-18498389D01*
X7446253Y-18498389D02*
X7436729Y-18460293D01*
X7436729Y-18460293D02*
X7436729Y-18412674D01*
X7436729Y-18412674D02*
X7446253Y-18374579D01*
X7446253Y-18374579D02*
X7455777Y-18355531D01*
X7455777Y-18355531D02*
X7465301Y-18346008D01*
X7465301Y-18346008D02*
X7484348Y-18336484D01*
X7627206Y-18355531D02*
X7636729Y-18346008D01*
X7636729Y-18346008D02*
X7655777Y-18336484D01*
X7655777Y-18336484D02*
X7703396Y-18336484D01*
X7703396Y-18336484D02*
X7722444Y-18346008D01*
X7722444Y-18346008D02*
X7731967Y-18355531D01*
X7731967Y-18355531D02*
X7741491Y-18374579D01*
X7741491Y-18374579D02*
X7741491Y-18393627D01*
X7741491Y-18393627D02*
X7731967Y-18422198D01*
X7731967Y-18422198D02*
X7617682Y-18536484D01*
X7617682Y-18536484D02*
X7741491Y-18536484D01*
X7922444Y-18336484D02*
X7827206Y-18336484D01*
X7827206Y-18336484D02*
X7817682Y-18431722D01*
X7817682Y-18431722D02*
X7827206Y-18422198D01*
X7827206Y-18422198D02*
X7846253Y-18412674D01*
X7846253Y-18412674D02*
X7893872Y-18412674D01*
X7893872Y-18412674D02*
X7912920Y-18422198D01*
X7912920Y-18422198D02*
X7922444Y-18431722D01*
X7922444Y-18431722D02*
X7931967Y-18450770D01*
X7931967Y-18450770D02*
X7931967Y-18498389D01*
X7931967Y-18498389D02*
X7922444Y-18517436D01*
X7922444Y-18517436D02*
X7912920Y-18526960D01*
X7912920Y-18526960D02*
X7893872Y-18536484D01*
X7893872Y-18536484D02*
X7846253Y-18536484D01*
X7846253Y-18536484D02*
X7827206Y-18526960D01*
X7827206Y-18526960D02*
X7817682Y-18517436D01*
X8103396Y-18336484D02*
X8065301Y-18336484D01*
X8065301Y-18336484D02*
X8046253Y-18346008D01*
X8046253Y-18346008D02*
X8036729Y-18355531D01*
X8036729Y-18355531D02*
X8017682Y-18384103D01*
X8017682Y-18384103D02*
X8008158Y-18422198D01*
X8008158Y-18422198D02*
X8008158Y-18498389D01*
X8008158Y-18498389D02*
X8017682Y-18517436D01*
X8017682Y-18517436D02*
X8027206Y-18526960D01*
X8027206Y-18526960D02*
X8046253Y-18536484D01*
X8046253Y-18536484D02*
X8084348Y-18536484D01*
X8084348Y-18536484D02*
X8103396Y-18526960D01*
X8103396Y-18526960D02*
X8112920Y-18517436D01*
X8112920Y-18517436D02*
X8122444Y-18498389D01*
X8122444Y-18498389D02*
X8122444Y-18450770D01*
X8122444Y-18450770D02*
X8112920Y-18431722D01*
X8112920Y-18431722D02*
X8103396Y-18422198D01*
X8103396Y-18422198D02*
X8084348Y-18412674D01*
X8084348Y-18412674D02*
X8046253Y-18412674D01*
X8046253Y-18412674D02*
X8027206Y-18422198D01*
X8027206Y-18422198D02*
X8017682Y-18431722D01*
X8017682Y-18431722D02*
X8008158Y-18450770D01*
X8198634Y-18336484D02*
X8198634Y-18374579D01*
X8274825Y-18336484D02*
X8274825Y-18374579D01*
X8570063Y-18612674D02*
X8560539Y-18603150D01*
X8560539Y-18603150D02*
X8541491Y-18574579D01*
X8541491Y-18574579D02*
X8531968Y-18555531D01*
X8531968Y-18555531D02*
X8522444Y-18526960D01*
X8522444Y-18526960D02*
X8512920Y-18479341D01*
X8512920Y-18479341D02*
X8512920Y-18441246D01*
X8512920Y-18441246D02*
X8522444Y-18393627D01*
X8522444Y-18393627D02*
X8531968Y-18365055D01*
X8531968Y-18365055D02*
X8541491Y-18346008D01*
X8541491Y-18346008D02*
X8560539Y-18317436D01*
X8560539Y-18317436D02*
X8570063Y-18307912D01*
X8636730Y-18355531D02*
X8646253Y-18346008D01*
X8646253Y-18346008D02*
X8665301Y-18336484D01*
X8665301Y-18336484D02*
X8712920Y-18336484D01*
X8712920Y-18336484D02*
X8731968Y-18346008D01*
X8731968Y-18346008D02*
X8741491Y-18355531D01*
X8741491Y-18355531D02*
X8751015Y-18374579D01*
X8751015Y-18374579D02*
X8751015Y-18393627D01*
X8751015Y-18393627D02*
X8741491Y-18422198D01*
X8741491Y-18422198D02*
X8627206Y-18536484D01*
X8627206Y-18536484D02*
X8751015Y-18536484D01*
X8989111Y-18536484D02*
X8989111Y-18336484D01*
X9074825Y-18536484D02*
X9074825Y-18431722D01*
X9074825Y-18431722D02*
X9065301Y-18412674D01*
X9065301Y-18412674D02*
X9046253Y-18403150D01*
X9046253Y-18403150D02*
X9017682Y-18403150D01*
X9017682Y-18403150D02*
X8998634Y-18412674D01*
X8998634Y-18412674D02*
X8989111Y-18422198D01*
X9198634Y-18536484D02*
X9179587Y-18526960D01*
X9179587Y-18526960D02*
X9170063Y-18517436D01*
X9170063Y-18517436D02*
X9160539Y-18498389D01*
X9160539Y-18498389D02*
X9160539Y-18441246D01*
X9160539Y-18441246D02*
X9170063Y-18422198D01*
X9170063Y-18422198D02*
X9179587Y-18412674D01*
X9179587Y-18412674D02*
X9198634Y-18403150D01*
X9198634Y-18403150D02*
X9227206Y-18403150D01*
X9227206Y-18403150D02*
X9246253Y-18412674D01*
X9246253Y-18412674D02*
X9255777Y-18422198D01*
X9255777Y-18422198D02*
X9265301Y-18441246D01*
X9265301Y-18441246D02*
X9265301Y-18498389D01*
X9265301Y-18498389D02*
X9255777Y-18517436D01*
X9255777Y-18517436D02*
X9246253Y-18526960D01*
X9246253Y-18526960D02*
X9227206Y-18536484D01*
X9227206Y-18536484D02*
X9198634Y-18536484D01*
X9379587Y-18536484D02*
X9360539Y-18526960D01*
X9360539Y-18526960D02*
X9351015Y-18507912D01*
X9351015Y-18507912D02*
X9351015Y-18336484D01*
X9531968Y-18526960D02*
X9512920Y-18536484D01*
X9512920Y-18536484D02*
X9474825Y-18536484D01*
X9474825Y-18536484D02*
X9455777Y-18526960D01*
X9455777Y-18526960D02*
X9446253Y-18507912D01*
X9446253Y-18507912D02*
X9446253Y-18431722D01*
X9446253Y-18431722D02*
X9455777Y-18412674D01*
X9455777Y-18412674D02*
X9474825Y-18403150D01*
X9474825Y-18403150D02*
X9512920Y-18403150D01*
X9512920Y-18403150D02*
X9531968Y-18412674D01*
X9531968Y-18412674D02*
X9541492Y-18431722D01*
X9541492Y-18431722D02*
X9541492Y-18450770D01*
X9541492Y-18450770D02*
X9446253Y-18469817D01*
X9617682Y-18526960D02*
X9636730Y-18536484D01*
X9636730Y-18536484D02*
X9674825Y-18536484D01*
X9674825Y-18536484D02*
X9693873Y-18526960D01*
X9693873Y-18526960D02*
X9703396Y-18507912D01*
X9703396Y-18507912D02*
X9703396Y-18498389D01*
X9703396Y-18498389D02*
X9693873Y-18479341D01*
X9693873Y-18479341D02*
X9674825Y-18469817D01*
X9674825Y-18469817D02*
X9646253Y-18469817D01*
X9646253Y-18469817D02*
X9627206Y-18460293D01*
X9627206Y-18460293D02*
X9617682Y-18441246D01*
X9617682Y-18441246D02*
X9617682Y-18431722D01*
X9617682Y-18431722D02*
X9627206Y-18412674D01*
X9627206Y-18412674D02*
X9646253Y-18403150D01*
X9646253Y-18403150D02*
X9674825Y-18403150D01*
X9674825Y-18403150D02*
X9693873Y-18412674D01*
X9770063Y-18612674D02*
X9779587Y-18603150D01*
X9779587Y-18603150D02*
X9798634Y-18574579D01*
X9798634Y-18574579D02*
X9808158Y-18555531D01*
X9808158Y-18555531D02*
X9817682Y-18526960D01*
X9817682Y-18526960D02*
X9827206Y-18479341D01*
X9827206Y-18479341D02*
X9827206Y-18441246D01*
X9827206Y-18441246D02*
X9817682Y-18393627D01*
X9817682Y-18393627D02*
X9808158Y-18365055D01*
X9808158Y-18365055D02*
X9798634Y-18346008D01*
X9798634Y-18346008D02*
X9779587Y-18317436D01*
X9779587Y-18317436D02*
X9770063Y-18307912D01*
X10131968Y-18612674D02*
X10122444Y-18603150D01*
X10122444Y-18603150D02*
X10103396Y-18574579D01*
X10103396Y-18574579D02*
X10093873Y-18555531D01*
X10093873Y-18555531D02*
X10084349Y-18526960D01*
X10084349Y-18526960D02*
X10074825Y-18479341D01*
X10074825Y-18479341D02*
X10074825Y-18441246D01*
X10074825Y-18441246D02*
X10084349Y-18393627D01*
X10084349Y-18393627D02*
X10093873Y-18365055D01*
X10093873Y-18365055D02*
X10103396Y-18346008D01*
X10103396Y-18346008D02*
X10122444Y-18317436D01*
X10122444Y-18317436D02*
X10131968Y-18307912D01*
X10208158Y-18403150D02*
X10208158Y-18536484D01*
X10208158Y-18422198D02*
X10217682Y-18412674D01*
X10217682Y-18412674D02*
X10236730Y-18403150D01*
X10236730Y-18403150D02*
X10265301Y-18403150D01*
X10265301Y-18403150D02*
X10284349Y-18412674D01*
X10284349Y-18412674D02*
X10293873Y-18431722D01*
X10293873Y-18431722D02*
X10293873Y-18536484D01*
X10417682Y-18536484D02*
X10398634Y-18526960D01*
X10398634Y-18526960D02*
X10389111Y-18517436D01*
X10389111Y-18517436D02*
X10379587Y-18498389D01*
X10379587Y-18498389D02*
X10379587Y-18441246D01*
X10379587Y-18441246D02*
X10389111Y-18422198D01*
X10389111Y-18422198D02*
X10398634Y-18412674D01*
X10398634Y-18412674D02*
X10417682Y-18403150D01*
X10417682Y-18403150D02*
X10446254Y-18403150D01*
X10446254Y-18403150D02*
X10465301Y-18412674D01*
X10465301Y-18412674D02*
X10474825Y-18422198D01*
X10474825Y-18422198D02*
X10484349Y-18441246D01*
X10484349Y-18441246D02*
X10484349Y-18498389D01*
X10484349Y-18498389D02*
X10474825Y-18517436D01*
X10474825Y-18517436D02*
X10465301Y-18526960D01*
X10465301Y-18526960D02*
X10446254Y-18536484D01*
X10446254Y-18536484D02*
X10417682Y-18536484D01*
X10541492Y-18403150D02*
X10617682Y-18403150D01*
X10570063Y-18336484D02*
X10570063Y-18507912D01*
X10570063Y-18507912D02*
X10579587Y-18526960D01*
X10579587Y-18526960D02*
X10598634Y-18536484D01*
X10598634Y-18536484D02*
X10617682Y-18536484D01*
X10836730Y-18403150D02*
X10836730Y-18603150D01*
X10836730Y-18412674D02*
X10855777Y-18403150D01*
X10855777Y-18403150D02*
X10893873Y-18403150D01*
X10893873Y-18403150D02*
X10912920Y-18412674D01*
X10912920Y-18412674D02*
X10922444Y-18422198D01*
X10922444Y-18422198D02*
X10931968Y-18441246D01*
X10931968Y-18441246D02*
X10931968Y-18498389D01*
X10931968Y-18498389D02*
X10922444Y-18517436D01*
X10922444Y-18517436D02*
X10912920Y-18526960D01*
X10912920Y-18526960D02*
X10893873Y-18536484D01*
X10893873Y-18536484D02*
X10855777Y-18536484D01*
X10855777Y-18536484D02*
X10836730Y-18526960D01*
X11046254Y-18536484D02*
X11027206Y-18526960D01*
X11027206Y-18526960D02*
X11017682Y-18507912D01*
X11017682Y-18507912D02*
X11017682Y-18336484D01*
X11208158Y-18536484D02*
X11208158Y-18431722D01*
X11208158Y-18431722D02*
X11198634Y-18412674D01*
X11198634Y-18412674D02*
X11179587Y-18403150D01*
X11179587Y-18403150D02*
X11141492Y-18403150D01*
X11141492Y-18403150D02*
X11122444Y-18412674D01*
X11208158Y-18526960D02*
X11189111Y-18536484D01*
X11189111Y-18536484D02*
X11141492Y-18536484D01*
X11141492Y-18536484D02*
X11122444Y-18526960D01*
X11122444Y-18526960D02*
X11112920Y-18507912D01*
X11112920Y-18507912D02*
X11112920Y-18488865D01*
X11112920Y-18488865D02*
X11122444Y-18469817D01*
X11122444Y-18469817D02*
X11141492Y-18460293D01*
X11141492Y-18460293D02*
X11189111Y-18460293D01*
X11189111Y-18460293D02*
X11208158Y-18450770D01*
X11274825Y-18403150D02*
X11351015Y-18403150D01*
X11303396Y-18336484D02*
X11303396Y-18507912D01*
X11303396Y-18507912D02*
X11312920Y-18526960D01*
X11312920Y-18526960D02*
X11331968Y-18536484D01*
X11331968Y-18536484D02*
X11351015Y-18536484D01*
X11493873Y-18526960D02*
X11474825Y-18536484D01*
X11474825Y-18536484D02*
X11436730Y-18536484D01*
X11436730Y-18536484D02*
X11417682Y-18526960D01*
X11417682Y-18526960D02*
X11408158Y-18507912D01*
X11408158Y-18507912D02*
X11408158Y-18431722D01*
X11408158Y-18431722D02*
X11417682Y-18412674D01*
X11417682Y-18412674D02*
X11436730Y-18403150D01*
X11436730Y-18403150D02*
X11474825Y-18403150D01*
X11474825Y-18403150D02*
X11493873Y-18412674D01*
X11493873Y-18412674D02*
X11503396Y-18431722D01*
X11503396Y-18431722D02*
X11503396Y-18450770D01*
X11503396Y-18450770D02*
X11408158Y-18469817D01*
X11674825Y-18536484D02*
X11674825Y-18336484D01*
X11674825Y-18526960D02*
X11655777Y-18536484D01*
X11655777Y-18536484D02*
X11617682Y-18536484D01*
X11617682Y-18536484D02*
X11598634Y-18526960D01*
X11598634Y-18526960D02*
X11589111Y-18517436D01*
X11589111Y-18517436D02*
X11579587Y-18498389D01*
X11579587Y-18498389D02*
X11579587Y-18441246D01*
X11579587Y-18441246D02*
X11589111Y-18422198D01*
X11589111Y-18422198D02*
X11598634Y-18412674D01*
X11598634Y-18412674D02*
X11617682Y-18403150D01*
X11617682Y-18403150D02*
X11655777Y-18403150D01*
X11655777Y-18403150D02*
X11674825Y-18412674D01*
X11751015Y-18612674D02*
X11760539Y-18603150D01*
X11760539Y-18603150D02*
X11779587Y-18574579D01*
X11779587Y-18574579D02*
X11789111Y-18555531D01*
X11789111Y-18555531D02*
X11798634Y-18526960D01*
X11798634Y-18526960D02*
X11808158Y-18479341D01*
X11808158Y-18479341D02*
X11808158Y-18441246D01*
X11808158Y-18441246D02*
X11798634Y-18393627D01*
X11798634Y-18393627D02*
X11789111Y-18365055D01*
X11789111Y-18365055D02*
X11779587Y-18346008D01*
X11779587Y-18346008D02*
X11760539Y-18317436D01*
X11760539Y-18317436D02*
X11751015Y-18307912D01*
D12*
X4995000Y-18709000D02*
G75*
G02*
X4844998Y-18709000I-75001J0D01*
G01*
X4844998Y-18709000D02*
G75*
G02*
X4995000Y-18709000I75001J0D01*
G01*
D11*
X5360539Y-18800484D02*
X5246253Y-18800484D01*
X5303396Y-18800484D02*
X5303396Y-18600484D01*
X5303396Y-18600484D02*
X5284348Y-18629055D01*
X5284348Y-18629055D02*
X5265301Y-18648103D01*
X5265301Y-18648103D02*
X5246253Y-18657627D01*
X5446253Y-18781436D02*
X5455777Y-18790960D01*
X5455777Y-18790960D02*
X5446253Y-18800484D01*
X5446253Y-18800484D02*
X5436729Y-18790960D01*
X5436729Y-18790960D02*
X5446253Y-18781436D01*
X5446253Y-18781436D02*
X5446253Y-18800484D01*
X5636729Y-18600484D02*
X5541491Y-18600484D01*
X5541491Y-18600484D02*
X5531967Y-18695722D01*
X5531967Y-18695722D02*
X5541491Y-18686198D01*
X5541491Y-18686198D02*
X5560539Y-18676674D01*
X5560539Y-18676674D02*
X5608158Y-18676674D01*
X5608158Y-18676674D02*
X5627205Y-18686198D01*
X5627205Y-18686198D02*
X5636729Y-18695722D01*
X5636729Y-18695722D02*
X5646253Y-18714770D01*
X5646253Y-18714770D02*
X5646253Y-18762389D01*
X5646253Y-18762389D02*
X5636729Y-18781436D01*
X5636729Y-18781436D02*
X5627205Y-18790960D01*
X5627205Y-18790960D02*
X5608158Y-18800484D01*
X5608158Y-18800484D02*
X5560539Y-18800484D01*
X5560539Y-18800484D02*
X5541491Y-18790960D01*
X5541491Y-18790960D02*
X5531967Y-18781436D01*
X5770062Y-18600484D02*
X5789110Y-18600484D01*
X5789110Y-18600484D02*
X5808158Y-18610008D01*
X5808158Y-18610008D02*
X5817682Y-18619531D01*
X5817682Y-18619531D02*
X5827205Y-18638579D01*
X5827205Y-18638579D02*
X5836729Y-18676674D01*
X5836729Y-18676674D02*
X5836729Y-18724293D01*
X5836729Y-18724293D02*
X5827205Y-18762389D01*
X5827205Y-18762389D02*
X5817682Y-18781436D01*
X5817682Y-18781436D02*
X5808158Y-18790960D01*
X5808158Y-18790960D02*
X5789110Y-18800484D01*
X5789110Y-18800484D02*
X5770062Y-18800484D01*
X5770062Y-18800484D02*
X5751015Y-18790960D01*
X5751015Y-18790960D02*
X5741491Y-18781436D01*
X5741491Y-18781436D02*
X5731967Y-18762389D01*
X5731967Y-18762389D02*
X5722443Y-18724293D01*
X5722443Y-18724293D02*
X5722443Y-18676674D01*
X5722443Y-18676674D02*
X5731967Y-18638579D01*
X5731967Y-18638579D02*
X5741491Y-18619531D01*
X5741491Y-18619531D02*
X5751015Y-18610008D01*
X5751015Y-18610008D02*
X5770062Y-18600484D01*
X5960539Y-18600484D02*
X5979586Y-18600484D01*
X5979586Y-18600484D02*
X5998634Y-18610008D01*
X5998634Y-18610008D02*
X6008158Y-18619531D01*
X6008158Y-18619531D02*
X6017682Y-18638579D01*
X6017682Y-18638579D02*
X6027205Y-18676674D01*
X6027205Y-18676674D02*
X6027205Y-18724293D01*
X6027205Y-18724293D02*
X6017682Y-18762389D01*
X6017682Y-18762389D02*
X6008158Y-18781436D01*
X6008158Y-18781436D02*
X5998634Y-18790960D01*
X5998634Y-18790960D02*
X5979586Y-18800484D01*
X5979586Y-18800484D02*
X5960539Y-18800484D01*
X5960539Y-18800484D02*
X5941491Y-18790960D01*
X5941491Y-18790960D02*
X5931967Y-18781436D01*
X5931967Y-18781436D02*
X5922443Y-18762389D01*
X5922443Y-18762389D02*
X5912920Y-18724293D01*
X5912920Y-18724293D02*
X5912920Y-18676674D01*
X5912920Y-18676674D02*
X5922443Y-18638579D01*
X5922443Y-18638579D02*
X5931967Y-18619531D01*
X5931967Y-18619531D02*
X5941491Y-18610008D01*
X5941491Y-18610008D02*
X5960539Y-18600484D01*
X6112920Y-18800484D02*
X6112920Y-18667150D01*
X6112920Y-18686198D02*
X6122443Y-18676674D01*
X6122443Y-18676674D02*
X6141491Y-18667150D01*
X6141491Y-18667150D02*
X6170063Y-18667150D01*
X6170063Y-18667150D02*
X6189110Y-18676674D01*
X6189110Y-18676674D02*
X6198634Y-18695722D01*
X6198634Y-18695722D02*
X6198634Y-18800484D01*
X6198634Y-18695722D02*
X6208158Y-18676674D01*
X6208158Y-18676674D02*
X6227205Y-18667150D01*
X6227205Y-18667150D02*
X6255777Y-18667150D01*
X6255777Y-18667150D02*
X6274824Y-18676674D01*
X6274824Y-18676674D02*
X6284348Y-18695722D01*
X6284348Y-18695722D02*
X6284348Y-18800484D01*
X6379586Y-18800484D02*
X6379586Y-18667150D01*
X6379586Y-18686198D02*
X6389110Y-18676674D01*
X6389110Y-18676674D02*
X6408158Y-18667150D01*
X6408158Y-18667150D02*
X6436729Y-18667150D01*
X6436729Y-18667150D02*
X6455777Y-18676674D01*
X6455777Y-18676674D02*
X6465301Y-18695722D01*
X6465301Y-18695722D02*
X6465301Y-18800484D01*
X6465301Y-18695722D02*
X6474824Y-18676674D01*
X6474824Y-18676674D02*
X6493872Y-18667150D01*
X6493872Y-18667150D02*
X6522443Y-18667150D01*
X6522443Y-18667150D02*
X6541491Y-18676674D01*
X6541491Y-18676674D02*
X6551015Y-18695722D01*
X6551015Y-18695722D02*
X6551015Y-18800484D01*
X6941491Y-18590960D02*
X6770063Y-18848103D01*
X7198634Y-18600484D02*
X7217682Y-18600484D01*
X7217682Y-18600484D02*
X7236729Y-18610008D01*
X7236729Y-18610008D02*
X7246253Y-18619531D01*
X7246253Y-18619531D02*
X7255777Y-18638579D01*
X7255777Y-18638579D02*
X7265301Y-18676674D01*
X7265301Y-18676674D02*
X7265301Y-18724293D01*
X7265301Y-18724293D02*
X7255777Y-18762389D01*
X7255777Y-18762389D02*
X7246253Y-18781436D01*
X7246253Y-18781436D02*
X7236729Y-18790960D01*
X7236729Y-18790960D02*
X7217682Y-18800484D01*
X7217682Y-18800484D02*
X7198634Y-18800484D01*
X7198634Y-18800484D02*
X7179586Y-18790960D01*
X7179586Y-18790960D02*
X7170063Y-18781436D01*
X7170063Y-18781436D02*
X7160539Y-18762389D01*
X7160539Y-18762389D02*
X7151015Y-18724293D01*
X7151015Y-18724293D02*
X7151015Y-18676674D01*
X7151015Y-18676674D02*
X7160539Y-18638579D01*
X7160539Y-18638579D02*
X7170063Y-18619531D01*
X7170063Y-18619531D02*
X7179586Y-18610008D01*
X7179586Y-18610008D02*
X7198634Y-18600484D01*
X7351015Y-18781436D02*
X7360539Y-18790960D01*
X7360539Y-18790960D02*
X7351015Y-18800484D01*
X7351015Y-18800484D02*
X7341491Y-18790960D01*
X7341491Y-18790960D02*
X7351015Y-18781436D01*
X7351015Y-18781436D02*
X7351015Y-18800484D01*
X7484348Y-18600484D02*
X7503396Y-18600484D01*
X7503396Y-18600484D02*
X7522444Y-18610008D01*
X7522444Y-18610008D02*
X7531967Y-18619531D01*
X7531967Y-18619531D02*
X7541491Y-18638579D01*
X7541491Y-18638579D02*
X7551015Y-18676674D01*
X7551015Y-18676674D02*
X7551015Y-18724293D01*
X7551015Y-18724293D02*
X7541491Y-18762389D01*
X7541491Y-18762389D02*
X7531967Y-18781436D01*
X7531967Y-18781436D02*
X7522444Y-18790960D01*
X7522444Y-18790960D02*
X7503396Y-18800484D01*
X7503396Y-18800484D02*
X7484348Y-18800484D01*
X7484348Y-18800484D02*
X7465301Y-18790960D01*
X7465301Y-18790960D02*
X7455777Y-18781436D01*
X7455777Y-18781436D02*
X7446253Y-18762389D01*
X7446253Y-18762389D02*
X7436729Y-18724293D01*
X7436729Y-18724293D02*
X7436729Y-18676674D01*
X7436729Y-18676674D02*
X7446253Y-18638579D01*
X7446253Y-18638579D02*
X7455777Y-18619531D01*
X7455777Y-18619531D02*
X7465301Y-18610008D01*
X7465301Y-18610008D02*
X7484348Y-18600484D01*
X7731967Y-18600484D02*
X7636729Y-18600484D01*
X7636729Y-18600484D02*
X7627206Y-18695722D01*
X7627206Y-18695722D02*
X7636729Y-18686198D01*
X7636729Y-18686198D02*
X7655777Y-18676674D01*
X7655777Y-18676674D02*
X7703396Y-18676674D01*
X7703396Y-18676674D02*
X7722444Y-18686198D01*
X7722444Y-18686198D02*
X7731967Y-18695722D01*
X7731967Y-18695722D02*
X7741491Y-18714770D01*
X7741491Y-18714770D02*
X7741491Y-18762389D01*
X7741491Y-18762389D02*
X7731967Y-18781436D01*
X7731967Y-18781436D02*
X7722444Y-18790960D01*
X7722444Y-18790960D02*
X7703396Y-18800484D01*
X7703396Y-18800484D02*
X7655777Y-18800484D01*
X7655777Y-18800484D02*
X7636729Y-18790960D01*
X7636729Y-18790960D02*
X7627206Y-18781436D01*
X7836729Y-18800484D02*
X7874825Y-18800484D01*
X7874825Y-18800484D02*
X7893872Y-18790960D01*
X7893872Y-18790960D02*
X7903396Y-18781436D01*
X7903396Y-18781436D02*
X7922444Y-18752865D01*
X7922444Y-18752865D02*
X7931967Y-18714770D01*
X7931967Y-18714770D02*
X7931967Y-18638579D01*
X7931967Y-18638579D02*
X7922444Y-18619531D01*
X7922444Y-18619531D02*
X7912920Y-18610008D01*
X7912920Y-18610008D02*
X7893872Y-18600484D01*
X7893872Y-18600484D02*
X7855777Y-18600484D01*
X7855777Y-18600484D02*
X7836729Y-18610008D01*
X7836729Y-18610008D02*
X7827206Y-18619531D01*
X7827206Y-18619531D02*
X7817682Y-18638579D01*
X7817682Y-18638579D02*
X7817682Y-18686198D01*
X7817682Y-18686198D02*
X7827206Y-18705246D01*
X7827206Y-18705246D02*
X7836729Y-18714770D01*
X7836729Y-18714770D02*
X7855777Y-18724293D01*
X7855777Y-18724293D02*
X7893872Y-18724293D01*
X7893872Y-18724293D02*
X7912920Y-18714770D01*
X7912920Y-18714770D02*
X7922444Y-18705246D01*
X7922444Y-18705246D02*
X7931967Y-18686198D01*
X8122444Y-18800484D02*
X8008158Y-18800484D01*
X8065301Y-18800484D02*
X8065301Y-18600484D01*
X8065301Y-18600484D02*
X8046253Y-18629055D01*
X8046253Y-18629055D02*
X8027206Y-18648103D01*
X8027206Y-18648103D02*
X8008158Y-18657627D01*
X8198634Y-18600484D02*
X8198634Y-18638579D01*
X8274825Y-18600484D02*
X8274825Y-18638579D01*
X8570063Y-18876674D02*
X8560539Y-18867150D01*
X8560539Y-18867150D02*
X8541491Y-18838579D01*
X8541491Y-18838579D02*
X8531968Y-18819531D01*
X8531968Y-18819531D02*
X8522444Y-18790960D01*
X8522444Y-18790960D02*
X8512920Y-18743341D01*
X8512920Y-18743341D02*
X8512920Y-18705246D01*
X8512920Y-18705246D02*
X8522444Y-18657627D01*
X8522444Y-18657627D02*
X8531968Y-18629055D01*
X8531968Y-18629055D02*
X8541491Y-18610008D01*
X8541491Y-18610008D02*
X8560539Y-18581436D01*
X8560539Y-18581436D02*
X8570063Y-18571912D01*
X8636730Y-18619531D02*
X8646253Y-18610008D01*
X8646253Y-18610008D02*
X8665301Y-18600484D01*
X8665301Y-18600484D02*
X8712920Y-18600484D01*
X8712920Y-18600484D02*
X8731968Y-18610008D01*
X8731968Y-18610008D02*
X8741491Y-18619531D01*
X8741491Y-18619531D02*
X8751015Y-18638579D01*
X8751015Y-18638579D02*
X8751015Y-18657627D01*
X8751015Y-18657627D02*
X8741491Y-18686198D01*
X8741491Y-18686198D02*
X8627206Y-18800484D01*
X8627206Y-18800484D02*
X8751015Y-18800484D01*
X8989111Y-18800484D02*
X8989111Y-18600484D01*
X9074825Y-18800484D02*
X9074825Y-18695722D01*
X9074825Y-18695722D02*
X9065301Y-18676674D01*
X9065301Y-18676674D02*
X9046253Y-18667150D01*
X9046253Y-18667150D02*
X9017682Y-18667150D01*
X9017682Y-18667150D02*
X8998634Y-18676674D01*
X8998634Y-18676674D02*
X8989111Y-18686198D01*
X9198634Y-18800484D02*
X9179587Y-18790960D01*
X9179587Y-18790960D02*
X9170063Y-18781436D01*
X9170063Y-18781436D02*
X9160539Y-18762389D01*
X9160539Y-18762389D02*
X9160539Y-18705246D01*
X9160539Y-18705246D02*
X9170063Y-18686198D01*
X9170063Y-18686198D02*
X9179587Y-18676674D01*
X9179587Y-18676674D02*
X9198634Y-18667150D01*
X9198634Y-18667150D02*
X9227206Y-18667150D01*
X9227206Y-18667150D02*
X9246253Y-18676674D01*
X9246253Y-18676674D02*
X9255777Y-18686198D01*
X9255777Y-18686198D02*
X9265301Y-18705246D01*
X9265301Y-18705246D02*
X9265301Y-18762389D01*
X9265301Y-18762389D02*
X9255777Y-18781436D01*
X9255777Y-18781436D02*
X9246253Y-18790960D01*
X9246253Y-18790960D02*
X9227206Y-18800484D01*
X9227206Y-18800484D02*
X9198634Y-18800484D01*
X9379587Y-18800484D02*
X9360539Y-18790960D01*
X9360539Y-18790960D02*
X9351015Y-18771912D01*
X9351015Y-18771912D02*
X9351015Y-18600484D01*
X9531968Y-18790960D02*
X9512920Y-18800484D01*
X9512920Y-18800484D02*
X9474825Y-18800484D01*
X9474825Y-18800484D02*
X9455777Y-18790960D01*
X9455777Y-18790960D02*
X9446253Y-18771912D01*
X9446253Y-18771912D02*
X9446253Y-18695722D01*
X9446253Y-18695722D02*
X9455777Y-18676674D01*
X9455777Y-18676674D02*
X9474825Y-18667150D01*
X9474825Y-18667150D02*
X9512920Y-18667150D01*
X9512920Y-18667150D02*
X9531968Y-18676674D01*
X9531968Y-18676674D02*
X9541492Y-18695722D01*
X9541492Y-18695722D02*
X9541492Y-18714770D01*
X9541492Y-18714770D02*
X9446253Y-18733817D01*
X9617682Y-18790960D02*
X9636730Y-18800484D01*
X9636730Y-18800484D02*
X9674825Y-18800484D01*
X9674825Y-18800484D02*
X9693873Y-18790960D01*
X9693873Y-18790960D02*
X9703396Y-18771912D01*
X9703396Y-18771912D02*
X9703396Y-18762389D01*
X9703396Y-18762389D02*
X9693873Y-18743341D01*
X9693873Y-18743341D02*
X9674825Y-18733817D01*
X9674825Y-18733817D02*
X9646253Y-18733817D01*
X9646253Y-18733817D02*
X9627206Y-18724293D01*
X9627206Y-18724293D02*
X9617682Y-18705246D01*
X9617682Y-18705246D02*
X9617682Y-18695722D01*
X9617682Y-18695722D02*
X9627206Y-18676674D01*
X9627206Y-18676674D02*
X9646253Y-18667150D01*
X9646253Y-18667150D02*
X9674825Y-18667150D01*
X9674825Y-18667150D02*
X9693873Y-18676674D01*
X9770063Y-18876674D02*
X9779587Y-18867150D01*
X9779587Y-18867150D02*
X9798634Y-18838579D01*
X9798634Y-18838579D02*
X9808158Y-18819531D01*
X9808158Y-18819531D02*
X9817682Y-18790960D01*
X9817682Y-18790960D02*
X9827206Y-18743341D01*
X9827206Y-18743341D02*
X9827206Y-18705246D01*
X9827206Y-18705246D02*
X9817682Y-18657627D01*
X9817682Y-18657627D02*
X9808158Y-18629055D01*
X9808158Y-18629055D02*
X9798634Y-18610008D01*
X9798634Y-18610008D02*
X9779587Y-18581436D01*
X9779587Y-18581436D02*
X9770063Y-18571912D01*
X10131968Y-18876674D02*
X10122444Y-18867150D01*
X10122444Y-18867150D02*
X10103396Y-18838579D01*
X10103396Y-18838579D02*
X10093873Y-18819531D01*
X10093873Y-18819531D02*
X10084349Y-18790960D01*
X10084349Y-18790960D02*
X10074825Y-18743341D01*
X10074825Y-18743341D02*
X10074825Y-18705246D01*
X10074825Y-18705246D02*
X10084349Y-18657627D01*
X10084349Y-18657627D02*
X10093873Y-18629055D01*
X10093873Y-18629055D02*
X10103396Y-18610008D01*
X10103396Y-18610008D02*
X10122444Y-18581436D01*
X10122444Y-18581436D02*
X10131968Y-18571912D01*
X10208158Y-18667150D02*
X10208158Y-18800484D01*
X10208158Y-18686198D02*
X10217682Y-18676674D01*
X10217682Y-18676674D02*
X10236730Y-18667150D01*
X10236730Y-18667150D02*
X10265301Y-18667150D01*
X10265301Y-18667150D02*
X10284349Y-18676674D01*
X10284349Y-18676674D02*
X10293873Y-18695722D01*
X10293873Y-18695722D02*
X10293873Y-18800484D01*
X10417682Y-18800484D02*
X10398634Y-18790960D01*
X10398634Y-18790960D02*
X10389111Y-18781436D01*
X10389111Y-18781436D02*
X10379587Y-18762389D01*
X10379587Y-18762389D02*
X10379587Y-18705246D01*
X10379587Y-18705246D02*
X10389111Y-18686198D01*
X10389111Y-18686198D02*
X10398634Y-18676674D01*
X10398634Y-18676674D02*
X10417682Y-18667150D01*
X10417682Y-18667150D02*
X10446254Y-18667150D01*
X10446254Y-18667150D02*
X10465301Y-18676674D01*
X10465301Y-18676674D02*
X10474825Y-18686198D01*
X10474825Y-18686198D02*
X10484349Y-18705246D01*
X10484349Y-18705246D02*
X10484349Y-18762389D01*
X10484349Y-18762389D02*
X10474825Y-18781436D01*
X10474825Y-18781436D02*
X10465301Y-18790960D01*
X10465301Y-18790960D02*
X10446254Y-18800484D01*
X10446254Y-18800484D02*
X10417682Y-18800484D01*
X10541492Y-18667150D02*
X10617682Y-18667150D01*
X10570063Y-18600484D02*
X10570063Y-18771912D01*
X10570063Y-18771912D02*
X10579587Y-18790960D01*
X10579587Y-18790960D02*
X10598634Y-18800484D01*
X10598634Y-18800484D02*
X10617682Y-18800484D01*
X10836730Y-18667150D02*
X10836730Y-18867150D01*
X10836730Y-18676674D02*
X10855777Y-18667150D01*
X10855777Y-18667150D02*
X10893873Y-18667150D01*
X10893873Y-18667150D02*
X10912920Y-18676674D01*
X10912920Y-18676674D02*
X10922444Y-18686198D01*
X10922444Y-18686198D02*
X10931968Y-18705246D01*
X10931968Y-18705246D02*
X10931968Y-18762389D01*
X10931968Y-18762389D02*
X10922444Y-18781436D01*
X10922444Y-18781436D02*
X10912920Y-18790960D01*
X10912920Y-18790960D02*
X10893873Y-18800484D01*
X10893873Y-18800484D02*
X10855777Y-18800484D01*
X10855777Y-18800484D02*
X10836730Y-18790960D01*
X11046254Y-18800484D02*
X11027206Y-18790960D01*
X11027206Y-18790960D02*
X11017682Y-18771912D01*
X11017682Y-18771912D02*
X11017682Y-18600484D01*
X11208158Y-18800484D02*
X11208158Y-18695722D01*
X11208158Y-18695722D02*
X11198634Y-18676674D01*
X11198634Y-18676674D02*
X11179587Y-18667150D01*
X11179587Y-18667150D02*
X11141492Y-18667150D01*
X11141492Y-18667150D02*
X11122444Y-18676674D01*
X11208158Y-18790960D02*
X11189111Y-18800484D01*
X11189111Y-18800484D02*
X11141492Y-18800484D01*
X11141492Y-18800484D02*
X11122444Y-18790960D01*
X11122444Y-18790960D02*
X11112920Y-18771912D01*
X11112920Y-18771912D02*
X11112920Y-18752865D01*
X11112920Y-18752865D02*
X11122444Y-18733817D01*
X11122444Y-18733817D02*
X11141492Y-18724293D01*
X11141492Y-18724293D02*
X11189111Y-18724293D01*
X11189111Y-18724293D02*
X11208158Y-18714770D01*
X11274825Y-18667150D02*
X11351015Y-18667150D01*
X11303396Y-18600484D02*
X11303396Y-18771912D01*
X11303396Y-18771912D02*
X11312920Y-18790960D01*
X11312920Y-18790960D02*
X11331968Y-18800484D01*
X11331968Y-18800484D02*
X11351015Y-18800484D01*
X11493873Y-18790960D02*
X11474825Y-18800484D01*
X11474825Y-18800484D02*
X11436730Y-18800484D01*
X11436730Y-18800484D02*
X11417682Y-18790960D01*
X11417682Y-18790960D02*
X11408158Y-18771912D01*
X11408158Y-18771912D02*
X11408158Y-18695722D01*
X11408158Y-18695722D02*
X11417682Y-18676674D01*
X11417682Y-18676674D02*
X11436730Y-18667150D01*
X11436730Y-18667150D02*
X11474825Y-18667150D01*
X11474825Y-18667150D02*
X11493873Y-18676674D01*
X11493873Y-18676674D02*
X11503396Y-18695722D01*
X11503396Y-18695722D02*
X11503396Y-18714770D01*
X11503396Y-18714770D02*
X11408158Y-18733817D01*
X11674825Y-18800484D02*
X11674825Y-18600484D01*
X11674825Y-18790960D02*
X11655777Y-18800484D01*
X11655777Y-18800484D02*
X11617682Y-18800484D01*
X11617682Y-18800484D02*
X11598634Y-18790960D01*
X11598634Y-18790960D02*
X11589111Y-18781436D01*
X11589111Y-18781436D02*
X11579587Y-18762389D01*
X11579587Y-18762389D02*
X11579587Y-18705246D01*
X11579587Y-18705246D02*
X11589111Y-18686198D01*
X11589111Y-18686198D02*
X11598634Y-18676674D01*
X11598634Y-18676674D02*
X11617682Y-18667150D01*
X11617682Y-18667150D02*
X11655777Y-18667150D01*
X11655777Y-18667150D02*
X11674825Y-18676674D01*
X11751015Y-18876674D02*
X11760539Y-18867150D01*
X11760539Y-18867150D02*
X11779587Y-18838579D01*
X11779587Y-18838579D02*
X11789111Y-18819531D01*
X11789111Y-18819531D02*
X11798634Y-18790960D01*
X11798634Y-18790960D02*
X11808158Y-18743341D01*
X11808158Y-18743341D02*
X11808158Y-18705246D01*
X11808158Y-18705246D02*
X11798634Y-18657627D01*
X11798634Y-18657627D02*
X11789111Y-18629055D01*
X11789111Y-18629055D02*
X11779587Y-18610008D01*
X11779587Y-18610008D02*
X11760539Y-18581436D01*
X11760539Y-18581436D02*
X11751015Y-18571912D01*
X4895000Y-18879002D02*
X4895000Y-19079002D01*
X4795000Y-18979002D02*
X4995000Y-18979002D01*
X5246253Y-18889534D02*
X5255777Y-18880010D01*
X5255777Y-18880010D02*
X5274824Y-18870486D01*
X5274824Y-18870486D02*
X5322444Y-18870486D01*
X5322444Y-18870486D02*
X5341491Y-18880010D01*
X5341491Y-18880010D02*
X5351015Y-18889534D01*
X5351015Y-18889534D02*
X5360539Y-18908581D01*
X5360539Y-18908581D02*
X5360539Y-18927629D01*
X5360539Y-18927629D02*
X5351015Y-18956200D01*
X5351015Y-18956200D02*
X5236729Y-19070486D01*
X5236729Y-19070486D02*
X5360539Y-19070486D01*
X5446253Y-19051438D02*
X5455777Y-19060962D01*
X5455777Y-19060962D02*
X5446253Y-19070486D01*
X5446253Y-19070486D02*
X5436729Y-19060962D01*
X5436729Y-19060962D02*
X5446253Y-19051438D01*
X5446253Y-19051438D02*
X5446253Y-19070486D01*
X5570063Y-18956200D02*
X5551015Y-18946676D01*
X5551015Y-18946676D02*
X5541491Y-18937153D01*
X5541491Y-18937153D02*
X5531967Y-18918105D01*
X5531967Y-18918105D02*
X5531967Y-18908581D01*
X5531967Y-18908581D02*
X5541491Y-18889534D01*
X5541491Y-18889534D02*
X5551015Y-18880010D01*
X5551015Y-18880010D02*
X5570063Y-18870486D01*
X5570063Y-18870486D02*
X5608158Y-18870486D01*
X5608158Y-18870486D02*
X5627205Y-18880010D01*
X5627205Y-18880010D02*
X5636729Y-18889534D01*
X5636729Y-18889534D02*
X5646253Y-18908581D01*
X5646253Y-18908581D02*
X5646253Y-18918105D01*
X5646253Y-18918105D02*
X5636729Y-18937153D01*
X5636729Y-18937153D02*
X5627205Y-18946676D01*
X5627205Y-18946676D02*
X5608158Y-18956200D01*
X5608158Y-18956200D02*
X5570063Y-18956200D01*
X5570063Y-18956200D02*
X5551015Y-18965724D01*
X5551015Y-18965724D02*
X5541491Y-18975248D01*
X5541491Y-18975248D02*
X5531967Y-18994296D01*
X5531967Y-18994296D02*
X5531967Y-19032391D01*
X5531967Y-19032391D02*
X5541491Y-19051438D01*
X5541491Y-19051438D02*
X5551015Y-19060962D01*
X5551015Y-19060962D02*
X5570063Y-19070486D01*
X5570063Y-19070486D02*
X5608158Y-19070486D01*
X5608158Y-19070486D02*
X5627205Y-19060962D01*
X5627205Y-19060962D02*
X5636729Y-19051438D01*
X5636729Y-19051438D02*
X5646253Y-19032391D01*
X5646253Y-19032391D02*
X5646253Y-18994296D01*
X5646253Y-18994296D02*
X5636729Y-18975248D01*
X5636729Y-18975248D02*
X5627205Y-18965724D01*
X5627205Y-18965724D02*
X5608158Y-18956200D01*
X5827205Y-18870486D02*
X5731967Y-18870486D01*
X5731967Y-18870486D02*
X5722443Y-18965724D01*
X5722443Y-18965724D02*
X5731967Y-18956200D01*
X5731967Y-18956200D02*
X5751015Y-18946676D01*
X5751015Y-18946676D02*
X5798634Y-18946676D01*
X5798634Y-18946676D02*
X5817682Y-18956200D01*
X5817682Y-18956200D02*
X5827205Y-18965724D01*
X5827205Y-18965724D02*
X5836729Y-18984772D01*
X5836729Y-18984772D02*
X5836729Y-19032391D01*
X5836729Y-19032391D02*
X5827205Y-19051438D01*
X5827205Y-19051438D02*
X5817682Y-19060962D01*
X5817682Y-19060962D02*
X5798634Y-19070486D01*
X5798634Y-19070486D02*
X5751015Y-19070486D01*
X5751015Y-19070486D02*
X5731967Y-19060962D01*
X5731967Y-19060962D02*
X5722443Y-19051438D01*
X5960539Y-18870486D02*
X5979586Y-18870486D01*
X5979586Y-18870486D02*
X5998634Y-18880010D01*
X5998634Y-18880010D02*
X6008158Y-18889534D01*
X6008158Y-18889534D02*
X6017682Y-18908581D01*
X6017682Y-18908581D02*
X6027205Y-18946676D01*
X6027205Y-18946676D02*
X6027205Y-18994296D01*
X6027205Y-18994296D02*
X6017682Y-19032391D01*
X6017682Y-19032391D02*
X6008158Y-19051438D01*
X6008158Y-19051438D02*
X5998634Y-19060962D01*
X5998634Y-19060962D02*
X5979586Y-19070486D01*
X5979586Y-19070486D02*
X5960539Y-19070486D01*
X5960539Y-19070486D02*
X5941491Y-19060962D01*
X5941491Y-19060962D02*
X5931967Y-19051438D01*
X5931967Y-19051438D02*
X5922443Y-19032391D01*
X5922443Y-19032391D02*
X5912920Y-18994296D01*
X5912920Y-18994296D02*
X5912920Y-18946676D01*
X5912920Y-18946676D02*
X5922443Y-18908581D01*
X5922443Y-18908581D02*
X5931967Y-18889534D01*
X5931967Y-18889534D02*
X5941491Y-18880010D01*
X5941491Y-18880010D02*
X5960539Y-18870486D01*
X6112920Y-19070486D02*
X6112920Y-18937153D01*
X6112920Y-18956200D02*
X6122443Y-18946676D01*
X6122443Y-18946676D02*
X6141491Y-18937153D01*
X6141491Y-18937153D02*
X6170063Y-18937153D01*
X6170063Y-18937153D02*
X6189110Y-18946676D01*
X6189110Y-18946676D02*
X6198634Y-18965724D01*
X6198634Y-18965724D02*
X6198634Y-19070486D01*
X6198634Y-18965724D02*
X6208158Y-18946676D01*
X6208158Y-18946676D02*
X6227205Y-18937153D01*
X6227205Y-18937153D02*
X6255777Y-18937153D01*
X6255777Y-18937153D02*
X6274824Y-18946676D01*
X6274824Y-18946676D02*
X6284348Y-18965724D01*
X6284348Y-18965724D02*
X6284348Y-19070486D01*
X6379586Y-19070486D02*
X6379586Y-18937153D01*
X6379586Y-18956200D02*
X6389110Y-18946676D01*
X6389110Y-18946676D02*
X6408158Y-18937153D01*
X6408158Y-18937153D02*
X6436729Y-18937153D01*
X6436729Y-18937153D02*
X6455777Y-18946676D01*
X6455777Y-18946676D02*
X6465301Y-18965724D01*
X6465301Y-18965724D02*
X6465301Y-19070486D01*
X6465301Y-18965724D02*
X6474824Y-18946676D01*
X6474824Y-18946676D02*
X6493872Y-18937153D01*
X6493872Y-18937153D02*
X6522443Y-18937153D01*
X6522443Y-18937153D02*
X6541491Y-18946676D01*
X6541491Y-18946676D02*
X6551015Y-18965724D01*
X6551015Y-18965724D02*
X6551015Y-19070486D01*
X6941491Y-18860962D02*
X6770063Y-19118105D01*
X7198634Y-18870486D02*
X7217682Y-18870486D01*
X7217682Y-18870486D02*
X7236729Y-18880010D01*
X7236729Y-18880010D02*
X7246253Y-18889534D01*
X7246253Y-18889534D02*
X7255777Y-18908581D01*
X7255777Y-18908581D02*
X7265301Y-18946676D01*
X7265301Y-18946676D02*
X7265301Y-18994296D01*
X7265301Y-18994296D02*
X7255777Y-19032391D01*
X7255777Y-19032391D02*
X7246253Y-19051438D01*
X7246253Y-19051438D02*
X7236729Y-19060962D01*
X7236729Y-19060962D02*
X7217682Y-19070486D01*
X7217682Y-19070486D02*
X7198634Y-19070486D01*
X7198634Y-19070486D02*
X7179586Y-19060962D01*
X7179586Y-19060962D02*
X7170063Y-19051438D01*
X7170063Y-19051438D02*
X7160539Y-19032391D01*
X7160539Y-19032391D02*
X7151015Y-18994296D01*
X7151015Y-18994296D02*
X7151015Y-18946676D01*
X7151015Y-18946676D02*
X7160539Y-18908581D01*
X7160539Y-18908581D02*
X7170063Y-18889534D01*
X7170063Y-18889534D02*
X7179586Y-18880010D01*
X7179586Y-18880010D02*
X7198634Y-18870486D01*
X7351015Y-19051438D02*
X7360539Y-19060962D01*
X7360539Y-19060962D02*
X7351015Y-19070486D01*
X7351015Y-19070486D02*
X7341491Y-19060962D01*
X7341491Y-19060962D02*
X7351015Y-19051438D01*
X7351015Y-19051438D02*
X7351015Y-19070486D01*
X7551015Y-19070486D02*
X7436729Y-19070486D01*
X7493872Y-19070486D02*
X7493872Y-18870486D01*
X7493872Y-18870486D02*
X7474825Y-18899057D01*
X7474825Y-18899057D02*
X7455777Y-18918105D01*
X7455777Y-18918105D02*
X7436729Y-18927629D01*
X7741491Y-19070486D02*
X7627206Y-19070486D01*
X7684348Y-19070486D02*
X7684348Y-18870486D01*
X7684348Y-18870486D02*
X7665301Y-18899057D01*
X7665301Y-18899057D02*
X7646253Y-18918105D01*
X7646253Y-18918105D02*
X7627206Y-18927629D01*
X7817682Y-18889534D02*
X7827206Y-18880010D01*
X7827206Y-18880010D02*
X7846253Y-18870486D01*
X7846253Y-18870486D02*
X7893872Y-18870486D01*
X7893872Y-18870486D02*
X7912920Y-18880010D01*
X7912920Y-18880010D02*
X7922444Y-18889534D01*
X7922444Y-18889534D02*
X7931967Y-18908581D01*
X7931967Y-18908581D02*
X7931967Y-18927629D01*
X7931967Y-18927629D02*
X7922444Y-18956200D01*
X7922444Y-18956200D02*
X7808158Y-19070486D01*
X7808158Y-19070486D02*
X7931967Y-19070486D01*
X8008158Y-18889534D02*
X8017682Y-18880010D01*
X8017682Y-18880010D02*
X8036729Y-18870486D01*
X8036729Y-18870486D02*
X8084348Y-18870486D01*
X8084348Y-18870486D02*
X8103396Y-18880010D01*
X8103396Y-18880010D02*
X8112920Y-18889534D01*
X8112920Y-18889534D02*
X8122444Y-18908581D01*
X8122444Y-18908581D02*
X8122444Y-18927629D01*
X8122444Y-18927629D02*
X8112920Y-18956200D01*
X8112920Y-18956200D02*
X7998634Y-19070486D01*
X7998634Y-19070486D02*
X8122444Y-19070486D01*
X8198634Y-18870486D02*
X8198634Y-18908581D01*
X8274825Y-18870486D02*
X8274825Y-18908581D01*
X8570063Y-19146676D02*
X8560539Y-19137153D01*
X8560539Y-19137153D02*
X8541491Y-19108581D01*
X8541491Y-19108581D02*
X8531968Y-19089534D01*
X8531968Y-19089534D02*
X8522444Y-19060962D01*
X8522444Y-19060962D02*
X8512920Y-19013343D01*
X8512920Y-19013343D02*
X8512920Y-18975248D01*
X8512920Y-18975248D02*
X8522444Y-18927629D01*
X8522444Y-18927629D02*
X8531968Y-18899057D01*
X8531968Y-18899057D02*
X8541491Y-18880010D01*
X8541491Y-18880010D02*
X8560539Y-18851438D01*
X8560539Y-18851438D02*
X8570063Y-18841915D01*
X8731968Y-18937153D02*
X8731968Y-19070486D01*
X8684349Y-18860962D02*
X8636730Y-19003819D01*
X8636730Y-19003819D02*
X8760539Y-19003819D01*
X8989111Y-19070486D02*
X8989111Y-18870486D01*
X9074825Y-19070486D02*
X9074825Y-18965724D01*
X9074825Y-18965724D02*
X9065301Y-18946676D01*
X9065301Y-18946676D02*
X9046253Y-18937153D01*
X9046253Y-18937153D02*
X9017682Y-18937153D01*
X9017682Y-18937153D02*
X8998634Y-18946676D01*
X8998634Y-18946676D02*
X8989111Y-18956200D01*
X9198634Y-19070486D02*
X9179587Y-19060962D01*
X9179587Y-19060962D02*
X9170063Y-19051438D01*
X9170063Y-19051438D02*
X9160539Y-19032391D01*
X9160539Y-19032391D02*
X9160539Y-18975248D01*
X9160539Y-18975248D02*
X9170063Y-18956200D01*
X9170063Y-18956200D02*
X9179587Y-18946676D01*
X9179587Y-18946676D02*
X9198634Y-18937153D01*
X9198634Y-18937153D02*
X9227206Y-18937153D01*
X9227206Y-18937153D02*
X9246253Y-18946676D01*
X9246253Y-18946676D02*
X9255777Y-18956200D01*
X9255777Y-18956200D02*
X9265301Y-18975248D01*
X9265301Y-18975248D02*
X9265301Y-19032391D01*
X9265301Y-19032391D02*
X9255777Y-19051438D01*
X9255777Y-19051438D02*
X9246253Y-19060962D01*
X9246253Y-19060962D02*
X9227206Y-19070486D01*
X9227206Y-19070486D02*
X9198634Y-19070486D01*
X9379587Y-19070486D02*
X9360539Y-19060962D01*
X9360539Y-19060962D02*
X9351015Y-19041915D01*
X9351015Y-19041915D02*
X9351015Y-18870486D01*
X9531968Y-19060962D02*
X9512920Y-19070486D01*
X9512920Y-19070486D02*
X9474825Y-19070486D01*
X9474825Y-19070486D02*
X9455777Y-19060962D01*
X9455777Y-19060962D02*
X9446253Y-19041915D01*
X9446253Y-19041915D02*
X9446253Y-18965724D01*
X9446253Y-18965724D02*
X9455777Y-18946676D01*
X9455777Y-18946676D02*
X9474825Y-18937153D01*
X9474825Y-18937153D02*
X9512920Y-18937153D01*
X9512920Y-18937153D02*
X9531968Y-18946676D01*
X9531968Y-18946676D02*
X9541492Y-18965724D01*
X9541492Y-18965724D02*
X9541492Y-18984772D01*
X9541492Y-18984772D02*
X9446253Y-19003819D01*
X9617682Y-19060962D02*
X9636730Y-19070486D01*
X9636730Y-19070486D02*
X9674825Y-19070486D01*
X9674825Y-19070486D02*
X9693873Y-19060962D01*
X9693873Y-19060962D02*
X9703396Y-19041915D01*
X9703396Y-19041915D02*
X9703396Y-19032391D01*
X9703396Y-19032391D02*
X9693873Y-19013343D01*
X9693873Y-19013343D02*
X9674825Y-19003819D01*
X9674825Y-19003819D02*
X9646253Y-19003819D01*
X9646253Y-19003819D02*
X9627206Y-18994296D01*
X9627206Y-18994296D02*
X9617682Y-18975248D01*
X9617682Y-18975248D02*
X9617682Y-18965724D01*
X9617682Y-18965724D02*
X9627206Y-18946676D01*
X9627206Y-18946676D02*
X9646253Y-18937153D01*
X9646253Y-18937153D02*
X9674825Y-18937153D01*
X9674825Y-18937153D02*
X9693873Y-18946676D01*
X9770063Y-19146676D02*
X9779587Y-19137153D01*
X9779587Y-19137153D02*
X9798634Y-19108581D01*
X9798634Y-19108581D02*
X9808158Y-19089534D01*
X9808158Y-19089534D02*
X9817682Y-19060962D01*
X9817682Y-19060962D02*
X9827206Y-19013343D01*
X9827206Y-19013343D02*
X9827206Y-18975248D01*
X9827206Y-18975248D02*
X9817682Y-18927629D01*
X9817682Y-18927629D02*
X9808158Y-18899057D01*
X9808158Y-18899057D02*
X9798634Y-18880010D01*
X9798634Y-18880010D02*
X9779587Y-18851438D01*
X9779587Y-18851438D02*
X9770063Y-18841915D01*
X10131968Y-19146676D02*
X10122444Y-19137153D01*
X10122444Y-19137153D02*
X10103396Y-19108581D01*
X10103396Y-19108581D02*
X10093873Y-19089534D01*
X10093873Y-19089534D02*
X10084349Y-19060962D01*
X10084349Y-19060962D02*
X10074825Y-19013343D01*
X10074825Y-19013343D02*
X10074825Y-18975248D01*
X10074825Y-18975248D02*
X10084349Y-18927629D01*
X10084349Y-18927629D02*
X10093873Y-18899057D01*
X10093873Y-18899057D02*
X10103396Y-18880010D01*
X10103396Y-18880010D02*
X10122444Y-18851438D01*
X10122444Y-18851438D02*
X10131968Y-18841915D01*
X10208158Y-18937153D02*
X10208158Y-19070486D01*
X10208158Y-18956200D02*
X10217682Y-18946676D01*
X10217682Y-18946676D02*
X10236730Y-18937153D01*
X10236730Y-18937153D02*
X10265301Y-18937153D01*
X10265301Y-18937153D02*
X10284349Y-18946676D01*
X10284349Y-18946676D02*
X10293873Y-18965724D01*
X10293873Y-18965724D02*
X10293873Y-19070486D01*
X10417682Y-19070486D02*
X10398634Y-19060962D01*
X10398634Y-19060962D02*
X10389111Y-19051438D01*
X10389111Y-19051438D02*
X10379587Y-19032391D01*
X10379587Y-19032391D02*
X10379587Y-18975248D01*
X10379587Y-18975248D02*
X10389111Y-18956200D01*
X10389111Y-18956200D02*
X10398634Y-18946676D01*
X10398634Y-18946676D02*
X10417682Y-18937153D01*
X10417682Y-18937153D02*
X10446254Y-18937153D01*
X10446254Y-18937153D02*
X10465301Y-18946676D01*
X10465301Y-18946676D02*
X10474825Y-18956200D01*
X10474825Y-18956200D02*
X10484349Y-18975248D01*
X10484349Y-18975248D02*
X10484349Y-19032391D01*
X10484349Y-19032391D02*
X10474825Y-19051438D01*
X10474825Y-19051438D02*
X10465301Y-19060962D01*
X10465301Y-19060962D02*
X10446254Y-19070486D01*
X10446254Y-19070486D02*
X10417682Y-19070486D01*
X10541492Y-18937153D02*
X10617682Y-18937153D01*
X10570063Y-18870486D02*
X10570063Y-19041915D01*
X10570063Y-19041915D02*
X10579587Y-19060962D01*
X10579587Y-19060962D02*
X10598634Y-19070486D01*
X10598634Y-19070486D02*
X10617682Y-19070486D01*
X10836730Y-18937153D02*
X10836730Y-19137153D01*
X10836730Y-18946676D02*
X10855777Y-18937153D01*
X10855777Y-18937153D02*
X10893873Y-18937153D01*
X10893873Y-18937153D02*
X10912920Y-18946676D01*
X10912920Y-18946676D02*
X10922444Y-18956200D01*
X10922444Y-18956200D02*
X10931968Y-18975248D01*
X10931968Y-18975248D02*
X10931968Y-19032391D01*
X10931968Y-19032391D02*
X10922444Y-19051438D01*
X10922444Y-19051438D02*
X10912920Y-19060962D01*
X10912920Y-19060962D02*
X10893873Y-19070486D01*
X10893873Y-19070486D02*
X10855777Y-19070486D01*
X10855777Y-19070486D02*
X10836730Y-19060962D01*
X11046254Y-19070486D02*
X11027206Y-19060962D01*
X11027206Y-19060962D02*
X11017682Y-19041915D01*
X11017682Y-19041915D02*
X11017682Y-18870486D01*
X11208158Y-19070486D02*
X11208158Y-18965724D01*
X11208158Y-18965724D02*
X11198634Y-18946676D01*
X11198634Y-18946676D02*
X11179587Y-18937153D01*
X11179587Y-18937153D02*
X11141492Y-18937153D01*
X11141492Y-18937153D02*
X11122444Y-18946676D01*
X11208158Y-19060962D02*
X11189111Y-19070486D01*
X11189111Y-19070486D02*
X11141492Y-19070486D01*
X11141492Y-19070486D02*
X11122444Y-19060962D01*
X11122444Y-19060962D02*
X11112920Y-19041915D01*
X11112920Y-19041915D02*
X11112920Y-19022867D01*
X11112920Y-19022867D02*
X11122444Y-19003819D01*
X11122444Y-19003819D02*
X11141492Y-18994296D01*
X11141492Y-18994296D02*
X11189111Y-18994296D01*
X11189111Y-18994296D02*
X11208158Y-18984772D01*
X11274825Y-18937153D02*
X11351015Y-18937153D01*
X11303396Y-18870486D02*
X11303396Y-19041915D01*
X11303396Y-19041915D02*
X11312920Y-19060962D01*
X11312920Y-19060962D02*
X11331968Y-19070486D01*
X11331968Y-19070486D02*
X11351015Y-19070486D01*
X11493873Y-19060962D02*
X11474825Y-19070486D01*
X11474825Y-19070486D02*
X11436730Y-19070486D01*
X11436730Y-19070486D02*
X11417682Y-19060962D01*
X11417682Y-19060962D02*
X11408158Y-19041915D01*
X11408158Y-19041915D02*
X11408158Y-18965724D01*
X11408158Y-18965724D02*
X11417682Y-18946676D01*
X11417682Y-18946676D02*
X11436730Y-18937153D01*
X11436730Y-18937153D02*
X11474825Y-18937153D01*
X11474825Y-18937153D02*
X11493873Y-18946676D01*
X11493873Y-18946676D02*
X11503396Y-18965724D01*
X11503396Y-18965724D02*
X11503396Y-18984772D01*
X11503396Y-18984772D02*
X11408158Y-19003819D01*
X11674825Y-19070486D02*
X11674825Y-18870486D01*
X11674825Y-19060962D02*
X11655777Y-19070486D01*
X11655777Y-19070486D02*
X11617682Y-19070486D01*
X11617682Y-19070486D02*
X11598634Y-19060962D01*
X11598634Y-19060962D02*
X11589111Y-19051438D01*
X11589111Y-19051438D02*
X11579587Y-19032391D01*
X11579587Y-19032391D02*
X11579587Y-18975248D01*
X11579587Y-18975248D02*
X11589111Y-18956200D01*
X11589111Y-18956200D02*
X11598634Y-18946676D01*
X11598634Y-18946676D02*
X11617682Y-18937153D01*
X11617682Y-18937153D02*
X11655777Y-18937153D01*
X11655777Y-18937153D02*
X11674825Y-18946676D01*
X11751015Y-19146676D02*
X11760539Y-19137153D01*
X11760539Y-19137153D02*
X11779587Y-19108581D01*
X11779587Y-19108581D02*
X11789111Y-19089534D01*
X11789111Y-19089534D02*
X11798634Y-19060962D01*
X11798634Y-19060962D02*
X11808158Y-19013343D01*
X11808158Y-19013343D02*
X11808158Y-18975248D01*
X11808158Y-18975248D02*
X11798634Y-18927629D01*
X11798634Y-18927629D02*
X11789111Y-18899057D01*
X11789111Y-18899057D02*
X11779587Y-18880010D01*
X11779587Y-18880010D02*
X11760539Y-18851438D01*
X11760539Y-18851438D02*
X11751015Y-18841915D01*
M02*
