M48
; DRILL file {KiCad 8.0.9-8.0.9-0~ubuntu24.04.1} date 2026-09-24T21:00:18+0000
; FORMAT={-:-/ absolute / metric / decimal}
; #@! TF.CreationDate,2026-09-24T21:00:18+00:00
; #@! TF.GenerationSoftware,Kicad,Pcbnew,8.0.9-8.0.9-0~ubuntu24.04.1
; #@! TF.FileFunction,Plated,1,4,PTH
FMAT,2
METRIC
; #@! TA.AperFunction,Plated,PTH,ComponentDrill
T1C0.300
; #@! TA.AperFunction,Plated,PTH,ViaDrill
T2C0.300
; #@! TA.AperFunction,Plated,PTH,ComponentDrill
T3C0.300
; #@! TA.AperFunction,Plated,PTH,ViaDrill
T4C0.400
; #@! TA.AperFunction,Plated,PTH,ComponentDrill
T5C0.500
; #@! TA.AperFunction,Plated,PTH,ComponentDrill
T6C0.600
; #@! TA.AperFunction,Plated,PTH,ComponentDrill
T7C0.700
; #@! TA.AperFunction,Plated,PTH,ComponentDrill
T8C0.813
; #@! TA.AperFunction,Plated,PTH,ComponentDrill
T9C0.850
; #@! TA.AperFunction,Plated,PTH,ComponentDrill
T10C1.000
; #@! TA.AperFunction,Plated,PTH,ComponentDrill
T11C1.300
; #@! TA.AperFunction,Plated,PTH,ViaDrill
T12C3.000
; #@! TA.AperFunction,Plated,PTH,ComponentDrill
T13C3.048
; #@! TA.AperFunction,Plated,PTH,ComponentDrill
T14C3.200
%
G90
G05
T1
X82.0Y-113.025
X82.525Y-112.15
X83.275Y-113.325
X86.825Y-113.25
T2
X4.6Y-56.0
X4.6Y-140.0
X4.6Y-176.0
X6.45Y-58.0
X6.45Y-140.0
X6.45Y-176.0
X8.25Y-60.0
X8.25Y-140.0
X8.25Y-176.0
X11.85Y-64.0
X11.85Y-140.0
X11.85Y-176.0
X13.75Y-66.0
X13.75Y-140.0
X13.75Y-176.0
X17.65Y-70.0
X17.65Y-140.0
X17.65Y-176.0
X19.6Y-140.0
X19.6Y-176.0
X19.875Y-71.524
X20.6Y-72.0
X23.5Y-76.0
X23.5Y-140.0
X23.5Y-176.0
X25.45Y-78.0
X25.45Y-140.0
X25.45Y-176.0
X27.4Y-80.0
X27.4Y-140.0
X27.4Y-176.0
X29.35Y-82.0
X29.35Y-140.0
X29.35Y-176.0
X31.3Y-84.0
X31.3Y-140.0
X31.3Y-176.0
X32.326Y-86.383
X32.991Y-86.966
X33.25Y-140.0
X33.25Y-176.0
X35.8Y-140.0
X35.8Y-176.0
X36.075Y-87.524
X38.95Y-90.38
X38.95Y-140.0
X38.95Y-176.0
X39.0Y-100.25
X42.1Y-92.76
X42.1Y-140.0
X42.1Y-176.0
X43.95Y-78.65
X47.7Y-77.3
X48.81Y-76.64
X48.9Y-101.6
X48.9Y-79.55
X48.94Y-133.28
X49.25Y-60.2
X49.88Y-75.8
X49.88Y-88.92
X49.88Y-94.36
X49.88Y-156.12
X50.16Y-133.28
X50.2Y-93.08
X50.22Y-149.28
X50.25Y-121.85
X51.16Y-79.64
X51.16Y-82.2
X51.16Y-110.68
X51.16Y-113.88
X51.16Y-116.76
X51.8Y-120.28
X51.8Y-125.08
X52.35Y-129.45
X52.5Y-99.8
X52.76Y-86.04
X52.76Y-128.28
X52.76Y-131.48
X52.95Y-80.9
X53.08Y-87.32
X53.08Y-130.2
X53.4Y-126.35
X53.4Y-82.84
X53.4Y-92.6
X53.7Y-134.4
X53.72Y-104.6
X53.72Y-132.44
X55.65Y-80.9
X56.1Y-128.15
X56.49Y-83.04
X56.925Y-81.2
X58.2Y-101.08
X58.52Y-95.64
X58.52Y-98.84
X58.52Y-102.36
X58.52Y-120.28
X58.52Y-121.56
X58.84Y-115.48
X59.48Y-80.6
X60.06Y-100.5
X60.44Y-75.16
X60.44Y-119.64
X60.9Y-134.85
X60.95Y-68.3
X61.08Y-89.9
X61.4Y-118.36
X62.75Y-77.75
X62.85Y-124.55
X63.2Y-71.45
X63.25Y-89.5
X63.32Y-112.92
X63.64Y-58.52
X63.75Y-128.15
X63.96Y-83.82
X63.96Y-134.36
X64.2Y-129.5
X64.28Y-77.42
X64.6Y-68.12
X64.826Y-163.48
X64.92Y-86.04
X64.92Y-88.92
X65.24Y-70.38
X65.5Y-82.58
X65.55Y-126.35
X65.56Y-58.52
X65.56Y-65.24
X65.56Y-93.72
X65.56Y-101.08
X65.88Y-72.6
X66.2Y-74.2
X66.2Y-103.32
X66.2Y-109.4
X66.52Y-65.24
X66.52Y-68.12
X66.52Y-88.92
X66.52Y-157.72
X66.78Y-76.82
X67.48Y-58.52
X67.8Y-68.76
X67.8Y-73.24
X68.5Y-105.75
X68.7Y-138.05
X71.0Y-89.56
X71.737Y-133.88
X71.96Y-100.44
X72.6Y-52.76
X73.24Y-166.68
X73.88Y-90.52
X73.88Y-98.86
X74.52Y-42.2
X74.52Y-48.92
X74.52Y-52.12
X74.52Y-172.12
X74.84Y-87.66
X74.84Y-71.0
X74.84Y-73.24
X75.3Y-167.0
X75.8Y-82.54
X76.12Y-75.8
X76.12Y-79.96
X76.76Y-167.32
X77.4Y-75.48
X77.4Y-79.96
X77.72Y-61.72
X78.04Y-95.32
X78.04Y-172.12
X78.25Y-70.04
X78.36Y-54.04
X78.36Y-175.32
X78.36Y-177.88
X78.68Y-79.96
X79.0Y-57.24
X79.0Y-61.72
X79.0Y-68.44
X79.0Y-100.76
X79.64Y-175.32
X79.96Y-75.18
X80.28Y-67.8
X80.28Y-171.8
X80.6Y-49.24
X80.6Y-54.38
X80.79Y-73.315
X81.6Y-74.4
X81.88Y-79.96
X82.2Y-68.44
X82.52Y-48.92
X83.16Y-74.2
X83.5Y-73.5
X83.8Y-100.14
X84.44Y-44.12
X84.44Y-46.04
X84.44Y-67.8
X84.76Y-71.0
X84.76Y-73.24
X85.3Y-170.2
X85.5Y-74.25
X86.04Y-67.8
X86.36Y-164.44
X86.36Y-166.68
X86.36Y-169.24
X86.36Y-175.32
X86.834Y-79.71
X87.32Y-67.8
X88.28Y-48.28
X89.19Y-73.315
X89.56Y-164.14
X90.2Y-48.6
X90.52Y-169.24
X90.84Y-74.2
X92.16Y-45.2
X92.44Y-50.52
X92.44Y-62.36
X92.44Y-170.84
X93.08Y-166.68
X93.4Y-73.24
X93.72Y-58.22
X94.04Y-67.18
X94.04Y-68.76
X94.36Y-48.28
X94.36Y-166.68
X94.36Y-172.76
X95.0Y-169.24
X95.32Y-161.24
X95.32Y-162.52
X95.32Y-163.8
X95.439Y-66.762
X95.6Y-68.0
X96.92Y-74.2
X97.24Y-66.22
X97.35Y-166.8
X97.5Y-61.0
X97.56Y-161.24
X97.56Y-162.52
X97.56Y-163.8
X98.52Y-61.72
X99.16Y-170.84
X99.48Y-161.24
X99.48Y-162.52
X99.48Y-163.8
X101.2Y-50.2
X101.25Y-66.65
X101.4Y-161.24
X101.4Y-162.52
X102.36Y-172.76
X102.625Y-73.24
X103.2Y-165.9
X103.32Y-61.72
X103.64Y-44.12
X103.64Y-46.04
X103.8Y-172.8
X104.28Y-166.7
X104.5Y-74.212
X104.6Y-56.62
X104.8Y-94.06
X105.28Y-96.76
X105.56Y-74.54
X105.84Y-99.56
X105.88Y-61.72
X105.92Y-92.28
X107.48Y-161.56
X107.48Y-162.84
X108.44Y-48.28
X108.44Y-50.52
X108.44Y-52.12
X108.44Y-67.8
X108.44Y-70.36
X108.44Y-170.84
X109.02Y-69.08
X109.08Y-175.64
X109.34Y-74.9
X109.4Y-170.4
X109.72Y-58.54
X109.72Y-163.42
X110.36Y-54.68
X110.36Y-56.28
X110.36Y-67.8
X110.96Y-112.14
X111.0Y-101.08
X111.0Y-176.6
X111.097Y-152.12
X111.64Y-162.84
X111.96Y-46.38
X112.28Y-161.56
X112.76Y-161.08
X113.24Y-50.84
X113.24Y-166.36
X113.52Y-96.36
X114.84Y-100.78
X115.12Y-95.08
X115.16Y-50.84
X116.76Y-61.72
X116.76Y-67.8
X116.8Y-50.0
X117.6Y-106.08
X117.72Y-55.0
X117.75Y-69.0
X117.8Y-50.6
X118.04Y-68.12
X118.119Y-168.494
X118.59Y-68.76
X119.0Y-81.9
X119.0Y-87.98
X119.0Y-168.28
X119.36Y-78.52
X120.28Y-61.72
X120.28Y-167.32
X120.48Y-93.5
X121.24Y-90.2
X121.24Y-91.12
X121.4Y-98.12
X121.56Y-55.0
X121.56Y-68.12
X121.88Y-78.68
X122.04Y-93.0
X122.08Y-82.3
X122.2Y-166.68
X122.46Y-55.0
X122.48Y-99.66
X122.55Y-61.1
X122.55Y-66.5
X122.96Y-111.84
X123.16Y-91.5
X123.16Y-100.46
X123.68Y-99.58
X123.8Y-54.7
X123.8Y-73.88
X124.0Y-94.88
X124.08Y-86.76
X124.08Y-90.5
X124.7Y-51.2
X124.76Y-55.0
X124.76Y-68.12
X124.76Y-71.0
X124.8Y-78.878
X125.36Y-111.94
X125.56Y-70.28
X125.66Y-55.0
X126.24Y-112.38
X126.32Y-96.58
X126.32Y-104.58
X126.48Y-99.68
X126.68Y-68.78
X126.88Y-105.34
X126.96Y-92.94
X127.0Y-59.18
X127.05Y-52.4
X127.64Y-68.78
X127.64Y-74.22
X127.96Y-59.18
X128.102Y-70.666
X128.28Y-52.78
X128.4Y-92.96
X128.6Y-57.56
X128.6Y-68.44
X128.88Y-88.58
X129.5Y-59.114
X129.56Y-61.72
X129.88Y-97.26
X130.0Y-72.8
X130.2Y-54.06
X130.24Y-159.06
X130.375Y-61.72
X131.16Y-54.06
X131.48Y-57.56
X131.48Y-68.44
X131.8Y-53.0
X132.12Y-158.68
X132.38Y-59.114
X133.6Y-88.16
X133.92Y-81.34
X134.04Y-117.42
X134.411Y-74.775
X134.595Y-67.935
X134.68Y-73.88
X135.0Y-85.4
X135.28Y-84.2
X135.28Y-83.14
X135.32Y-80.28
X136.28Y-58.2
X136.56Y-91.98
X136.6Y-59.12
X136.88Y-88.14
X136.92Y-157.08
X137.18Y-58.2
X137.25Y-53.6
X137.52Y-81.1
X137.56Y-69.74
X137.56Y-75.8
X137.68Y-85.6
X137.68Y-88.8
X138.325Y-54.2
X138.75Y-88.55
X138.84Y-123.5
X139.16Y-55.02
X140.0Y-81.34
X140.06Y-75.22
X140.08Y-84.2
X140.44Y-88.6
X140.7Y-79.7
X141.08Y-81.24
X141.2Y-66.5
X141.405Y-55.4
X141.72Y-85.4
X141.72Y-85.4
X141.817Y-158.2
X141.88Y-60.68
X142.56Y-81.66
X142.6Y-54.8
X143.2Y-58.4
X143.32Y-79.0
X143.9Y-85.14
X144.28Y-83.48
X144.935Y-93.208
X145.212Y-94.258
X145.56Y-53.74
X145.88Y-73.28
X146.1Y-91.875
X146.36Y-59.0
X146.36Y-151.16
X146.38Y-58.4
X146.38Y-147.48
X146.75Y-89.0
X146.8Y-91.6
X147.1Y-160.8
X147.16Y-161.4
X147.41Y-69.8
X147.41Y-74.6
X147.42Y-85.78
X147.48Y-51.82
X147.52Y-59.64
X147.92Y-76.64
X148.38Y-86.36
X148.44Y-59.6
X148.5Y-88.25
X148.69Y-77.16
X149.08Y-123.5
X149.16Y-53.1
X149.65Y-76.84
X149.68Y-79.08
X151.35Y-161.4
X152.0Y-63.8
X152.058Y-160.12
X152.22Y-129.56
X152.515Y-68.575
X152.6Y-55.02
X152.92Y-88.34
X153.4Y-55.88
X153.5Y-130.84
X153.56Y-84.12
X153.64Y-57.26
X153.88Y-62.38
X153.88Y-65.0
X153.88Y-90.84
X153.88Y-144.62
X154.08Y-65.6
X154.14Y-131.48
X154.46Y-84.12
X154.72Y-81.66
X154.77Y-73.96
X154.8Y-79.5
X154.84Y-84.76
X155.3Y-89.5
X155.74Y-84.76
X155.76Y-75.24
X155.8Y-87.0
X155.8Y-94.68
X156.12Y-64.62
X156.12Y-127.047
X156.12Y-134.36
X156.34Y-147.6
X156.6Y-146.4
X156.6Y-148.2
X156.76Y-86.04
X156.76Y-95.64
X156.76Y-99.48
X157.0Y-147.0
X157.02Y-66.2
X157.4Y-63.02
X157.66Y-66.8
X157.66Y-145.2
X157.66Y-145.8
X158.46Y-62.7
X159.32Y-59.5
X159.32Y-61.1
X159.68Y-75.0
X159.74Y-73.58
X160.22Y-69.26
X160.28Y-76.46
X160.28Y-80.3
X160.38Y-56.94
X161.025Y-51.2
X161.6Y-67.6
X161.88Y-134.7
X162.035Y-50.0
X162.54Y-172.8
X163.045Y-50.6
X163.55Y-66.2
X163.55Y-145.2
X163.8Y-54.38
X163.96Y-63.88
X164.2Y-79.5
X164.2Y-82.5
X164.2Y-85.5
X164.2Y-88.5
X164.2Y-91.5
X164.2Y-94.5
X164.2Y-97.5
X164.2Y-100.5
X164.2Y-118.0
X164.2Y-121.0
X164.2Y-124.0
X164.2Y-127.0
X164.2Y-130.0
X164.2Y-133.0
X164.76Y-59.82
X165.3Y-103.35
X165.85Y-175.2
X166.36Y-89.58
X166.65Y-122.7
X166.9Y-175.2
X166.9Y-217.4
X167.0Y-49.9
X167.02Y-57.747
X167.075Y-97.976
X167.32Y-77.1
X167.32Y-78.38
X167.32Y-80.62
X167.6Y-47.2
X167.6Y-48.4
X167.6Y-50.6
X167.6Y-51.56
X167.6Y-52.52
X167.6Y-53.48
X167.6Y-54.44
X167.6Y-55.4
X167.6Y-56.36
X167.6Y-57.32
X167.6Y-58.28
X167.6Y-59.24
X167.6Y-60.2
X167.6Y-61.16
X167.6Y-62.12
X167.6Y-63.08
X167.6Y-64.04
X167.6Y-65.0
X167.6Y-65.96
X167.6Y-66.92
X167.6Y-67.88
X167.6Y-74.0
X167.6Y-75.0
X167.6Y-76.0
X167.95Y-175.2
X168.175Y-124.476
X168.54Y-56.3
X168.95Y-215.55
X169.225Y-124.476
X169.24Y-51.82
X169.24Y-76.78
X169.24Y-104.62
X169.88Y-127.53
X169.98Y-68.46
X170.275Y-124.476
X170.4Y-213.75
X170.675Y-127.476
X171.725Y-127.476
X172.0Y-155.7
X172.0Y-157.1
X172.0Y-161.9
X172.0Y-163.3
X172.0Y-168.1
X172.0Y-169.5
X172.275Y-130.476
X173.05Y-210.15
X173.325Y-130.476
X173.98Y-133.53
X174.375Y-130.476
X174.5Y-196.55
X174.775Y-133.476
X175.825Y-133.476
X176.0Y-175.2
X176.22Y-81.0
X177.27Y-81.0
X177.27Y-208.25
X178.23Y-136.53
X178.32Y-81.0
X178.75Y-136.0
X178.75Y-194.6
X179.8Y-136.0
X180.0Y-155.7
X180.0Y-157.1
X180.0Y-161.9
X180.0Y-163.3
X180.0Y-168.1
X180.0Y-169.5
X180.05Y-93.0
X181.1Y-93.0
X181.1Y-204.35
X182.15Y-93.0
X183.09Y-99.0
X184.14Y-99.0
X184.14Y-202.4
X185.19Y-99.0
X186.13Y-116.5
X187.18Y-116.5
X187.18Y-198.5
X188.23Y-116.5
X188.35Y-78.0
X189.4Y-78.0
X189.4Y-192.65
X190.32Y-84.53
X190.45Y-78.0
X190.84Y-84.0
X190.84Y-190.7
X191.76Y-90.53
X191.89Y-84.0
X192.28Y-90.0
X192.28Y-188.75
X193.25Y-168.8
X193.33Y-90.0
X194.3Y-168.8
X194.3Y-186.2
X195.35Y-168.8
X196.0Y-162.6
X197.05Y-162.6
X197.05Y-183.05
X198.1Y-162.6
X198.8Y-156.4
X199.85Y-156.4
X199.85Y-179.9
X200.9Y-156.4
X213.5Y-155.7
X213.5Y-157.1
X216.6Y-87.0
X216.6Y-90.0
X217.2Y-161.9
X217.2Y-163.3
X217.5Y-155.7
X217.5Y-157.1
X217.6Y-87.0
X217.6Y-90.0
X220.9Y-168.1
X220.9Y-169.5
X221.2Y-161.9
X221.2Y-163.3
X221.5Y-155.7
X221.5Y-157.1
X224.9Y-168.1
X224.9Y-169.5
X225.2Y-161.9
X225.2Y-163.3
X228.9Y-168.1
X228.9Y-169.5
X229.6Y-175.2
X232.6Y-93.0
X232.6Y-175.2
X234.2Y-50.6
X234.2Y-79.5
X234.92Y-51.56
X234.92Y-82.5
X235.64Y-52.52
X235.64Y-85.5
X236.36Y-53.48
X236.36Y-88.5
X237.08Y-54.44
X237.08Y-91.5
X237.8Y-55.4
X237.8Y-94.5
X238.52Y-56.36
X238.52Y-96.0
X239.24Y-57.32
X239.24Y-97.5
X239.96Y-58.28
X239.96Y-99.0
X240.68Y-59.24
X240.68Y-100.5
X241.4Y-60.2
X241.4Y-102.0
X242.12Y-61.16
X242.12Y-116.5
X242.84Y-62.12
X242.84Y-118.0
X243.56Y-63.08
X243.56Y-119.5
X244.28Y-64.04
X244.28Y-121.0
X245.0Y-65.0
X245.0Y-122.5
X245.72Y-65.96
X245.72Y-124.0
X246.44Y-66.92
X246.44Y-125.5
X247.16Y-67.88
X247.16Y-127.0
X247.88Y-74.0
X247.88Y-128.5
X248.6Y-75.0
X248.6Y-130.0
X249.32Y-76.0
X249.32Y-131.5
X250.04Y-47.2
X250.04Y-133.0
X250.76Y-48.4
X250.76Y-134.5
T3
X83.065Y-82.9
X84.065Y-82.9
X86.925Y-97.325
X88.125Y-97.325
X89.325Y-97.325
X90.525Y-97.325
X91.325Y-154.175
X91.325Y-155.175
X94.115Y-82.9
X95.115Y-82.9
X95.8Y-122.9
X95.8Y-123.7
X95.8Y-124.5
X95.8Y-125.3
X95.8Y-126.1
X95.8Y-126.9
X95.8Y-127.7
X95.8Y-128.5
X95.8Y-129.3
X95.8Y-130.1
X95.8Y-130.9
X95.8Y-131.7
X95.8Y-132.5
X95.8Y-133.3
X95.8Y-134.9
X95.8Y-136.3
X95.8Y-137.1
X95.8Y-137.9
X95.8Y-138.7
X95.8Y-139.5
X95.8Y-140.3
X95.8Y-118.6
X95.8Y-134.1
X96.2Y-147.5
X97.0Y-147.5
X97.8Y-147.5
X97.975Y-97.325
X98.6Y-147.5
X99.175Y-97.325
X99.4Y-147.5
X100.2Y-147.5
X100.375Y-97.325
X101.0Y-147.5
X101.575Y-97.325
X101.8Y-147.5
X102.4Y-112.1
X102.6Y-147.5
X103.4Y-147.5
X103.6Y-112.1
X104.2Y-147.5
X104.8Y-112.1
X105.0Y-147.5
X106.0Y-112.1
X107.2Y-112.1
X107.4Y-147.5
X108.2Y-147.5
X108.4Y-112.1
X109.0Y-147.5
X109.6Y-112.1
X109.8Y-147.5
X110.6Y-147.5
X110.8Y-112.1
X111.4Y-147.5
X112.0Y-112.1
X112.2Y-147.5
X113.0Y-147.5
X113.2Y-112.1
X113.8Y-147.5
X114.4Y-112.1
X115.6Y-112.1
X116.8Y-112.1
X118.0Y-112.1
X118.1Y-147.5
X119.2Y-112.1
X120.4Y-112.1
X120.8Y-147.5
X121.6Y-112.1
X121.8Y-147.5
X122.8Y-112.1
X124.0Y-112.1
X125.2Y-112.1
X126.4Y-112.1
X127.675Y-86.875
X128.625Y-86.875
X128.675Y-78.175
X128.8Y-112.1
X129.2Y-114.6
X129.2Y-115.6
X129.2Y-126.3
X129.2Y-127.3
X129.2Y-128.3
X129.2Y-129.3
X129.2Y-130.3
X129.2Y-131.3
X129.2Y-132.3
X129.2Y-133.3
X129.2Y-135.9
X129.2Y-136.7
X129.2Y-141.4
X129.2Y-142.8
X129.2Y-147.5
X129.575Y-78.175
X129.575Y-86.875
X137.125Y-119.841
X138.125Y-119.841
X139.125Y-119.841
X141.405Y-119.841
X142.421Y-119.841
X144.775Y-93.25
X145.775Y-93.25
X146.775Y-93.25
X147.775Y-93.25
T4
X50.6Y-84.2
X50.65Y-99.5
X50.671Y-152.029
X51.038Y-118.101
X51.1Y-78.4
X51.3Y-90.95
X51.6Y-68.2
X51.786Y-126.462
X52.39Y-92.569
X52.39Y-96.25
X52.39Y-101.45
X52.44Y-104.9
X52.494Y-110.185
X52.5Y-152.5
X52.509Y-140.06
X52.7Y-143.0
X52.706Y-141.028
X52.8Y-146.0
X53.0Y-116.6
X53.2Y-76.25
X54.1Y-108.15
X54.186Y-116.55
X54.2Y-138.7
X54.46Y-115.269
X55.65Y-92.55
X55.65Y-101.45
X55.7Y-95.8
X55.7Y-110.15
X55.723Y-104.327
X55.725Y-113.2
X55.8Y-138.9
X55.806Y-116.709
X55.875Y-143.04
X56.3Y-76.6
X56.3Y-159.3
X56.4Y-150.2
X56.466Y-124.207
X56.661Y-82.039
X56.749Y-118.93
X56.75Y-69.275
X56.8Y-79.75
X57.0Y-147.4
X57.2Y-139.0
X57.4Y-158.8
X57.484Y-145.079
X58.069Y-118.857
X58.25Y-123.65
X58.3Y-157.9
X58.66Y-117.876
X58.66Y-76.516
X58.9Y-150.3
X59.0Y-152.4
X59.0Y-154.8
X59.1Y-139.0
X59.1Y-145.1
X59.15Y-77.5
X59.581Y-146.986
X60.617Y-148.317
X60.98Y-138.89
X61.0Y-145.1
X61.2Y-156.7
X61.528Y-132.283
X61.7Y-83.3
X61.85Y-91.7
X61.863Y-108.626
X61.95Y-104.3
X62.1Y-95.9
X62.1Y-133.7
X62.3Y-148.2
X62.5Y-152.5
X62.8Y-131.4
X62.9Y-138.5
X63.6Y-154.5
X63.6Y-156.7
X63.648Y-65.158
X63.8Y-119.7
X63.8Y-148.4
X63.85Y-139.1
X63.9Y-146.3
X64.5Y-61.8
X64.5Y-136.1
X64.82Y-91.58
X65.0Y-138.9
X65.6Y-148.3
X65.6Y-154.5
X65.6Y-156.7
X65.65Y-143.85
X66.7Y-135.6
X66.931Y-86.49
X67.39Y-116.432
X67.5Y-156.7
X67.6Y-154.5
X67.8Y-79.0
X67.9Y-71.9
X67.9Y-91.8
X68.0Y-84.4
X68.1Y-143.0
X68.75Y-102.55
X68.897Y-110.075
X68.9Y-95.5
X69.0Y-148.1
X69.8Y-111.6
X69.8Y-116.5
X69.8Y-118.2
X69.85Y-103.65
X69.9Y-96.5
X69.911Y-132.489
X70.2Y-155.7
X70.8Y-91.3
X71.0Y-83.8
X71.0Y-86.4
X71.165Y-85.002
X71.311Y-159.017
X71.55Y-79.95
X71.8Y-88.1
X71.959Y-132.519
X72.1Y-125.6
X72.1Y-153.4
X72.2Y-154.443
X72.4Y-152.3
X72.65Y-89.9
X72.8Y-147.1
X72.9Y-78.3
X73.0Y-159.4
X73.4Y-124.3
X73.9Y-156.6
X74.0Y-158.5
X74.3Y-143.0
X74.55Y-83.75
X74.693Y-136.977
X74.8Y-80.3
X75.2Y-61.6
X75.25Y-88.65
X75.69Y-84.904
X75.9Y-130.1
X75.95Y-109.31
X76.0Y-95.15
X76.0Y-102.2
X76.0Y-114.9
X76.0Y-116.3
X76.2Y-123.2
X76.5Y-93.55
X77.2Y-114.929
X77.6Y-101.0
X77.6Y-122.1
X77.7Y-108.1
X77.7Y-129.1
X77.8Y-88.65
X77.8Y-131.8
X78.8Y-108.05
X78.993Y-109.308
X79.2Y-123.3
X79.25Y-125.6
X79.3Y-102.2
X79.4Y-95.15
X79.4Y-135.3
X79.461Y-130.609
X80.0Y-128.6
X80.2Y-93.1
X80.3Y-84.9
X80.35Y-88.7
X80.4Y-134.6
X80.8Y-127.8
X80.8Y-131.15
X81.0Y-132.8
X81.05Y-98.4
X81.35Y-104.7
X81.4Y-117.4
X81.45Y-119.35
X81.6Y-123.7
X81.8Y-81.3
X82.8Y-104.7
X82.85Y-130.25
X83.1Y-98.3
X83.5Y-71.24
X83.709Y-117.451
X84.95Y-134.65
X85.026Y-132.176
X85.6Y-104.7
X86.4Y-81.6
X86.613Y-123.782
X86.95Y-128.0
X87.358Y-132.787
X87.8Y-80.0
X88.047Y-112.039
X88.5Y-125.7
X88.618Y-134.94
X88.7Y-127.7
X89.2Y-117.7
X89.4Y-81.7
X89.6Y-135.8
X89.7Y-126.2
X90.5Y-106.1
X90.6Y-78.9
X90.9Y-111.6
X91.35Y-71.15
X91.567Y-137.05
X91.6Y-85.0
X91.6Y-90.9
X91.7Y-128.5
X91.7Y-97.2
X91.7Y-119.8
X91.7Y-124.5
X91.7Y-136.0
X91.995Y-115.76
X92.0Y-142.7
X92.1Y-156.3
X92.136Y-153.185
X92.2Y-150.4
X92.25Y-149.4
X92.7Y-81.6
X93.5Y-101.2
X93.695Y-61.911
X93.75Y-150.55
X93.95Y-140.7
X94.1Y-114.0
X94.35Y-146.87
X94.549Y-149.087
X94.55Y-150.037
X94.8Y-121.6
X94.8Y-159.4
X94.9Y-115.0
X95.0Y-144.3
X95.059Y-135.44
X95.649Y-150.295
X95.86Y-101.15
X96.5Y-154.6
X97.3Y-81.6
X97.5Y-156.6
X97.625Y-149.405
X98.3Y-108.5
X98.3Y-159.3
X98.9Y-153.8
X99.4Y-78.4
X100.9Y-108.4
X100.9Y-70.4
X100.973Y-103.595
X101.2Y-81.7
X101.2Y-148.4
X101.2Y-158.5
X101.894Y-153.414
X102.4Y-78.4
X102.4Y-85.7
X102.6Y-156.6
X102.7Y-95.2
X103.0Y-159.0
X104.7Y-61.8
X104.9Y-88.5
X104.957Y-92.207
X105.5Y-79.8
X105.6Y-153.9
X105.7Y-148.2
X105.8Y-159.3
X106.035Y-89.115
X106.588Y-151.2
X107.1Y-70.0
X108.4Y-78.4
X108.5Y-105.7
X108.7Y-86.6
X110.1Y-152.0
X110.5Y-85.71
X110.8Y-106.1
X111.5Y-80.1
X111.5Y-97.5
X111.991Y-150.35
X112.4Y-87.3
X112.4Y-101.6
X113.0Y-94.1
X113.6Y-148.7
X114.2Y-78.5
X115.6Y-148.3
X115.949Y-71.24
X117.1Y-84.3
X117.783Y-89.8
X117.8Y-94.0
X117.8Y-66.9
X118.1Y-159.1
X119.0Y-61.6
X119.1Y-95.7
X119.4Y-148.4
X120.878Y-149.279
X120.9Y-98.9
X122.2Y-103.5
X122.8Y-90.1
X123.3Y-78.8
X124.8Y-94.3
X126.5Y-153.9
X126.9Y-103.1
X127.1Y-148.4
X127.509Y-109.0
X127.6Y-90.9
X127.6Y-111.35
X127.6Y-98.9
X128.0Y-105.1
X128.8Y-159.0
X129.0Y-99.5
X129.5Y-95.7
X129.9Y-113.2
X129.9Y-116.8
X130.0Y-124.9
X130.0Y-134.6
X130.1Y-127.2
X130.1Y-137.8
X130.1Y-140.2
X130.1Y-151.5
X130.2Y-142.1
X130.2Y-143.9
X130.3Y-107.9
X130.666Y-82.884
X133.198Y-77.535
X133.4Y-138.2
X133.557Y-71.957
X133.6Y-159.1
X133.75Y-91.25
X133.9Y-94.3
X134.1Y-120.667
X134.213Y-115.392
X134.3Y-132.7
X134.6Y-93.2
X134.6Y-127.4
X134.7Y-77.535
X134.7Y-116.8
X134.825Y-113.9
X134.9Y-61.3
X134.9Y-105.0
X135.6Y-92.2
X135.9Y-77.6
X136.1Y-158.9
X137.9Y-92.1
X138.55Y-120.75
X139.1Y-130.6
X139.3Y-92.1
X140.0Y-139.2
X140.3Y-126.4
X140.6Y-92.1
X142.5Y-159.0
X144.1Y-91.9
X144.1Y-126.5
X145.5Y-88.25
X146.1Y-135.9
X146.5Y-69.5
X146.5Y-72.0
X146.5Y-74.5
X146.5Y-87.25
X146.7Y-121.0
X146.9Y-124.2
X147.15Y-143.7
X147.5Y-127.9
X147.8Y-145.2
X148.2Y-85.3
X148.34Y-73.291
X148.9Y-68.0
X149.0Y-126.0
X149.4Y-92.0
X149.4Y-120.8
T5
X51.1Y-63.5
X51.1Y-156.5
X51.803Y-61.803
X51.803Y-65.197
X51.803Y-154.803
X51.803Y-158.197
X53.5Y-61.1
X53.5Y-65.9
X53.5Y-154.1
X53.5Y-158.9
X55.197Y-61.803
X55.197Y-65.197
X55.197Y-154.803
X55.197Y-158.197
X55.9Y-63.5
X55.9Y-156.5
X144.1Y-63.5
X144.1Y-156.5
X144.803Y-61.803
X144.803Y-65.197
X144.803Y-154.803
X144.803Y-158.197
X146.5Y-61.1
X146.5Y-65.9
X146.5Y-154.1
X146.5Y-158.9
X148.197Y-61.803
X148.197Y-65.197
X148.197Y-154.803
X148.197Y-158.197
X148.9Y-63.5
X148.9Y-156.5
T7
X107.5Y-154.5
X107.5Y-156.1
X109.25Y-153.7
X109.25Y-155.3
X109.25Y-156.9
T8
X68.4Y-140.55
X68.4Y-145.45
X68.55Y-137.4
X70.6Y-140.55
X70.6Y-145.45
X72.8Y-140.55
X72.8Y-145.45
X73.45Y-137.4
X93.475Y-153.525
X93.475Y-157.335
X109.503Y-89.65
X109.503Y-92.19
X109.503Y-94.73
X109.503Y-97.27
X109.503Y-99.81
X109.503Y-102.35
T9
X133.0Y-147.0
X133.0Y-149.5
X133.0Y-152.0
X133.0Y-154.5
X133.0Y-157.0
T10
X53.0Y-148.5
X55.54Y-148.5
X58.08Y-148.5
X73.0Y-149.0
X75.375Y-138.725
X75.375Y-140.575
X75.375Y-145.525
X75.375Y-157.575
X82.0Y-102.5
X84.9Y-102.5
X89.06Y-114.0
X89.5Y-99.88
X89.5Y-102.42
X89.5Y-104.96
X89.5Y-107.5
X89.5Y-110.04
X90.875Y-139.175
X90.875Y-145.575
X90.875Y-147.475
X90.875Y-151.775
X90.875Y-158.025
X91.6Y-114.0
X92.04Y-99.88
X92.04Y-102.42
X92.04Y-104.96
X92.04Y-107.5
X92.04Y-110.04
X94.58Y-99.88
X94.58Y-102.42
X94.58Y-104.96
X94.58Y-107.5
X94.58Y-110.04
X97.12Y-99.88
X97.12Y-102.42
X97.12Y-104.96
X97.12Y-107.5
X97.12Y-110.04
X99.66Y-99.88
X99.66Y-102.42
X99.66Y-104.96
X99.66Y-107.5
X99.66Y-110.04
X102.2Y-99.88
X102.2Y-102.42
X102.2Y-104.96
X102.2Y-107.5
X102.2Y-110.04
X112.5Y-152.5
X112.5Y-157.5
X133.2Y-136.0
X133.2Y-140.7
X135.45Y-122.1
X137.99Y-122.1
X140.53Y-122.1
X143.07Y-122.1
X145.61Y-122.1
X148.15Y-122.1
T11
X206.0Y-78.0
X206.0Y-81.0
X206.0Y-84.0
X206.0Y-87.0
X206.0Y-90.0
X206.0Y-93.0
X206.0Y-96.0
X206.0Y-99.0
X206.0Y-102.0
X206.0Y-116.5
X206.0Y-119.5
X206.0Y-122.5
X206.0Y-125.5
X206.0Y-128.5
X206.0Y-131.5
X206.0Y-134.5
X208.5Y-79.5
X208.5Y-82.5
X208.5Y-85.5
X208.5Y-88.5
X208.5Y-91.5
X208.5Y-94.5
X208.5Y-97.5
X208.5Y-100.5
X208.5Y-118.0
X208.5Y-121.0
X208.5Y-124.0
X208.5Y-127.0
X208.5Y-130.0
X208.5Y-133.0
X211.5Y-79.5
X211.5Y-82.5
X211.5Y-85.5
X211.5Y-88.5
X211.5Y-91.5
X211.5Y-94.5
X211.5Y-97.5
X211.5Y-100.5
X211.5Y-118.0
X211.5Y-121.0
X211.5Y-124.0
X211.5Y-127.0
X211.5Y-130.0
X211.5Y-133.0
X214.0Y-78.0
X214.0Y-81.0
X214.0Y-84.0
X214.0Y-87.0
X214.0Y-90.0
X214.0Y-93.0
X214.0Y-96.0
X214.0Y-99.0
X214.0Y-102.0
X214.0Y-116.5
X214.0Y-119.5
X214.0Y-122.5
X214.0Y-125.5
X214.0Y-128.5
X214.0Y-131.5
X214.0Y-134.5
T12
X114.12Y-103.2
X114.5Y-88.2
T13
X122.203Y-84.57
X122.203Y-107.43
T14
X53.5Y-63.5
X53.5Y-156.5
X146.5Y-63.5
X146.5Y-156.5
T6
X95.68Y-152.345G85X95.68Y-153.445
G05
X95.68Y-156.775G85X95.68Y-157.375
G05
X104.32Y-152.345G85X104.32Y-153.445
G05
X104.32Y-156.775G85X104.32Y-157.375
G05
T7
X107.725Y-151.65G85X109.025Y-151.65
G05
X107.725Y-158.95G85X109.025Y-158.95
G05
M30
