%TF.GenerationSoftware,KiCad,Pcbnew,8.0.9-8.0.9-0~ubuntu24.04.1*%
%TF.CreationDate,2026-09-26T03:31:20+00:00*%
%TF.ProjectId,uaefi,75616566-692e-46b6-9963-61645f706362,E*%
%TF.SameCoordinates,Original*%
%TF.FileFunction,Drillmap*%
%TF.FilePolarity,Positive*%
%FSLAX45Y45*%
G04 Gerber Fmt 4.5, Leading zero omitted, Abs format (unit mm)*
G04 Created by KiCad (PCBNEW 8.0.9-8.0.9-0~ubuntu24.04.1) date 2026-09-26 03:31:20*
%MOMM*%
%LPD*%
G01*
G04 APERTURE LIST*
%ADD10C,0.100000*%
%ADD11C,0.200000*%
%ADD12C,0.150002*%
%ADD13C,0.340000*%
G04 APERTURE END LIST*
D10*
X15120000Y-16100000D02*
G75*
G02*
X14770000Y-16450000I-350000J0D01*
G01*
X350000Y-16450000D02*
G75*
G02*
X0Y-16100000I0J350000D01*
G01*
X14770000Y-5240000D02*
X350000Y-5240000D01*
X14770000Y-5240000D02*
G75*
G02*
X15120000Y-5590000I0J-350000D01*
G01*
X350000Y-16450000D02*
X14770000Y-16450000D01*
X15120000Y-16100000D02*
X15120000Y-5590000D01*
X0Y-5590000D02*
X0Y-16100000D01*
X0Y-5590000D02*
G75*
G02*
X350000Y-5240000I350000J0D01*
G01*
D11*
D10*
X9678500Y-15307000D02*
X9743500Y-15372000D01*
X9743500Y-15307000D02*
X9678500Y-15372000D01*
X10256500Y-15307000D02*
X10321500Y-15372000D01*
X10321500Y-15307000D02*
X10256500Y-15372000D01*
D12*
X14275001Y-13090000D02*
G75*
G02*
X14124999Y-13090000I-75001J0D01*
G01*
X14124999Y-13090000D02*
G75*
G02*
X14275001Y-13090000I75001J0D01*
G01*
X14275001Y-13839986D02*
G75*
G02*
X14124999Y-13839986I-75001J0D01*
G01*
X14124999Y-13839986D02*
G75*
G02*
X14275001Y-13839986I75001J0D01*
G01*
D13*
X1800000Y-7255000D02*
X1800000Y-7595000D01*
X1630000Y-7425000D02*
X1970000Y-7425000D01*
X1800000Y-10505000D02*
X1800000Y-10845000D01*
X1630000Y-10675000D02*
X1970000Y-10675000D01*
X1800000Y-14355000D02*
X1800000Y-14695000D01*
X1630000Y-14525000D02*
X1970000Y-14525000D01*
D11*
X255777Y-16766484D02*
X255777Y-16566484D01*
X255777Y-16566484D02*
X303396Y-16566484D01*
X303396Y-16566484D02*
X331967Y-16576008D01*
X331967Y-16576008D02*
X351015Y-16595055D01*
X351015Y-16595055D02*
X360539Y-16614103D01*
X360539Y-16614103D02*
X370062Y-16652198D01*
X370062Y-16652198D02*
X370062Y-16680769D01*
X370062Y-16680769D02*
X360539Y-16718865D01*
X360539Y-16718865D02*
X351015Y-16737912D01*
X351015Y-16737912D02*
X331967Y-16756960D01*
X331967Y-16756960D02*
X303396Y-16766484D01*
X303396Y-16766484D02*
X255777Y-16766484D01*
X455777Y-16766484D02*
X455777Y-16633150D01*
X455777Y-16671246D02*
X465301Y-16652198D01*
X465301Y-16652198D02*
X474824Y-16642674D01*
X474824Y-16642674D02*
X493872Y-16633150D01*
X493872Y-16633150D02*
X512920Y-16633150D01*
X579586Y-16766484D02*
X579586Y-16633150D01*
X579586Y-16566484D02*
X570063Y-16576008D01*
X570063Y-16576008D02*
X579586Y-16585531D01*
X579586Y-16585531D02*
X589110Y-16576008D01*
X589110Y-16576008D02*
X579586Y-16566484D01*
X579586Y-16566484D02*
X579586Y-16585531D01*
X703396Y-16766484D02*
X684348Y-16756960D01*
X684348Y-16756960D02*
X674824Y-16737912D01*
X674824Y-16737912D02*
X674824Y-16566484D01*
X808158Y-16766484D02*
X789110Y-16756960D01*
X789110Y-16756960D02*
X779586Y-16737912D01*
X779586Y-16737912D02*
X779586Y-16566484D01*
X1036729Y-16766484D02*
X1036729Y-16566484D01*
X1036729Y-16566484D02*
X1103396Y-16709341D01*
X1103396Y-16709341D02*
X1170063Y-16566484D01*
X1170063Y-16566484D02*
X1170063Y-16766484D01*
X1351015Y-16766484D02*
X1351015Y-16661722D01*
X1351015Y-16661722D02*
X1341491Y-16642674D01*
X1341491Y-16642674D02*
X1322444Y-16633150D01*
X1322444Y-16633150D02*
X1284348Y-16633150D01*
X1284348Y-16633150D02*
X1265301Y-16642674D01*
X1351015Y-16756960D02*
X1331967Y-16766484D01*
X1331967Y-16766484D02*
X1284348Y-16766484D01*
X1284348Y-16766484D02*
X1265301Y-16756960D01*
X1265301Y-16756960D02*
X1255777Y-16737912D01*
X1255777Y-16737912D02*
X1255777Y-16718865D01*
X1255777Y-16718865D02*
X1265301Y-16699817D01*
X1265301Y-16699817D02*
X1284348Y-16690293D01*
X1284348Y-16690293D02*
X1331967Y-16690293D01*
X1331967Y-16690293D02*
X1351015Y-16680769D01*
X1446253Y-16633150D02*
X1446253Y-16833150D01*
X1446253Y-16642674D02*
X1465301Y-16633150D01*
X1465301Y-16633150D02*
X1503396Y-16633150D01*
X1503396Y-16633150D02*
X1522443Y-16642674D01*
X1522443Y-16642674D02*
X1531967Y-16652198D01*
X1531967Y-16652198D02*
X1541491Y-16671246D01*
X1541491Y-16671246D02*
X1541491Y-16728388D01*
X1541491Y-16728388D02*
X1531967Y-16747436D01*
X1531967Y-16747436D02*
X1522443Y-16756960D01*
X1522443Y-16756960D02*
X1503396Y-16766484D01*
X1503396Y-16766484D02*
X1465301Y-16766484D01*
X1465301Y-16766484D02*
X1446253Y-16756960D01*
X1627205Y-16747436D02*
X1636729Y-16756960D01*
X1636729Y-16756960D02*
X1627205Y-16766484D01*
X1627205Y-16766484D02*
X1617682Y-16756960D01*
X1617682Y-16756960D02*
X1627205Y-16747436D01*
X1627205Y-16747436D02*
X1627205Y-16766484D01*
X1627205Y-16642674D02*
X1636729Y-16652198D01*
X1636729Y-16652198D02*
X1627205Y-16661722D01*
X1627205Y-16661722D02*
X1617682Y-16652198D01*
X1617682Y-16652198D02*
X1627205Y-16642674D01*
X1627205Y-16642674D02*
X1627205Y-16661722D01*
D10*
X-70000Y-17062500D02*
X-5000Y-17127500D01*
X-5000Y-17062500D02*
X-70000Y-17127500D01*
D11*
X293872Y-16986484D02*
X312920Y-16986484D01*
X312920Y-16986484D02*
X331967Y-16996008D01*
X331967Y-16996008D02*
X341491Y-17005531D01*
X341491Y-17005531D02*
X351015Y-17024579D01*
X351015Y-17024579D02*
X360539Y-17062674D01*
X360539Y-17062674D02*
X360539Y-17110293D01*
X360539Y-17110293D02*
X351015Y-17148389D01*
X351015Y-17148389D02*
X341491Y-17167436D01*
X341491Y-17167436D02*
X331967Y-17176960D01*
X331967Y-17176960D02*
X312920Y-17186484D01*
X312920Y-17186484D02*
X293872Y-17186484D01*
X293872Y-17186484D02*
X274824Y-17176960D01*
X274824Y-17176960D02*
X265301Y-17167436D01*
X265301Y-17167436D02*
X255777Y-17148389D01*
X255777Y-17148389D02*
X246253Y-17110293D01*
X246253Y-17110293D02*
X246253Y-17062674D01*
X246253Y-17062674D02*
X255777Y-17024579D01*
X255777Y-17024579D02*
X265301Y-17005531D01*
X265301Y-17005531D02*
X274824Y-16996008D01*
X274824Y-16996008D02*
X293872Y-16986484D01*
X446253Y-17167436D02*
X455777Y-17176960D01*
X455777Y-17176960D02*
X446253Y-17186484D01*
X446253Y-17186484D02*
X436729Y-17176960D01*
X436729Y-17176960D02*
X446253Y-17167436D01*
X446253Y-17167436D02*
X446253Y-17186484D01*
X627205Y-16986484D02*
X589110Y-16986484D01*
X589110Y-16986484D02*
X570063Y-16996008D01*
X570063Y-16996008D02*
X560539Y-17005531D01*
X560539Y-17005531D02*
X541491Y-17034103D01*
X541491Y-17034103D02*
X531967Y-17072198D01*
X531967Y-17072198D02*
X531967Y-17148389D01*
X531967Y-17148389D02*
X541491Y-17167436D01*
X541491Y-17167436D02*
X551015Y-17176960D01*
X551015Y-17176960D02*
X570063Y-17186484D01*
X570063Y-17186484D02*
X608158Y-17186484D01*
X608158Y-17186484D02*
X627205Y-17176960D01*
X627205Y-17176960D02*
X636729Y-17167436D01*
X636729Y-17167436D02*
X646253Y-17148389D01*
X646253Y-17148389D02*
X646253Y-17100770D01*
X646253Y-17100770D02*
X636729Y-17081722D01*
X636729Y-17081722D02*
X627205Y-17072198D01*
X627205Y-17072198D02*
X608158Y-17062674D01*
X608158Y-17062674D02*
X570063Y-17062674D01*
X570063Y-17062674D02*
X551015Y-17072198D01*
X551015Y-17072198D02*
X541491Y-17081722D01*
X541491Y-17081722D02*
X531967Y-17100770D01*
X827205Y-16986484D02*
X731967Y-16986484D01*
X731967Y-16986484D02*
X722443Y-17081722D01*
X722443Y-17081722D02*
X731967Y-17072198D01*
X731967Y-17072198D02*
X751015Y-17062674D01*
X751015Y-17062674D02*
X798634Y-17062674D01*
X798634Y-17062674D02*
X817682Y-17072198D01*
X817682Y-17072198D02*
X827205Y-17081722D01*
X827205Y-17081722D02*
X836729Y-17100770D01*
X836729Y-17100770D02*
X836729Y-17148389D01*
X836729Y-17148389D02*
X827205Y-17167436D01*
X827205Y-17167436D02*
X817682Y-17176960D01*
X817682Y-17176960D02*
X798634Y-17186484D01*
X798634Y-17186484D02*
X751015Y-17186484D01*
X751015Y-17186484D02*
X731967Y-17176960D01*
X731967Y-17176960D02*
X722443Y-17167436D01*
X960539Y-16986484D02*
X979586Y-16986484D01*
X979586Y-16986484D02*
X998634Y-16996008D01*
X998634Y-16996008D02*
X1008158Y-17005531D01*
X1008158Y-17005531D02*
X1017682Y-17024579D01*
X1017682Y-17024579D02*
X1027205Y-17062674D01*
X1027205Y-17062674D02*
X1027205Y-17110293D01*
X1027205Y-17110293D02*
X1017682Y-17148389D01*
X1017682Y-17148389D02*
X1008158Y-17167436D01*
X1008158Y-17167436D02*
X998634Y-17176960D01*
X998634Y-17176960D02*
X979586Y-17186484D01*
X979586Y-17186484D02*
X960539Y-17186484D01*
X960539Y-17186484D02*
X941491Y-17176960D01*
X941491Y-17176960D02*
X931967Y-17167436D01*
X931967Y-17167436D02*
X922443Y-17148389D01*
X922443Y-17148389D02*
X912920Y-17110293D01*
X912920Y-17110293D02*
X912920Y-17062674D01*
X912920Y-17062674D02*
X922443Y-17024579D01*
X922443Y-17024579D02*
X931967Y-17005531D01*
X931967Y-17005531D02*
X941491Y-16996008D01*
X941491Y-16996008D02*
X960539Y-16986484D01*
X1112920Y-17186484D02*
X1112920Y-17053150D01*
X1112920Y-17072198D02*
X1122444Y-17062674D01*
X1122444Y-17062674D02*
X1141491Y-17053150D01*
X1141491Y-17053150D02*
X1170063Y-17053150D01*
X1170063Y-17053150D02*
X1189110Y-17062674D01*
X1189110Y-17062674D02*
X1198634Y-17081722D01*
X1198634Y-17081722D02*
X1198634Y-17186484D01*
X1198634Y-17081722D02*
X1208158Y-17062674D01*
X1208158Y-17062674D02*
X1227205Y-17053150D01*
X1227205Y-17053150D02*
X1255777Y-17053150D01*
X1255777Y-17053150D02*
X1274825Y-17062674D01*
X1274825Y-17062674D02*
X1284348Y-17081722D01*
X1284348Y-17081722D02*
X1284348Y-17186484D01*
X1379586Y-17186484D02*
X1379586Y-17053150D01*
X1379586Y-17072198D02*
X1389110Y-17062674D01*
X1389110Y-17062674D02*
X1408158Y-17053150D01*
X1408158Y-17053150D02*
X1436729Y-17053150D01*
X1436729Y-17053150D02*
X1455777Y-17062674D01*
X1455777Y-17062674D02*
X1465301Y-17081722D01*
X1465301Y-17081722D02*
X1465301Y-17186484D01*
X1465301Y-17081722D02*
X1474824Y-17062674D01*
X1474824Y-17062674D02*
X1493872Y-17053150D01*
X1493872Y-17053150D02*
X1522443Y-17053150D01*
X1522443Y-17053150D02*
X1541491Y-17062674D01*
X1541491Y-17062674D02*
X1551015Y-17081722D01*
X1551015Y-17081722D02*
X1551015Y-17186484D01*
X1941491Y-16976960D02*
X1770063Y-17234103D01*
X2198634Y-16986484D02*
X2217682Y-16986484D01*
X2217682Y-16986484D02*
X2236729Y-16996008D01*
X2236729Y-16996008D02*
X2246253Y-17005531D01*
X2246253Y-17005531D02*
X2255777Y-17024579D01*
X2255777Y-17024579D02*
X2265301Y-17062674D01*
X2265301Y-17062674D02*
X2265301Y-17110293D01*
X2265301Y-17110293D02*
X2255777Y-17148389D01*
X2255777Y-17148389D02*
X2246253Y-17167436D01*
X2246253Y-17167436D02*
X2236729Y-17176960D01*
X2236729Y-17176960D02*
X2217682Y-17186484D01*
X2217682Y-17186484D02*
X2198634Y-17186484D01*
X2198634Y-17186484D02*
X2179587Y-17176960D01*
X2179587Y-17176960D02*
X2170063Y-17167436D01*
X2170063Y-17167436D02*
X2160539Y-17148389D01*
X2160539Y-17148389D02*
X2151015Y-17110293D01*
X2151015Y-17110293D02*
X2151015Y-17062674D01*
X2151015Y-17062674D02*
X2160539Y-17024579D01*
X2160539Y-17024579D02*
X2170063Y-17005531D01*
X2170063Y-17005531D02*
X2179587Y-16996008D01*
X2179587Y-16996008D02*
X2198634Y-16986484D01*
X2351015Y-17167436D02*
X2360539Y-17176960D01*
X2360539Y-17176960D02*
X2351015Y-17186484D01*
X2351015Y-17186484D02*
X2341491Y-17176960D01*
X2341491Y-17176960D02*
X2351015Y-17167436D01*
X2351015Y-17167436D02*
X2351015Y-17186484D01*
X2484348Y-16986484D02*
X2503396Y-16986484D01*
X2503396Y-16986484D02*
X2522444Y-16996008D01*
X2522444Y-16996008D02*
X2531968Y-17005531D01*
X2531968Y-17005531D02*
X2541491Y-17024579D01*
X2541491Y-17024579D02*
X2551015Y-17062674D01*
X2551015Y-17062674D02*
X2551015Y-17110293D01*
X2551015Y-17110293D02*
X2541491Y-17148389D01*
X2541491Y-17148389D02*
X2531968Y-17167436D01*
X2531968Y-17167436D02*
X2522444Y-17176960D01*
X2522444Y-17176960D02*
X2503396Y-17186484D01*
X2503396Y-17186484D02*
X2484348Y-17186484D01*
X2484348Y-17186484D02*
X2465301Y-17176960D01*
X2465301Y-17176960D02*
X2455777Y-17167436D01*
X2455777Y-17167436D02*
X2446253Y-17148389D01*
X2446253Y-17148389D02*
X2436729Y-17110293D01*
X2436729Y-17110293D02*
X2436729Y-17062674D01*
X2436729Y-17062674D02*
X2446253Y-17024579D01*
X2446253Y-17024579D02*
X2455777Y-17005531D01*
X2455777Y-17005531D02*
X2465301Y-16996008D01*
X2465301Y-16996008D02*
X2484348Y-16986484D01*
X2627206Y-17005531D02*
X2636729Y-16996008D01*
X2636729Y-16996008D02*
X2655777Y-16986484D01*
X2655777Y-16986484D02*
X2703396Y-16986484D01*
X2703396Y-16986484D02*
X2722444Y-16996008D01*
X2722444Y-16996008D02*
X2731968Y-17005531D01*
X2731968Y-17005531D02*
X2741491Y-17024579D01*
X2741491Y-17024579D02*
X2741491Y-17043627D01*
X2741491Y-17043627D02*
X2731968Y-17072198D01*
X2731968Y-17072198D02*
X2617682Y-17186484D01*
X2617682Y-17186484D02*
X2741491Y-17186484D01*
X2922444Y-16986484D02*
X2827206Y-16986484D01*
X2827206Y-16986484D02*
X2817682Y-17081722D01*
X2817682Y-17081722D02*
X2827206Y-17072198D01*
X2827206Y-17072198D02*
X2846253Y-17062674D01*
X2846253Y-17062674D02*
X2893872Y-17062674D01*
X2893872Y-17062674D02*
X2912920Y-17072198D01*
X2912920Y-17072198D02*
X2922444Y-17081722D01*
X2922444Y-17081722D02*
X2931967Y-17100770D01*
X2931967Y-17100770D02*
X2931967Y-17148389D01*
X2931967Y-17148389D02*
X2922444Y-17167436D01*
X2922444Y-17167436D02*
X2912920Y-17176960D01*
X2912920Y-17176960D02*
X2893872Y-17186484D01*
X2893872Y-17186484D02*
X2846253Y-17186484D01*
X2846253Y-17186484D02*
X2827206Y-17176960D01*
X2827206Y-17176960D02*
X2817682Y-17167436D01*
X3103396Y-16986484D02*
X3065301Y-16986484D01*
X3065301Y-16986484D02*
X3046253Y-16996008D01*
X3046253Y-16996008D02*
X3036729Y-17005531D01*
X3036729Y-17005531D02*
X3017682Y-17034103D01*
X3017682Y-17034103D02*
X3008158Y-17072198D01*
X3008158Y-17072198D02*
X3008158Y-17148389D01*
X3008158Y-17148389D02*
X3017682Y-17167436D01*
X3017682Y-17167436D02*
X3027206Y-17176960D01*
X3027206Y-17176960D02*
X3046253Y-17186484D01*
X3046253Y-17186484D02*
X3084348Y-17186484D01*
X3084348Y-17186484D02*
X3103396Y-17176960D01*
X3103396Y-17176960D02*
X3112920Y-17167436D01*
X3112920Y-17167436D02*
X3122444Y-17148389D01*
X3122444Y-17148389D02*
X3122444Y-17100770D01*
X3122444Y-17100770D02*
X3112920Y-17081722D01*
X3112920Y-17081722D02*
X3103396Y-17072198D01*
X3103396Y-17072198D02*
X3084348Y-17062674D01*
X3084348Y-17062674D02*
X3046253Y-17062674D01*
X3046253Y-17062674D02*
X3027206Y-17072198D01*
X3027206Y-17072198D02*
X3017682Y-17081722D01*
X3017682Y-17081722D02*
X3008158Y-17100770D01*
X3198634Y-16986484D02*
X3198634Y-17024579D01*
X3274825Y-16986484D02*
X3274825Y-17024579D01*
X3570063Y-17262674D02*
X3560539Y-17253150D01*
X3560539Y-17253150D02*
X3541491Y-17224579D01*
X3541491Y-17224579D02*
X3531968Y-17205531D01*
X3531968Y-17205531D02*
X3522444Y-17176960D01*
X3522444Y-17176960D02*
X3512920Y-17129341D01*
X3512920Y-17129341D02*
X3512920Y-17091246D01*
X3512920Y-17091246D02*
X3522444Y-17043627D01*
X3522444Y-17043627D02*
X3531968Y-17015055D01*
X3531968Y-17015055D02*
X3541491Y-16996008D01*
X3541491Y-16996008D02*
X3560539Y-16967436D01*
X3560539Y-16967436D02*
X3570063Y-16957912D01*
X3636729Y-17005531D02*
X3646253Y-16996008D01*
X3646253Y-16996008D02*
X3665301Y-16986484D01*
X3665301Y-16986484D02*
X3712920Y-16986484D01*
X3712920Y-16986484D02*
X3731968Y-16996008D01*
X3731968Y-16996008D02*
X3741491Y-17005531D01*
X3741491Y-17005531D02*
X3751015Y-17024579D01*
X3751015Y-17024579D02*
X3751015Y-17043627D01*
X3751015Y-17043627D02*
X3741491Y-17072198D01*
X3741491Y-17072198D02*
X3627206Y-17186484D01*
X3627206Y-17186484D02*
X3751015Y-17186484D01*
X3989110Y-17186484D02*
X3989110Y-16986484D01*
X4074825Y-17186484D02*
X4074825Y-17081722D01*
X4074825Y-17081722D02*
X4065301Y-17062674D01*
X4065301Y-17062674D02*
X4046253Y-17053150D01*
X4046253Y-17053150D02*
X4017682Y-17053150D01*
X4017682Y-17053150D02*
X3998634Y-17062674D01*
X3998634Y-17062674D02*
X3989110Y-17072198D01*
X4198634Y-17186484D02*
X4179587Y-17176960D01*
X4179587Y-17176960D02*
X4170063Y-17167436D01*
X4170063Y-17167436D02*
X4160539Y-17148389D01*
X4160539Y-17148389D02*
X4160539Y-17091246D01*
X4160539Y-17091246D02*
X4170063Y-17072198D01*
X4170063Y-17072198D02*
X4179587Y-17062674D01*
X4179587Y-17062674D02*
X4198634Y-17053150D01*
X4198634Y-17053150D02*
X4227206Y-17053150D01*
X4227206Y-17053150D02*
X4246253Y-17062674D01*
X4246253Y-17062674D02*
X4255777Y-17072198D01*
X4255777Y-17072198D02*
X4265301Y-17091246D01*
X4265301Y-17091246D02*
X4265301Y-17148389D01*
X4265301Y-17148389D02*
X4255777Y-17167436D01*
X4255777Y-17167436D02*
X4246253Y-17176960D01*
X4246253Y-17176960D02*
X4227206Y-17186484D01*
X4227206Y-17186484D02*
X4198634Y-17186484D01*
X4379587Y-17186484D02*
X4360539Y-17176960D01*
X4360539Y-17176960D02*
X4351015Y-17157912D01*
X4351015Y-17157912D02*
X4351015Y-16986484D01*
X4531968Y-17176960D02*
X4512920Y-17186484D01*
X4512920Y-17186484D02*
X4474825Y-17186484D01*
X4474825Y-17186484D02*
X4455777Y-17176960D01*
X4455777Y-17176960D02*
X4446253Y-17157912D01*
X4446253Y-17157912D02*
X4446253Y-17081722D01*
X4446253Y-17081722D02*
X4455777Y-17062674D01*
X4455777Y-17062674D02*
X4474825Y-17053150D01*
X4474825Y-17053150D02*
X4512920Y-17053150D01*
X4512920Y-17053150D02*
X4531968Y-17062674D01*
X4531968Y-17062674D02*
X4541492Y-17081722D01*
X4541492Y-17081722D02*
X4541492Y-17100770D01*
X4541492Y-17100770D02*
X4446253Y-17119817D01*
X4617682Y-17176960D02*
X4636730Y-17186484D01*
X4636730Y-17186484D02*
X4674825Y-17186484D01*
X4674825Y-17186484D02*
X4693873Y-17176960D01*
X4693873Y-17176960D02*
X4703396Y-17157912D01*
X4703396Y-17157912D02*
X4703396Y-17148389D01*
X4703396Y-17148389D02*
X4693873Y-17129341D01*
X4693873Y-17129341D02*
X4674825Y-17119817D01*
X4674825Y-17119817D02*
X4646253Y-17119817D01*
X4646253Y-17119817D02*
X4627206Y-17110293D01*
X4627206Y-17110293D02*
X4617682Y-17091246D01*
X4617682Y-17091246D02*
X4617682Y-17081722D01*
X4617682Y-17081722D02*
X4627206Y-17062674D01*
X4627206Y-17062674D02*
X4646253Y-17053150D01*
X4646253Y-17053150D02*
X4674825Y-17053150D01*
X4674825Y-17053150D02*
X4693873Y-17062674D01*
X4770063Y-17262674D02*
X4779587Y-17253150D01*
X4779587Y-17253150D02*
X4798634Y-17224579D01*
X4798634Y-17224579D02*
X4808158Y-17205531D01*
X4808158Y-17205531D02*
X4817682Y-17176960D01*
X4817682Y-17176960D02*
X4827206Y-17129341D01*
X4827206Y-17129341D02*
X4827206Y-17091246D01*
X4827206Y-17091246D02*
X4817682Y-17043627D01*
X4817682Y-17043627D02*
X4808158Y-17015055D01*
X4808158Y-17015055D02*
X4798634Y-16996008D01*
X4798634Y-16996008D02*
X4779587Y-16967436D01*
X4779587Y-16967436D02*
X4770063Y-16957912D01*
X5131968Y-17262674D02*
X5122444Y-17253150D01*
X5122444Y-17253150D02*
X5103396Y-17224579D01*
X5103396Y-17224579D02*
X5093873Y-17205531D01*
X5093873Y-17205531D02*
X5084349Y-17176960D01*
X5084349Y-17176960D02*
X5074825Y-17129341D01*
X5074825Y-17129341D02*
X5074825Y-17091246D01*
X5074825Y-17091246D02*
X5084349Y-17043627D01*
X5084349Y-17043627D02*
X5093873Y-17015055D01*
X5093873Y-17015055D02*
X5103396Y-16996008D01*
X5103396Y-16996008D02*
X5122444Y-16967436D01*
X5122444Y-16967436D02*
X5131968Y-16957912D01*
X5208158Y-17053150D02*
X5208158Y-17186484D01*
X5208158Y-17072198D02*
X5217682Y-17062674D01*
X5217682Y-17062674D02*
X5236730Y-17053150D01*
X5236730Y-17053150D02*
X5265301Y-17053150D01*
X5265301Y-17053150D02*
X5284349Y-17062674D01*
X5284349Y-17062674D02*
X5293873Y-17081722D01*
X5293873Y-17081722D02*
X5293873Y-17186484D01*
X5417682Y-17186484D02*
X5398634Y-17176960D01*
X5398634Y-17176960D02*
X5389111Y-17167436D01*
X5389111Y-17167436D02*
X5379587Y-17148389D01*
X5379587Y-17148389D02*
X5379587Y-17091246D01*
X5379587Y-17091246D02*
X5389111Y-17072198D01*
X5389111Y-17072198D02*
X5398634Y-17062674D01*
X5398634Y-17062674D02*
X5417682Y-17053150D01*
X5417682Y-17053150D02*
X5446254Y-17053150D01*
X5446254Y-17053150D02*
X5465301Y-17062674D01*
X5465301Y-17062674D02*
X5474825Y-17072198D01*
X5474825Y-17072198D02*
X5484349Y-17091246D01*
X5484349Y-17091246D02*
X5484349Y-17148389D01*
X5484349Y-17148389D02*
X5474825Y-17167436D01*
X5474825Y-17167436D02*
X5465301Y-17176960D01*
X5465301Y-17176960D02*
X5446254Y-17186484D01*
X5446254Y-17186484D02*
X5417682Y-17186484D01*
X5541492Y-17053150D02*
X5617682Y-17053150D01*
X5570063Y-16986484D02*
X5570063Y-17157912D01*
X5570063Y-17157912D02*
X5579587Y-17176960D01*
X5579587Y-17176960D02*
X5598634Y-17186484D01*
X5598634Y-17186484D02*
X5617682Y-17186484D01*
X5836730Y-17053150D02*
X5836730Y-17253150D01*
X5836730Y-17062674D02*
X5855777Y-17053150D01*
X5855777Y-17053150D02*
X5893873Y-17053150D01*
X5893873Y-17053150D02*
X5912920Y-17062674D01*
X5912920Y-17062674D02*
X5922444Y-17072198D01*
X5922444Y-17072198D02*
X5931968Y-17091246D01*
X5931968Y-17091246D02*
X5931968Y-17148389D01*
X5931968Y-17148389D02*
X5922444Y-17167436D01*
X5922444Y-17167436D02*
X5912920Y-17176960D01*
X5912920Y-17176960D02*
X5893873Y-17186484D01*
X5893873Y-17186484D02*
X5855777Y-17186484D01*
X5855777Y-17186484D02*
X5836730Y-17176960D01*
X6046253Y-17186484D02*
X6027206Y-17176960D01*
X6027206Y-17176960D02*
X6017682Y-17157912D01*
X6017682Y-17157912D02*
X6017682Y-16986484D01*
X6208158Y-17186484D02*
X6208158Y-17081722D01*
X6208158Y-17081722D02*
X6198634Y-17062674D01*
X6198634Y-17062674D02*
X6179587Y-17053150D01*
X6179587Y-17053150D02*
X6141492Y-17053150D01*
X6141492Y-17053150D02*
X6122444Y-17062674D01*
X6208158Y-17176960D02*
X6189111Y-17186484D01*
X6189111Y-17186484D02*
X6141492Y-17186484D01*
X6141492Y-17186484D02*
X6122444Y-17176960D01*
X6122444Y-17176960D02*
X6112920Y-17157912D01*
X6112920Y-17157912D02*
X6112920Y-17138865D01*
X6112920Y-17138865D02*
X6122444Y-17119817D01*
X6122444Y-17119817D02*
X6141492Y-17110293D01*
X6141492Y-17110293D02*
X6189111Y-17110293D01*
X6189111Y-17110293D02*
X6208158Y-17100770D01*
X6274825Y-17053150D02*
X6351015Y-17053150D01*
X6303396Y-16986484D02*
X6303396Y-17157912D01*
X6303396Y-17157912D02*
X6312920Y-17176960D01*
X6312920Y-17176960D02*
X6331968Y-17186484D01*
X6331968Y-17186484D02*
X6351015Y-17186484D01*
X6493873Y-17176960D02*
X6474825Y-17186484D01*
X6474825Y-17186484D02*
X6436730Y-17186484D01*
X6436730Y-17186484D02*
X6417682Y-17176960D01*
X6417682Y-17176960D02*
X6408158Y-17157912D01*
X6408158Y-17157912D02*
X6408158Y-17081722D01*
X6408158Y-17081722D02*
X6417682Y-17062674D01*
X6417682Y-17062674D02*
X6436730Y-17053150D01*
X6436730Y-17053150D02*
X6474825Y-17053150D01*
X6474825Y-17053150D02*
X6493873Y-17062674D01*
X6493873Y-17062674D02*
X6503396Y-17081722D01*
X6503396Y-17081722D02*
X6503396Y-17100770D01*
X6503396Y-17100770D02*
X6408158Y-17119817D01*
X6674825Y-17186484D02*
X6674825Y-16986484D01*
X6674825Y-17176960D02*
X6655777Y-17186484D01*
X6655777Y-17186484D02*
X6617682Y-17186484D01*
X6617682Y-17186484D02*
X6598634Y-17176960D01*
X6598634Y-17176960D02*
X6589111Y-17167436D01*
X6589111Y-17167436D02*
X6579587Y-17148389D01*
X6579587Y-17148389D02*
X6579587Y-17091246D01*
X6579587Y-17091246D02*
X6589111Y-17072198D01*
X6589111Y-17072198D02*
X6598634Y-17062674D01*
X6598634Y-17062674D02*
X6617682Y-17053150D01*
X6617682Y-17053150D02*
X6655777Y-17053150D01*
X6655777Y-17053150D02*
X6674825Y-17062674D01*
X6751015Y-17262674D02*
X6760539Y-17253150D01*
X6760539Y-17253150D02*
X6779587Y-17224579D01*
X6779587Y-17224579D02*
X6789111Y-17205531D01*
X6789111Y-17205531D02*
X6798634Y-17176960D01*
X6798634Y-17176960D02*
X6808158Y-17129341D01*
X6808158Y-17129341D02*
X6808158Y-17091246D01*
X6808158Y-17091246D02*
X6798634Y-17043627D01*
X6798634Y-17043627D02*
X6789111Y-17015055D01*
X6789111Y-17015055D02*
X6779587Y-16996008D01*
X6779587Y-16996008D02*
X6760539Y-16967436D01*
X6760539Y-16967436D02*
X6751015Y-16957912D01*
D12*
X-5000Y-17359000D02*
G75*
G02*
X-155002Y-17359000I-75001J0D01*
G01*
X-155002Y-17359000D02*
G75*
G02*
X-5000Y-17359000I75001J0D01*
G01*
D11*
X360539Y-17450484D02*
X246253Y-17450484D01*
X303396Y-17450484D02*
X303396Y-17250484D01*
X303396Y-17250484D02*
X284348Y-17279055D01*
X284348Y-17279055D02*
X265301Y-17298103D01*
X265301Y-17298103D02*
X246253Y-17307627D01*
X446253Y-17431436D02*
X455777Y-17440960D01*
X455777Y-17440960D02*
X446253Y-17450484D01*
X446253Y-17450484D02*
X436729Y-17440960D01*
X436729Y-17440960D02*
X446253Y-17431436D01*
X446253Y-17431436D02*
X446253Y-17450484D01*
X636729Y-17250484D02*
X541491Y-17250484D01*
X541491Y-17250484D02*
X531967Y-17345722D01*
X531967Y-17345722D02*
X541491Y-17336198D01*
X541491Y-17336198D02*
X560539Y-17326674D01*
X560539Y-17326674D02*
X608158Y-17326674D01*
X608158Y-17326674D02*
X627205Y-17336198D01*
X627205Y-17336198D02*
X636729Y-17345722D01*
X636729Y-17345722D02*
X646253Y-17364770D01*
X646253Y-17364770D02*
X646253Y-17412389D01*
X646253Y-17412389D02*
X636729Y-17431436D01*
X636729Y-17431436D02*
X627205Y-17440960D01*
X627205Y-17440960D02*
X608158Y-17450484D01*
X608158Y-17450484D02*
X560539Y-17450484D01*
X560539Y-17450484D02*
X541491Y-17440960D01*
X541491Y-17440960D02*
X531967Y-17431436D01*
X770062Y-17250484D02*
X789110Y-17250484D01*
X789110Y-17250484D02*
X808158Y-17260008D01*
X808158Y-17260008D02*
X817682Y-17269531D01*
X817682Y-17269531D02*
X827205Y-17288579D01*
X827205Y-17288579D02*
X836729Y-17326674D01*
X836729Y-17326674D02*
X836729Y-17374293D01*
X836729Y-17374293D02*
X827205Y-17412389D01*
X827205Y-17412389D02*
X817682Y-17431436D01*
X817682Y-17431436D02*
X808158Y-17440960D01*
X808158Y-17440960D02*
X789110Y-17450484D01*
X789110Y-17450484D02*
X770062Y-17450484D01*
X770062Y-17450484D02*
X751015Y-17440960D01*
X751015Y-17440960D02*
X741491Y-17431436D01*
X741491Y-17431436D02*
X731967Y-17412389D01*
X731967Y-17412389D02*
X722443Y-17374293D01*
X722443Y-17374293D02*
X722443Y-17326674D01*
X722443Y-17326674D02*
X731967Y-17288579D01*
X731967Y-17288579D02*
X741491Y-17269531D01*
X741491Y-17269531D02*
X751015Y-17260008D01*
X751015Y-17260008D02*
X770062Y-17250484D01*
X960539Y-17250484D02*
X979586Y-17250484D01*
X979586Y-17250484D02*
X998634Y-17260008D01*
X998634Y-17260008D02*
X1008158Y-17269531D01*
X1008158Y-17269531D02*
X1017682Y-17288579D01*
X1017682Y-17288579D02*
X1027205Y-17326674D01*
X1027205Y-17326674D02*
X1027205Y-17374293D01*
X1027205Y-17374293D02*
X1017682Y-17412389D01*
X1017682Y-17412389D02*
X1008158Y-17431436D01*
X1008158Y-17431436D02*
X998634Y-17440960D01*
X998634Y-17440960D02*
X979586Y-17450484D01*
X979586Y-17450484D02*
X960539Y-17450484D01*
X960539Y-17450484D02*
X941491Y-17440960D01*
X941491Y-17440960D02*
X931967Y-17431436D01*
X931967Y-17431436D02*
X922443Y-17412389D01*
X922443Y-17412389D02*
X912920Y-17374293D01*
X912920Y-17374293D02*
X912920Y-17326674D01*
X912920Y-17326674D02*
X922443Y-17288579D01*
X922443Y-17288579D02*
X931967Y-17269531D01*
X931967Y-17269531D02*
X941491Y-17260008D01*
X941491Y-17260008D02*
X960539Y-17250484D01*
X1112920Y-17450484D02*
X1112920Y-17317150D01*
X1112920Y-17336198D02*
X1122444Y-17326674D01*
X1122444Y-17326674D02*
X1141491Y-17317150D01*
X1141491Y-17317150D02*
X1170063Y-17317150D01*
X1170063Y-17317150D02*
X1189110Y-17326674D01*
X1189110Y-17326674D02*
X1198634Y-17345722D01*
X1198634Y-17345722D02*
X1198634Y-17450484D01*
X1198634Y-17345722D02*
X1208158Y-17326674D01*
X1208158Y-17326674D02*
X1227205Y-17317150D01*
X1227205Y-17317150D02*
X1255777Y-17317150D01*
X1255777Y-17317150D02*
X1274825Y-17326674D01*
X1274825Y-17326674D02*
X1284348Y-17345722D01*
X1284348Y-17345722D02*
X1284348Y-17450484D01*
X1379586Y-17450484D02*
X1379586Y-17317150D01*
X1379586Y-17336198D02*
X1389110Y-17326674D01*
X1389110Y-17326674D02*
X1408158Y-17317150D01*
X1408158Y-17317150D02*
X1436729Y-17317150D01*
X1436729Y-17317150D02*
X1455777Y-17326674D01*
X1455777Y-17326674D02*
X1465301Y-17345722D01*
X1465301Y-17345722D02*
X1465301Y-17450484D01*
X1465301Y-17345722D02*
X1474824Y-17326674D01*
X1474824Y-17326674D02*
X1493872Y-17317150D01*
X1493872Y-17317150D02*
X1522443Y-17317150D01*
X1522443Y-17317150D02*
X1541491Y-17326674D01*
X1541491Y-17326674D02*
X1551015Y-17345722D01*
X1551015Y-17345722D02*
X1551015Y-17450484D01*
X1941491Y-17240960D02*
X1770063Y-17498103D01*
X2198634Y-17250484D02*
X2217682Y-17250484D01*
X2217682Y-17250484D02*
X2236729Y-17260008D01*
X2236729Y-17260008D02*
X2246253Y-17269531D01*
X2246253Y-17269531D02*
X2255777Y-17288579D01*
X2255777Y-17288579D02*
X2265301Y-17326674D01*
X2265301Y-17326674D02*
X2265301Y-17374293D01*
X2265301Y-17374293D02*
X2255777Y-17412389D01*
X2255777Y-17412389D02*
X2246253Y-17431436D01*
X2246253Y-17431436D02*
X2236729Y-17440960D01*
X2236729Y-17440960D02*
X2217682Y-17450484D01*
X2217682Y-17450484D02*
X2198634Y-17450484D01*
X2198634Y-17450484D02*
X2179587Y-17440960D01*
X2179587Y-17440960D02*
X2170063Y-17431436D01*
X2170063Y-17431436D02*
X2160539Y-17412389D01*
X2160539Y-17412389D02*
X2151015Y-17374293D01*
X2151015Y-17374293D02*
X2151015Y-17326674D01*
X2151015Y-17326674D02*
X2160539Y-17288579D01*
X2160539Y-17288579D02*
X2170063Y-17269531D01*
X2170063Y-17269531D02*
X2179587Y-17260008D01*
X2179587Y-17260008D02*
X2198634Y-17250484D01*
X2351015Y-17431436D02*
X2360539Y-17440960D01*
X2360539Y-17440960D02*
X2351015Y-17450484D01*
X2351015Y-17450484D02*
X2341491Y-17440960D01*
X2341491Y-17440960D02*
X2351015Y-17431436D01*
X2351015Y-17431436D02*
X2351015Y-17450484D01*
X2484348Y-17250484D02*
X2503396Y-17250484D01*
X2503396Y-17250484D02*
X2522444Y-17260008D01*
X2522444Y-17260008D02*
X2531968Y-17269531D01*
X2531968Y-17269531D02*
X2541491Y-17288579D01*
X2541491Y-17288579D02*
X2551015Y-17326674D01*
X2551015Y-17326674D02*
X2551015Y-17374293D01*
X2551015Y-17374293D02*
X2541491Y-17412389D01*
X2541491Y-17412389D02*
X2531968Y-17431436D01*
X2531968Y-17431436D02*
X2522444Y-17440960D01*
X2522444Y-17440960D02*
X2503396Y-17450484D01*
X2503396Y-17450484D02*
X2484348Y-17450484D01*
X2484348Y-17450484D02*
X2465301Y-17440960D01*
X2465301Y-17440960D02*
X2455777Y-17431436D01*
X2455777Y-17431436D02*
X2446253Y-17412389D01*
X2446253Y-17412389D02*
X2436729Y-17374293D01*
X2436729Y-17374293D02*
X2436729Y-17326674D01*
X2436729Y-17326674D02*
X2446253Y-17288579D01*
X2446253Y-17288579D02*
X2455777Y-17269531D01*
X2455777Y-17269531D02*
X2465301Y-17260008D01*
X2465301Y-17260008D02*
X2484348Y-17250484D01*
X2731968Y-17250484D02*
X2636729Y-17250484D01*
X2636729Y-17250484D02*
X2627206Y-17345722D01*
X2627206Y-17345722D02*
X2636729Y-17336198D01*
X2636729Y-17336198D02*
X2655777Y-17326674D01*
X2655777Y-17326674D02*
X2703396Y-17326674D01*
X2703396Y-17326674D02*
X2722444Y-17336198D01*
X2722444Y-17336198D02*
X2731968Y-17345722D01*
X2731968Y-17345722D02*
X2741491Y-17364770D01*
X2741491Y-17364770D02*
X2741491Y-17412389D01*
X2741491Y-17412389D02*
X2731968Y-17431436D01*
X2731968Y-17431436D02*
X2722444Y-17440960D01*
X2722444Y-17440960D02*
X2703396Y-17450484D01*
X2703396Y-17450484D02*
X2655777Y-17450484D01*
X2655777Y-17450484D02*
X2636729Y-17440960D01*
X2636729Y-17440960D02*
X2627206Y-17431436D01*
X2836729Y-17450484D02*
X2874825Y-17450484D01*
X2874825Y-17450484D02*
X2893872Y-17440960D01*
X2893872Y-17440960D02*
X2903396Y-17431436D01*
X2903396Y-17431436D02*
X2922444Y-17402865D01*
X2922444Y-17402865D02*
X2931967Y-17364770D01*
X2931967Y-17364770D02*
X2931967Y-17288579D01*
X2931967Y-17288579D02*
X2922444Y-17269531D01*
X2922444Y-17269531D02*
X2912920Y-17260008D01*
X2912920Y-17260008D02*
X2893872Y-17250484D01*
X2893872Y-17250484D02*
X2855777Y-17250484D01*
X2855777Y-17250484D02*
X2836729Y-17260008D01*
X2836729Y-17260008D02*
X2827206Y-17269531D01*
X2827206Y-17269531D02*
X2817682Y-17288579D01*
X2817682Y-17288579D02*
X2817682Y-17336198D01*
X2817682Y-17336198D02*
X2827206Y-17355246D01*
X2827206Y-17355246D02*
X2836729Y-17364770D01*
X2836729Y-17364770D02*
X2855777Y-17374293D01*
X2855777Y-17374293D02*
X2893872Y-17374293D01*
X2893872Y-17374293D02*
X2912920Y-17364770D01*
X2912920Y-17364770D02*
X2922444Y-17355246D01*
X2922444Y-17355246D02*
X2931967Y-17336198D01*
X3122444Y-17450484D02*
X3008158Y-17450484D01*
X3065301Y-17450484D02*
X3065301Y-17250484D01*
X3065301Y-17250484D02*
X3046253Y-17279055D01*
X3046253Y-17279055D02*
X3027206Y-17298103D01*
X3027206Y-17298103D02*
X3008158Y-17307627D01*
X3198634Y-17250484D02*
X3198634Y-17288579D01*
X3274825Y-17250484D02*
X3274825Y-17288579D01*
X3570063Y-17526674D02*
X3560539Y-17517150D01*
X3560539Y-17517150D02*
X3541491Y-17488579D01*
X3541491Y-17488579D02*
X3531968Y-17469531D01*
X3531968Y-17469531D02*
X3522444Y-17440960D01*
X3522444Y-17440960D02*
X3512920Y-17393341D01*
X3512920Y-17393341D02*
X3512920Y-17355246D01*
X3512920Y-17355246D02*
X3522444Y-17307627D01*
X3522444Y-17307627D02*
X3531968Y-17279055D01*
X3531968Y-17279055D02*
X3541491Y-17260008D01*
X3541491Y-17260008D02*
X3560539Y-17231436D01*
X3560539Y-17231436D02*
X3570063Y-17221912D01*
X3636729Y-17269531D02*
X3646253Y-17260008D01*
X3646253Y-17260008D02*
X3665301Y-17250484D01*
X3665301Y-17250484D02*
X3712920Y-17250484D01*
X3712920Y-17250484D02*
X3731968Y-17260008D01*
X3731968Y-17260008D02*
X3741491Y-17269531D01*
X3741491Y-17269531D02*
X3751015Y-17288579D01*
X3751015Y-17288579D02*
X3751015Y-17307627D01*
X3751015Y-17307627D02*
X3741491Y-17336198D01*
X3741491Y-17336198D02*
X3627206Y-17450484D01*
X3627206Y-17450484D02*
X3751015Y-17450484D01*
X3989110Y-17450484D02*
X3989110Y-17250484D01*
X4074825Y-17450484D02*
X4074825Y-17345722D01*
X4074825Y-17345722D02*
X4065301Y-17326674D01*
X4065301Y-17326674D02*
X4046253Y-17317150D01*
X4046253Y-17317150D02*
X4017682Y-17317150D01*
X4017682Y-17317150D02*
X3998634Y-17326674D01*
X3998634Y-17326674D02*
X3989110Y-17336198D01*
X4198634Y-17450484D02*
X4179587Y-17440960D01*
X4179587Y-17440960D02*
X4170063Y-17431436D01*
X4170063Y-17431436D02*
X4160539Y-17412389D01*
X4160539Y-17412389D02*
X4160539Y-17355246D01*
X4160539Y-17355246D02*
X4170063Y-17336198D01*
X4170063Y-17336198D02*
X4179587Y-17326674D01*
X4179587Y-17326674D02*
X4198634Y-17317150D01*
X4198634Y-17317150D02*
X4227206Y-17317150D01*
X4227206Y-17317150D02*
X4246253Y-17326674D01*
X4246253Y-17326674D02*
X4255777Y-17336198D01*
X4255777Y-17336198D02*
X4265301Y-17355246D01*
X4265301Y-17355246D02*
X4265301Y-17412389D01*
X4265301Y-17412389D02*
X4255777Y-17431436D01*
X4255777Y-17431436D02*
X4246253Y-17440960D01*
X4246253Y-17440960D02*
X4227206Y-17450484D01*
X4227206Y-17450484D02*
X4198634Y-17450484D01*
X4379587Y-17450484D02*
X4360539Y-17440960D01*
X4360539Y-17440960D02*
X4351015Y-17421912D01*
X4351015Y-17421912D02*
X4351015Y-17250484D01*
X4531968Y-17440960D02*
X4512920Y-17450484D01*
X4512920Y-17450484D02*
X4474825Y-17450484D01*
X4474825Y-17450484D02*
X4455777Y-17440960D01*
X4455777Y-17440960D02*
X4446253Y-17421912D01*
X4446253Y-17421912D02*
X4446253Y-17345722D01*
X4446253Y-17345722D02*
X4455777Y-17326674D01*
X4455777Y-17326674D02*
X4474825Y-17317150D01*
X4474825Y-17317150D02*
X4512920Y-17317150D01*
X4512920Y-17317150D02*
X4531968Y-17326674D01*
X4531968Y-17326674D02*
X4541492Y-17345722D01*
X4541492Y-17345722D02*
X4541492Y-17364770D01*
X4541492Y-17364770D02*
X4446253Y-17383817D01*
X4617682Y-17440960D02*
X4636730Y-17450484D01*
X4636730Y-17450484D02*
X4674825Y-17450484D01*
X4674825Y-17450484D02*
X4693873Y-17440960D01*
X4693873Y-17440960D02*
X4703396Y-17421912D01*
X4703396Y-17421912D02*
X4703396Y-17412389D01*
X4703396Y-17412389D02*
X4693873Y-17393341D01*
X4693873Y-17393341D02*
X4674825Y-17383817D01*
X4674825Y-17383817D02*
X4646253Y-17383817D01*
X4646253Y-17383817D02*
X4627206Y-17374293D01*
X4627206Y-17374293D02*
X4617682Y-17355246D01*
X4617682Y-17355246D02*
X4617682Y-17345722D01*
X4617682Y-17345722D02*
X4627206Y-17326674D01*
X4627206Y-17326674D02*
X4646253Y-17317150D01*
X4646253Y-17317150D02*
X4674825Y-17317150D01*
X4674825Y-17317150D02*
X4693873Y-17326674D01*
X4770063Y-17526674D02*
X4779587Y-17517150D01*
X4779587Y-17517150D02*
X4798634Y-17488579D01*
X4798634Y-17488579D02*
X4808158Y-17469531D01*
X4808158Y-17469531D02*
X4817682Y-17440960D01*
X4817682Y-17440960D02*
X4827206Y-17393341D01*
X4827206Y-17393341D02*
X4827206Y-17355246D01*
X4827206Y-17355246D02*
X4817682Y-17307627D01*
X4817682Y-17307627D02*
X4808158Y-17279055D01*
X4808158Y-17279055D02*
X4798634Y-17260008D01*
X4798634Y-17260008D02*
X4779587Y-17231436D01*
X4779587Y-17231436D02*
X4770063Y-17221912D01*
X5131968Y-17526674D02*
X5122444Y-17517150D01*
X5122444Y-17517150D02*
X5103396Y-17488579D01*
X5103396Y-17488579D02*
X5093873Y-17469531D01*
X5093873Y-17469531D02*
X5084349Y-17440960D01*
X5084349Y-17440960D02*
X5074825Y-17393341D01*
X5074825Y-17393341D02*
X5074825Y-17355246D01*
X5074825Y-17355246D02*
X5084349Y-17307627D01*
X5084349Y-17307627D02*
X5093873Y-17279055D01*
X5093873Y-17279055D02*
X5103396Y-17260008D01*
X5103396Y-17260008D02*
X5122444Y-17231436D01*
X5122444Y-17231436D02*
X5131968Y-17221912D01*
X5208158Y-17317150D02*
X5208158Y-17450484D01*
X5208158Y-17336198D02*
X5217682Y-17326674D01*
X5217682Y-17326674D02*
X5236730Y-17317150D01*
X5236730Y-17317150D02*
X5265301Y-17317150D01*
X5265301Y-17317150D02*
X5284349Y-17326674D01*
X5284349Y-17326674D02*
X5293873Y-17345722D01*
X5293873Y-17345722D02*
X5293873Y-17450484D01*
X5417682Y-17450484D02*
X5398634Y-17440960D01*
X5398634Y-17440960D02*
X5389111Y-17431436D01*
X5389111Y-17431436D02*
X5379587Y-17412389D01*
X5379587Y-17412389D02*
X5379587Y-17355246D01*
X5379587Y-17355246D02*
X5389111Y-17336198D01*
X5389111Y-17336198D02*
X5398634Y-17326674D01*
X5398634Y-17326674D02*
X5417682Y-17317150D01*
X5417682Y-17317150D02*
X5446254Y-17317150D01*
X5446254Y-17317150D02*
X5465301Y-17326674D01*
X5465301Y-17326674D02*
X5474825Y-17336198D01*
X5474825Y-17336198D02*
X5484349Y-17355246D01*
X5484349Y-17355246D02*
X5484349Y-17412389D01*
X5484349Y-17412389D02*
X5474825Y-17431436D01*
X5474825Y-17431436D02*
X5465301Y-17440960D01*
X5465301Y-17440960D02*
X5446254Y-17450484D01*
X5446254Y-17450484D02*
X5417682Y-17450484D01*
X5541492Y-17317150D02*
X5617682Y-17317150D01*
X5570063Y-17250484D02*
X5570063Y-17421912D01*
X5570063Y-17421912D02*
X5579587Y-17440960D01*
X5579587Y-17440960D02*
X5598634Y-17450484D01*
X5598634Y-17450484D02*
X5617682Y-17450484D01*
X5836730Y-17317150D02*
X5836730Y-17517150D01*
X5836730Y-17326674D02*
X5855777Y-17317150D01*
X5855777Y-17317150D02*
X5893873Y-17317150D01*
X5893873Y-17317150D02*
X5912920Y-17326674D01*
X5912920Y-17326674D02*
X5922444Y-17336198D01*
X5922444Y-17336198D02*
X5931968Y-17355246D01*
X5931968Y-17355246D02*
X5931968Y-17412389D01*
X5931968Y-17412389D02*
X5922444Y-17431436D01*
X5922444Y-17431436D02*
X5912920Y-17440960D01*
X5912920Y-17440960D02*
X5893873Y-17450484D01*
X5893873Y-17450484D02*
X5855777Y-17450484D01*
X5855777Y-17450484D02*
X5836730Y-17440960D01*
X6046253Y-17450484D02*
X6027206Y-17440960D01*
X6027206Y-17440960D02*
X6017682Y-17421912D01*
X6017682Y-17421912D02*
X6017682Y-17250484D01*
X6208158Y-17450484D02*
X6208158Y-17345722D01*
X6208158Y-17345722D02*
X6198634Y-17326674D01*
X6198634Y-17326674D02*
X6179587Y-17317150D01*
X6179587Y-17317150D02*
X6141492Y-17317150D01*
X6141492Y-17317150D02*
X6122444Y-17326674D01*
X6208158Y-17440960D02*
X6189111Y-17450484D01*
X6189111Y-17450484D02*
X6141492Y-17450484D01*
X6141492Y-17450484D02*
X6122444Y-17440960D01*
X6122444Y-17440960D02*
X6112920Y-17421912D01*
X6112920Y-17421912D02*
X6112920Y-17402865D01*
X6112920Y-17402865D02*
X6122444Y-17383817D01*
X6122444Y-17383817D02*
X6141492Y-17374293D01*
X6141492Y-17374293D02*
X6189111Y-17374293D01*
X6189111Y-17374293D02*
X6208158Y-17364770D01*
X6274825Y-17317150D02*
X6351015Y-17317150D01*
X6303396Y-17250484D02*
X6303396Y-17421912D01*
X6303396Y-17421912D02*
X6312920Y-17440960D01*
X6312920Y-17440960D02*
X6331968Y-17450484D01*
X6331968Y-17450484D02*
X6351015Y-17450484D01*
X6493873Y-17440960D02*
X6474825Y-17450484D01*
X6474825Y-17450484D02*
X6436730Y-17450484D01*
X6436730Y-17450484D02*
X6417682Y-17440960D01*
X6417682Y-17440960D02*
X6408158Y-17421912D01*
X6408158Y-17421912D02*
X6408158Y-17345722D01*
X6408158Y-17345722D02*
X6417682Y-17326674D01*
X6417682Y-17326674D02*
X6436730Y-17317150D01*
X6436730Y-17317150D02*
X6474825Y-17317150D01*
X6474825Y-17317150D02*
X6493873Y-17326674D01*
X6493873Y-17326674D02*
X6503396Y-17345722D01*
X6503396Y-17345722D02*
X6503396Y-17364770D01*
X6503396Y-17364770D02*
X6408158Y-17383817D01*
X6674825Y-17450484D02*
X6674825Y-17250484D01*
X6674825Y-17440960D02*
X6655777Y-17450484D01*
X6655777Y-17450484D02*
X6617682Y-17450484D01*
X6617682Y-17450484D02*
X6598634Y-17440960D01*
X6598634Y-17440960D02*
X6589111Y-17431436D01*
X6589111Y-17431436D02*
X6579587Y-17412389D01*
X6579587Y-17412389D02*
X6579587Y-17355246D01*
X6579587Y-17355246D02*
X6589111Y-17336198D01*
X6589111Y-17336198D02*
X6598634Y-17326674D01*
X6598634Y-17326674D02*
X6617682Y-17317150D01*
X6617682Y-17317150D02*
X6655777Y-17317150D01*
X6655777Y-17317150D02*
X6674825Y-17326674D01*
X6751015Y-17526674D02*
X6760539Y-17517150D01*
X6760539Y-17517150D02*
X6779587Y-17488579D01*
X6779587Y-17488579D02*
X6789111Y-17469531D01*
X6789111Y-17469531D02*
X6798634Y-17440960D01*
X6798634Y-17440960D02*
X6808158Y-17393341D01*
X6808158Y-17393341D02*
X6808158Y-17355246D01*
X6808158Y-17355246D02*
X6798634Y-17307627D01*
X6798634Y-17307627D02*
X6789111Y-17279055D01*
X6789111Y-17279055D02*
X6779587Y-17260008D01*
X6779587Y-17260008D02*
X6760539Y-17231436D01*
X6760539Y-17231436D02*
X6751015Y-17221912D01*
X-105000Y-17529002D02*
X-105000Y-17729002D01*
X-205000Y-17629002D02*
X-5000Y-17629002D01*
X236729Y-17520486D02*
X360539Y-17520486D01*
X360539Y-17520486D02*
X293872Y-17596676D01*
X293872Y-17596676D02*
X322444Y-17596676D01*
X322444Y-17596676D02*
X341491Y-17606200D01*
X341491Y-17606200D02*
X351015Y-17615724D01*
X351015Y-17615724D02*
X360539Y-17634772D01*
X360539Y-17634772D02*
X360539Y-17682391D01*
X360539Y-17682391D02*
X351015Y-17701438D01*
X351015Y-17701438D02*
X341491Y-17710962D01*
X341491Y-17710962D02*
X322444Y-17720486D01*
X322444Y-17720486D02*
X265301Y-17720486D01*
X265301Y-17720486D02*
X246253Y-17710962D01*
X246253Y-17710962D02*
X236729Y-17701438D01*
X446253Y-17701438D02*
X455777Y-17710962D01*
X455777Y-17710962D02*
X446253Y-17720486D01*
X446253Y-17720486D02*
X436729Y-17710962D01*
X436729Y-17710962D02*
X446253Y-17701438D01*
X446253Y-17701438D02*
X446253Y-17720486D01*
X627205Y-17587153D02*
X627205Y-17720486D01*
X579586Y-17510962D02*
X531967Y-17653819D01*
X531967Y-17653819D02*
X655777Y-17653819D01*
X770062Y-17520486D02*
X789110Y-17520486D01*
X789110Y-17520486D02*
X808158Y-17530010D01*
X808158Y-17530010D02*
X817682Y-17539534D01*
X817682Y-17539534D02*
X827205Y-17558581D01*
X827205Y-17558581D02*
X836729Y-17596676D01*
X836729Y-17596676D02*
X836729Y-17644296D01*
X836729Y-17644296D02*
X827205Y-17682391D01*
X827205Y-17682391D02*
X817682Y-17701438D01*
X817682Y-17701438D02*
X808158Y-17710962D01*
X808158Y-17710962D02*
X789110Y-17720486D01*
X789110Y-17720486D02*
X770062Y-17720486D01*
X770062Y-17720486D02*
X751015Y-17710962D01*
X751015Y-17710962D02*
X741491Y-17701438D01*
X741491Y-17701438D02*
X731967Y-17682391D01*
X731967Y-17682391D02*
X722443Y-17644296D01*
X722443Y-17644296D02*
X722443Y-17596676D01*
X722443Y-17596676D02*
X731967Y-17558581D01*
X731967Y-17558581D02*
X741491Y-17539534D01*
X741491Y-17539534D02*
X751015Y-17530010D01*
X751015Y-17530010D02*
X770062Y-17520486D01*
X960539Y-17520486D02*
X979586Y-17520486D01*
X979586Y-17520486D02*
X998634Y-17530010D01*
X998634Y-17530010D02*
X1008158Y-17539534D01*
X1008158Y-17539534D02*
X1017682Y-17558581D01*
X1017682Y-17558581D02*
X1027205Y-17596676D01*
X1027205Y-17596676D02*
X1027205Y-17644296D01*
X1027205Y-17644296D02*
X1017682Y-17682391D01*
X1017682Y-17682391D02*
X1008158Y-17701438D01*
X1008158Y-17701438D02*
X998634Y-17710962D01*
X998634Y-17710962D02*
X979586Y-17720486D01*
X979586Y-17720486D02*
X960539Y-17720486D01*
X960539Y-17720486D02*
X941491Y-17710962D01*
X941491Y-17710962D02*
X931967Y-17701438D01*
X931967Y-17701438D02*
X922443Y-17682391D01*
X922443Y-17682391D02*
X912920Y-17644296D01*
X912920Y-17644296D02*
X912920Y-17596676D01*
X912920Y-17596676D02*
X922443Y-17558581D01*
X922443Y-17558581D02*
X931967Y-17539534D01*
X931967Y-17539534D02*
X941491Y-17530010D01*
X941491Y-17530010D02*
X960539Y-17520486D01*
X1112920Y-17720486D02*
X1112920Y-17587153D01*
X1112920Y-17606200D02*
X1122444Y-17596676D01*
X1122444Y-17596676D02*
X1141491Y-17587153D01*
X1141491Y-17587153D02*
X1170063Y-17587153D01*
X1170063Y-17587153D02*
X1189110Y-17596676D01*
X1189110Y-17596676D02*
X1198634Y-17615724D01*
X1198634Y-17615724D02*
X1198634Y-17720486D01*
X1198634Y-17615724D02*
X1208158Y-17596676D01*
X1208158Y-17596676D02*
X1227205Y-17587153D01*
X1227205Y-17587153D02*
X1255777Y-17587153D01*
X1255777Y-17587153D02*
X1274825Y-17596676D01*
X1274825Y-17596676D02*
X1284348Y-17615724D01*
X1284348Y-17615724D02*
X1284348Y-17720486D01*
X1379586Y-17720486D02*
X1379586Y-17587153D01*
X1379586Y-17606200D02*
X1389110Y-17596676D01*
X1389110Y-17596676D02*
X1408158Y-17587153D01*
X1408158Y-17587153D02*
X1436729Y-17587153D01*
X1436729Y-17587153D02*
X1455777Y-17596676D01*
X1455777Y-17596676D02*
X1465301Y-17615724D01*
X1465301Y-17615724D02*
X1465301Y-17720486D01*
X1465301Y-17615724D02*
X1474824Y-17596676D01*
X1474824Y-17596676D02*
X1493872Y-17587153D01*
X1493872Y-17587153D02*
X1522443Y-17587153D01*
X1522443Y-17587153D02*
X1541491Y-17596676D01*
X1541491Y-17596676D02*
X1551015Y-17615724D01*
X1551015Y-17615724D02*
X1551015Y-17720486D01*
X1941491Y-17510962D02*
X1770063Y-17768105D01*
X2198634Y-17520486D02*
X2217682Y-17520486D01*
X2217682Y-17520486D02*
X2236729Y-17530010D01*
X2236729Y-17530010D02*
X2246253Y-17539534D01*
X2246253Y-17539534D02*
X2255777Y-17558581D01*
X2255777Y-17558581D02*
X2265301Y-17596676D01*
X2265301Y-17596676D02*
X2265301Y-17644296D01*
X2265301Y-17644296D02*
X2255777Y-17682391D01*
X2255777Y-17682391D02*
X2246253Y-17701438D01*
X2246253Y-17701438D02*
X2236729Y-17710962D01*
X2236729Y-17710962D02*
X2217682Y-17720486D01*
X2217682Y-17720486D02*
X2198634Y-17720486D01*
X2198634Y-17720486D02*
X2179587Y-17710962D01*
X2179587Y-17710962D02*
X2170063Y-17701438D01*
X2170063Y-17701438D02*
X2160539Y-17682391D01*
X2160539Y-17682391D02*
X2151015Y-17644296D01*
X2151015Y-17644296D02*
X2151015Y-17596676D01*
X2151015Y-17596676D02*
X2160539Y-17558581D01*
X2160539Y-17558581D02*
X2170063Y-17539534D01*
X2170063Y-17539534D02*
X2179587Y-17530010D01*
X2179587Y-17530010D02*
X2198634Y-17520486D01*
X2351015Y-17701438D02*
X2360539Y-17710962D01*
X2360539Y-17710962D02*
X2351015Y-17720486D01*
X2351015Y-17720486D02*
X2341491Y-17710962D01*
X2341491Y-17710962D02*
X2351015Y-17701438D01*
X2351015Y-17701438D02*
X2351015Y-17720486D01*
X2551015Y-17720486D02*
X2436729Y-17720486D01*
X2493872Y-17720486D02*
X2493872Y-17520486D01*
X2493872Y-17520486D02*
X2474825Y-17549057D01*
X2474825Y-17549057D02*
X2455777Y-17568105D01*
X2455777Y-17568105D02*
X2436729Y-17577629D01*
X2617682Y-17520486D02*
X2741491Y-17520486D01*
X2741491Y-17520486D02*
X2674825Y-17596676D01*
X2674825Y-17596676D02*
X2703396Y-17596676D01*
X2703396Y-17596676D02*
X2722444Y-17606200D01*
X2722444Y-17606200D02*
X2731968Y-17615724D01*
X2731968Y-17615724D02*
X2741491Y-17634772D01*
X2741491Y-17634772D02*
X2741491Y-17682391D01*
X2741491Y-17682391D02*
X2731968Y-17701438D01*
X2731968Y-17701438D02*
X2722444Y-17710962D01*
X2722444Y-17710962D02*
X2703396Y-17720486D01*
X2703396Y-17720486D02*
X2646253Y-17720486D01*
X2646253Y-17720486D02*
X2627206Y-17710962D01*
X2627206Y-17710962D02*
X2617682Y-17701438D01*
X2808158Y-17520486D02*
X2931967Y-17520486D01*
X2931967Y-17520486D02*
X2865301Y-17596676D01*
X2865301Y-17596676D02*
X2893872Y-17596676D01*
X2893872Y-17596676D02*
X2912920Y-17606200D01*
X2912920Y-17606200D02*
X2922444Y-17615724D01*
X2922444Y-17615724D02*
X2931967Y-17634772D01*
X2931967Y-17634772D02*
X2931967Y-17682391D01*
X2931967Y-17682391D02*
X2922444Y-17701438D01*
X2922444Y-17701438D02*
X2912920Y-17710962D01*
X2912920Y-17710962D02*
X2893872Y-17720486D01*
X2893872Y-17720486D02*
X2836729Y-17720486D01*
X2836729Y-17720486D02*
X2817682Y-17710962D01*
X2817682Y-17710962D02*
X2808158Y-17701438D01*
X3027206Y-17720486D02*
X3065301Y-17720486D01*
X3065301Y-17720486D02*
X3084348Y-17710962D01*
X3084348Y-17710962D02*
X3093872Y-17701438D01*
X3093872Y-17701438D02*
X3112920Y-17672867D01*
X3112920Y-17672867D02*
X3122444Y-17634772D01*
X3122444Y-17634772D02*
X3122444Y-17558581D01*
X3122444Y-17558581D02*
X3112920Y-17539534D01*
X3112920Y-17539534D02*
X3103396Y-17530010D01*
X3103396Y-17530010D02*
X3084348Y-17520486D01*
X3084348Y-17520486D02*
X3046253Y-17520486D01*
X3046253Y-17520486D02*
X3027206Y-17530010D01*
X3027206Y-17530010D02*
X3017682Y-17539534D01*
X3017682Y-17539534D02*
X3008158Y-17558581D01*
X3008158Y-17558581D02*
X3008158Y-17606200D01*
X3008158Y-17606200D02*
X3017682Y-17625248D01*
X3017682Y-17625248D02*
X3027206Y-17634772D01*
X3027206Y-17634772D02*
X3046253Y-17644296D01*
X3046253Y-17644296D02*
X3084348Y-17644296D01*
X3084348Y-17644296D02*
X3103396Y-17634772D01*
X3103396Y-17634772D02*
X3112920Y-17625248D01*
X3112920Y-17625248D02*
X3122444Y-17606200D01*
X3198634Y-17520486D02*
X3198634Y-17558581D01*
X3274825Y-17520486D02*
X3274825Y-17558581D01*
X3570063Y-17796676D02*
X3560539Y-17787153D01*
X3560539Y-17787153D02*
X3541491Y-17758581D01*
X3541491Y-17758581D02*
X3531968Y-17739534D01*
X3531968Y-17739534D02*
X3522444Y-17710962D01*
X3522444Y-17710962D02*
X3512920Y-17663343D01*
X3512920Y-17663343D02*
X3512920Y-17625248D01*
X3512920Y-17625248D02*
X3522444Y-17577629D01*
X3522444Y-17577629D02*
X3531968Y-17549057D01*
X3531968Y-17549057D02*
X3541491Y-17530010D01*
X3541491Y-17530010D02*
X3560539Y-17501438D01*
X3560539Y-17501438D02*
X3570063Y-17491915D01*
X3627206Y-17520486D02*
X3751015Y-17520486D01*
X3751015Y-17520486D02*
X3684348Y-17596676D01*
X3684348Y-17596676D02*
X3712920Y-17596676D01*
X3712920Y-17596676D02*
X3731968Y-17606200D01*
X3731968Y-17606200D02*
X3741491Y-17615724D01*
X3741491Y-17615724D02*
X3751015Y-17634772D01*
X3751015Y-17634772D02*
X3751015Y-17682391D01*
X3751015Y-17682391D02*
X3741491Y-17701438D01*
X3741491Y-17701438D02*
X3731968Y-17710962D01*
X3731968Y-17710962D02*
X3712920Y-17720486D01*
X3712920Y-17720486D02*
X3655777Y-17720486D01*
X3655777Y-17720486D02*
X3636729Y-17710962D01*
X3636729Y-17710962D02*
X3627206Y-17701438D01*
X3989110Y-17720486D02*
X3989110Y-17520486D01*
X4074825Y-17720486D02*
X4074825Y-17615724D01*
X4074825Y-17615724D02*
X4065301Y-17596676D01*
X4065301Y-17596676D02*
X4046253Y-17587153D01*
X4046253Y-17587153D02*
X4017682Y-17587153D01*
X4017682Y-17587153D02*
X3998634Y-17596676D01*
X3998634Y-17596676D02*
X3989110Y-17606200D01*
X4198634Y-17720486D02*
X4179587Y-17710962D01*
X4179587Y-17710962D02*
X4170063Y-17701438D01*
X4170063Y-17701438D02*
X4160539Y-17682391D01*
X4160539Y-17682391D02*
X4160539Y-17625248D01*
X4160539Y-17625248D02*
X4170063Y-17606200D01*
X4170063Y-17606200D02*
X4179587Y-17596676D01*
X4179587Y-17596676D02*
X4198634Y-17587153D01*
X4198634Y-17587153D02*
X4227206Y-17587153D01*
X4227206Y-17587153D02*
X4246253Y-17596676D01*
X4246253Y-17596676D02*
X4255777Y-17606200D01*
X4255777Y-17606200D02*
X4265301Y-17625248D01*
X4265301Y-17625248D02*
X4265301Y-17682391D01*
X4265301Y-17682391D02*
X4255777Y-17701438D01*
X4255777Y-17701438D02*
X4246253Y-17710962D01*
X4246253Y-17710962D02*
X4227206Y-17720486D01*
X4227206Y-17720486D02*
X4198634Y-17720486D01*
X4379587Y-17720486D02*
X4360539Y-17710962D01*
X4360539Y-17710962D02*
X4351015Y-17691915D01*
X4351015Y-17691915D02*
X4351015Y-17520486D01*
X4531968Y-17710962D02*
X4512920Y-17720486D01*
X4512920Y-17720486D02*
X4474825Y-17720486D01*
X4474825Y-17720486D02*
X4455777Y-17710962D01*
X4455777Y-17710962D02*
X4446253Y-17691915D01*
X4446253Y-17691915D02*
X4446253Y-17615724D01*
X4446253Y-17615724D02*
X4455777Y-17596676D01*
X4455777Y-17596676D02*
X4474825Y-17587153D01*
X4474825Y-17587153D02*
X4512920Y-17587153D01*
X4512920Y-17587153D02*
X4531968Y-17596676D01*
X4531968Y-17596676D02*
X4541492Y-17615724D01*
X4541492Y-17615724D02*
X4541492Y-17634772D01*
X4541492Y-17634772D02*
X4446253Y-17653819D01*
X4617682Y-17710962D02*
X4636730Y-17720486D01*
X4636730Y-17720486D02*
X4674825Y-17720486D01*
X4674825Y-17720486D02*
X4693873Y-17710962D01*
X4693873Y-17710962D02*
X4703396Y-17691915D01*
X4703396Y-17691915D02*
X4703396Y-17682391D01*
X4703396Y-17682391D02*
X4693873Y-17663343D01*
X4693873Y-17663343D02*
X4674825Y-17653819D01*
X4674825Y-17653819D02*
X4646253Y-17653819D01*
X4646253Y-17653819D02*
X4627206Y-17644296D01*
X4627206Y-17644296D02*
X4617682Y-17625248D01*
X4617682Y-17625248D02*
X4617682Y-17615724D01*
X4617682Y-17615724D02*
X4627206Y-17596676D01*
X4627206Y-17596676D02*
X4646253Y-17587153D01*
X4646253Y-17587153D02*
X4674825Y-17587153D01*
X4674825Y-17587153D02*
X4693873Y-17596676D01*
X4770063Y-17796676D02*
X4779587Y-17787153D01*
X4779587Y-17787153D02*
X4798634Y-17758581D01*
X4798634Y-17758581D02*
X4808158Y-17739534D01*
X4808158Y-17739534D02*
X4817682Y-17710962D01*
X4817682Y-17710962D02*
X4827206Y-17663343D01*
X4827206Y-17663343D02*
X4827206Y-17625248D01*
X4827206Y-17625248D02*
X4817682Y-17577629D01*
X4817682Y-17577629D02*
X4808158Y-17549057D01*
X4808158Y-17549057D02*
X4798634Y-17530010D01*
X4798634Y-17530010D02*
X4779587Y-17501438D01*
X4779587Y-17501438D02*
X4770063Y-17491915D01*
X5131968Y-17796676D02*
X5122444Y-17787153D01*
X5122444Y-17787153D02*
X5103396Y-17758581D01*
X5103396Y-17758581D02*
X5093873Y-17739534D01*
X5093873Y-17739534D02*
X5084349Y-17710962D01*
X5084349Y-17710962D02*
X5074825Y-17663343D01*
X5074825Y-17663343D02*
X5074825Y-17625248D01*
X5074825Y-17625248D02*
X5084349Y-17577629D01*
X5084349Y-17577629D02*
X5093873Y-17549057D01*
X5093873Y-17549057D02*
X5103396Y-17530010D01*
X5103396Y-17530010D02*
X5122444Y-17501438D01*
X5122444Y-17501438D02*
X5131968Y-17491915D01*
X5208158Y-17587153D02*
X5208158Y-17720486D01*
X5208158Y-17606200D02*
X5217682Y-17596676D01*
X5217682Y-17596676D02*
X5236730Y-17587153D01*
X5236730Y-17587153D02*
X5265301Y-17587153D01*
X5265301Y-17587153D02*
X5284349Y-17596676D01*
X5284349Y-17596676D02*
X5293873Y-17615724D01*
X5293873Y-17615724D02*
X5293873Y-17720486D01*
X5417682Y-17720486D02*
X5398634Y-17710962D01*
X5398634Y-17710962D02*
X5389111Y-17701438D01*
X5389111Y-17701438D02*
X5379587Y-17682391D01*
X5379587Y-17682391D02*
X5379587Y-17625248D01*
X5379587Y-17625248D02*
X5389111Y-17606200D01*
X5389111Y-17606200D02*
X5398634Y-17596676D01*
X5398634Y-17596676D02*
X5417682Y-17587153D01*
X5417682Y-17587153D02*
X5446254Y-17587153D01*
X5446254Y-17587153D02*
X5465301Y-17596676D01*
X5465301Y-17596676D02*
X5474825Y-17606200D01*
X5474825Y-17606200D02*
X5484349Y-17625248D01*
X5484349Y-17625248D02*
X5484349Y-17682391D01*
X5484349Y-17682391D02*
X5474825Y-17701438D01*
X5474825Y-17701438D02*
X5465301Y-17710962D01*
X5465301Y-17710962D02*
X5446254Y-17720486D01*
X5446254Y-17720486D02*
X5417682Y-17720486D01*
X5541492Y-17587153D02*
X5617682Y-17587153D01*
X5570063Y-17520486D02*
X5570063Y-17691915D01*
X5570063Y-17691915D02*
X5579587Y-17710962D01*
X5579587Y-17710962D02*
X5598634Y-17720486D01*
X5598634Y-17720486D02*
X5617682Y-17720486D01*
X5836730Y-17587153D02*
X5836730Y-17787153D01*
X5836730Y-17596676D02*
X5855777Y-17587153D01*
X5855777Y-17587153D02*
X5893873Y-17587153D01*
X5893873Y-17587153D02*
X5912920Y-17596676D01*
X5912920Y-17596676D02*
X5922444Y-17606200D01*
X5922444Y-17606200D02*
X5931968Y-17625248D01*
X5931968Y-17625248D02*
X5931968Y-17682391D01*
X5931968Y-17682391D02*
X5922444Y-17701438D01*
X5922444Y-17701438D02*
X5912920Y-17710962D01*
X5912920Y-17710962D02*
X5893873Y-17720486D01*
X5893873Y-17720486D02*
X5855777Y-17720486D01*
X5855777Y-17720486D02*
X5836730Y-17710962D01*
X6046253Y-17720486D02*
X6027206Y-17710962D01*
X6027206Y-17710962D02*
X6017682Y-17691915D01*
X6017682Y-17691915D02*
X6017682Y-17520486D01*
X6208158Y-17720486D02*
X6208158Y-17615724D01*
X6208158Y-17615724D02*
X6198634Y-17596676D01*
X6198634Y-17596676D02*
X6179587Y-17587153D01*
X6179587Y-17587153D02*
X6141492Y-17587153D01*
X6141492Y-17587153D02*
X6122444Y-17596676D01*
X6208158Y-17710962D02*
X6189111Y-17720486D01*
X6189111Y-17720486D02*
X6141492Y-17720486D01*
X6141492Y-17720486D02*
X6122444Y-17710962D01*
X6122444Y-17710962D02*
X6112920Y-17691915D01*
X6112920Y-17691915D02*
X6112920Y-17672867D01*
X6112920Y-17672867D02*
X6122444Y-17653819D01*
X6122444Y-17653819D02*
X6141492Y-17644296D01*
X6141492Y-17644296D02*
X6189111Y-17644296D01*
X6189111Y-17644296D02*
X6208158Y-17634772D01*
X6274825Y-17587153D02*
X6351015Y-17587153D01*
X6303396Y-17520486D02*
X6303396Y-17691915D01*
X6303396Y-17691915D02*
X6312920Y-17710962D01*
X6312920Y-17710962D02*
X6331968Y-17720486D01*
X6331968Y-17720486D02*
X6351015Y-17720486D01*
X6493873Y-17710962D02*
X6474825Y-17720486D01*
X6474825Y-17720486D02*
X6436730Y-17720486D01*
X6436730Y-17720486D02*
X6417682Y-17710962D01*
X6417682Y-17710962D02*
X6408158Y-17691915D01*
X6408158Y-17691915D02*
X6408158Y-17615724D01*
X6408158Y-17615724D02*
X6417682Y-17596676D01*
X6417682Y-17596676D02*
X6436730Y-17587153D01*
X6436730Y-17587153D02*
X6474825Y-17587153D01*
X6474825Y-17587153D02*
X6493873Y-17596676D01*
X6493873Y-17596676D02*
X6503396Y-17615724D01*
X6503396Y-17615724D02*
X6503396Y-17634772D01*
X6503396Y-17634772D02*
X6408158Y-17653819D01*
X6674825Y-17720486D02*
X6674825Y-17520486D01*
X6674825Y-17710962D02*
X6655777Y-17720486D01*
X6655777Y-17720486D02*
X6617682Y-17720486D01*
X6617682Y-17720486D02*
X6598634Y-17710962D01*
X6598634Y-17710962D02*
X6589111Y-17701438D01*
X6589111Y-17701438D02*
X6579587Y-17682391D01*
X6579587Y-17682391D02*
X6579587Y-17625248D01*
X6579587Y-17625248D02*
X6589111Y-17606200D01*
X6589111Y-17606200D02*
X6598634Y-17596676D01*
X6598634Y-17596676D02*
X6617682Y-17587153D01*
X6617682Y-17587153D02*
X6655777Y-17587153D01*
X6655777Y-17587153D02*
X6674825Y-17596676D01*
X6751015Y-17796676D02*
X6760539Y-17787153D01*
X6760539Y-17787153D02*
X6779587Y-17758581D01*
X6779587Y-17758581D02*
X6789111Y-17739534D01*
X6789111Y-17739534D02*
X6798634Y-17710962D01*
X6798634Y-17710962D02*
X6808158Y-17663343D01*
X6808158Y-17663343D02*
X6808158Y-17625248D01*
X6808158Y-17625248D02*
X6798634Y-17577629D01*
X6798634Y-17577629D02*
X6789111Y-17549057D01*
X6789111Y-17549057D02*
X6779587Y-17530010D01*
X6779587Y-17530010D02*
X6760539Y-17501438D01*
X6760539Y-17501438D02*
X6751015Y-17491915D01*
M02*
