%TF.GenerationSoftware,KiCad,Pcbnew,8.0.9-8.0.9-0~ubuntu24.04.1*%
%TF.CreationDate,2026-09-24T17:33:52+00:00*%
%TF.ProjectId,uaefi,75616566-692e-46b6-9963-61645f706362,E*%
%TF.SameCoordinates,Original*%
%TF.FileFunction,Soldermask,Bot*%
%TF.FilePolarity,Negative*%
%FSLAX46Y46*%
G04 Gerber Fmt 4.6, Leading zero omitted, Abs format (unit mm)*
G04 Created by KiCad (PCBNEW 8.0.9-8.0.9-0~ubuntu24.04.1) date 2026-09-24 17:33:52*
%MOMM*%
%LPD*%
G01*
G04 APERTURE LIST*
G04 Aperture macros list*
%AMRoundRect*
0 Rectangle with rounded corners*
0 $1 Rounding radius*
0 $2 $3 $4 $5 $6 $7 $8 $9 X,Y pos of 4 corners*
0 Add a 4 corners polygon primitive as box body*
4,1,4,$2,$3,$4,$5,$6,$7,$8,$9,$2,$3,0*
0 Add four circle primitives for the rounded corners*
1,1,$1+$1,$2,$3*
1,1,$1+$1,$4,$5*
1,1,$1+$1,$6,$7*
1,1,$1+$1,$8,$9*
0 Add four rect primitives between the rounded corners*
20,1,$1+$1,$2,$3,$4,$5,0*
20,1,$1+$1,$4,$5,$6,$7,0*
20,1,$1+$1,$6,$7,$8,$9,0*
20,1,$1+$1,$8,$9,$2,$3,0*%
G04 Aperture macros list end*
%ADD10C,0.120000*%
%ADD11C,1.700000*%
%ADD12C,0.800000*%
%ADD13C,6.400000*%
%ADD14C,1.524000*%
%ADD15RoundRect,0.250000X0.675000X-0.600000X0.675000X0.600000X-0.675000X0.600000X-0.675000X-0.600000X0*%
%ADD16O,1.850000X1.700000*%
%ADD17C,0.600000*%
%ADD18R,1.100000X1.100000*%
%ADD19C,1.100000*%
%ADD20O,2.400000X1.100000*%
%ADD21C,1.500000*%
%ADD22C,0.599999*%
%ADD23C,3.400000*%
%ADD24RoundRect,0.575000X-0.575000X0.575000X-0.575000X-0.575000X0.575000X-0.575000X0.575000X0.575000X0*%
%ADD25C,2.300000*%
%ADD26C,0.650000*%
%ADD27O,1.000000X2.100000*%
%ADD28O,1.000000X1.600000*%
%ADD29R,1.700000X1.700000*%
%ADD30O,1.700000X1.700000*%
%ADD31C,3.302000*%
%ADD32RoundRect,0.150000X-0.150000X0.587500X-0.150000X-0.587500X0.150000X-0.587500X0.150000X0.587500X0*%
%ADD33RoundRect,0.100000X0.525000X-0.400000X0.525000X0.400000X-0.525000X0.400000X-0.525000X-0.400000X0*%
%ADD34RoundRect,0.085000X-0.340000X0.340000X-0.340000X-0.340000X0.340000X-0.340000X0.340000X0.340000X0*%
%ADD35RoundRect,0.090000X0.510000X-0.360000X0.510000X0.360000X-0.510000X0.360000X-0.510000X-0.360000X0*%
%ADD36R,2.299995X4.399991*%
%ADD37R,2.299995X3.999992*%
%ADD38RoundRect,0.150000X-0.150000X0.825000X-0.150000X-0.825000X0.150000X-0.825000X0.150000X0.825000X0*%
%ADD39RoundRect,0.070000X0.390000X-0.280000X0.390000X0.280000X-0.390000X0.280000X-0.390000X-0.280000X0*%
%ADD40RoundRect,0.085000X0.340000X0.340000X-0.340000X0.340000X-0.340000X-0.340000X0.340000X-0.340000X0*%
%ADD41RoundRect,0.085000X-0.340000X-0.340000X0.340000X-0.340000X0.340000X0.340000X-0.340000X0.340000X0*%
%ADD42RoundRect,0.100000X-0.525000X0.400000X-0.525000X-0.400000X0.525000X-0.400000X0.525000X0.400000X0*%
%ADD43RoundRect,0.250000X0.362500X1.425000X-0.362500X1.425000X-0.362500X-1.425000X0.362500X-1.425000X0*%
%ADD44RoundRect,0.085000X0.340000X-0.340000X0.340000X0.340000X-0.340000X0.340000X-0.340000X-0.340000X0*%
%ADD45RoundRect,0.218750X-0.256250X0.218750X-0.256250X-0.218750X0.256250X-0.218750X0.256250X0.218750X0*%
%ADD46RoundRect,0.060000X0.240000X-0.240000X0.240000X0.240000X-0.240000X0.240000X-0.240000X-0.240000X0*%
%ADD47RoundRect,0.070000X-0.390000X0.280000X-0.390000X-0.280000X0.390000X-0.280000X0.390000X0.280000X0*%
%ADD48RoundRect,0.150000X0.825000X0.150000X-0.825000X0.150000X-0.825000X-0.150000X0.825000X-0.150000X0*%
G04 APERTURE END LIST*
D10*
%TO.C,U5*%
X149150000Y-152775000D02*
X136150000Y-152775000D01*
X136150000Y-145775000D01*
X149150000Y-145775000D01*
X149150000Y-152775000D01*
G36*
X149150000Y-152775000D02*
G01*
X136150000Y-152775000D01*
X136150000Y-145775000D01*
X149150000Y-145775000D01*
X149150000Y-152775000D01*
G37*
%TD*%
D11*
%TO.C,P8*%
X133200000Y-140700000D03*
%TD*%
%TO.C,P5*%
X91600000Y-114000000D03*
%TD*%
%TO.C,P1*%
X82000000Y-102500000D03*
%TD*%
%TO.C,P2*%
X84900000Y-102500000D03*
%TD*%
%TO.C,P15*%
X55540000Y-148500000D03*
%TD*%
D12*
%TO.C,H1*%
X51100000Y-63500000D03*
X51802944Y-61802944D03*
X51802944Y-65197056D03*
X53500000Y-61100000D03*
D13*
X53500000Y-63500000D03*
D12*
X53500000Y-65900000D03*
X55197056Y-61802944D03*
X55197056Y-65197056D03*
X55900000Y-63500000D03*
%TD*%
%TO.C,H4*%
X144100000Y-63500000D03*
X144802944Y-61802944D03*
X144802944Y-65197056D03*
X146500000Y-61100000D03*
D13*
X146500000Y-63500000D03*
D12*
X146500000Y-65900000D03*
X148197056Y-61802944D03*
X148197056Y-65197056D03*
X148900000Y-63500000D03*
%TD*%
D14*
%TO.C,F4*%
X68400000Y-140550000D03*
X68400000Y-145450000D03*
%TD*%
D15*
%TO.C,J7*%
X133000000Y-157000000D03*
D16*
X133000000Y-154500000D03*
X133000000Y-152000000D03*
X133000000Y-149500000D03*
X133000000Y-147000000D03*
%TD*%
D11*
%TO.C,P4*%
X112500000Y-152500000D03*
%TD*%
D12*
%TO.C,H2*%
X51100000Y-156500000D03*
X51802944Y-154802944D03*
X51802944Y-158197056D03*
X53500000Y-154100000D03*
D13*
X53500000Y-156500000D03*
D12*
X53500000Y-158900000D03*
X55197056Y-154802944D03*
X55197056Y-158197056D03*
X55900000Y-156500000D03*
%TD*%
D17*
%TO.C,M3*%
X99175000Y-97325000D03*
X97975000Y-97325000D03*
X100375000Y-97325000D03*
X101575000Y-97325000D03*
X95115000Y-82900000D03*
X94115000Y-82900000D03*
%TD*%
D11*
%TO.C,P17*%
X53000000Y-148500000D03*
%TD*%
D18*
%TO.C,J8*%
X109250000Y-156900000D03*
D19*
X107500000Y-156100000D03*
X109250000Y-155300000D03*
X107500000Y-154500000D03*
X109250000Y-153700000D03*
D20*
X108375000Y-158950000D03*
X108375000Y-151650000D03*
%TD*%
D14*
%TO.C,F3*%
X70600000Y-140550000D03*
X70600000Y-145450000D03*
%TD*%
D17*
%TO.C,M2*%
X129574999Y-86875000D03*
X128624999Y-86875000D03*
X127675001Y-86875000D03*
X128674999Y-78175000D03*
X129574999Y-78175000D03*
%TD*%
D11*
%TO.C,P18*%
X73000000Y-149000000D03*
%TD*%
D21*
%TO.C,M1*%
X90874995Y-139175001D03*
X90874995Y-145574998D03*
X90874995Y-147475001D03*
X90874995Y-151775001D03*
D17*
X91324994Y-154174998D03*
X91324994Y-155174999D03*
D21*
X90874995Y-158025001D03*
X75374998Y-138724999D03*
X75374998Y-140574998D03*
X75374998Y-145525001D03*
X75374998Y-157574999D03*
%TD*%
D11*
%TO.C,P6*%
X89060000Y-114000000D03*
%TD*%
D22*
%TO.C,M7*%
X81999999Y-113024999D03*
X82524999Y-112149997D03*
X83274997Y-113325001D03*
X86824998Y-113249998D03*
%TD*%
D14*
%TO.C,F1*%
X72800000Y-140550000D03*
X72800000Y-145450000D03*
%TD*%
D11*
%TO.C,G3*%
X89500000Y-110040000D03*
X89500000Y-107500000D03*
X89500000Y-104960000D03*
X89500000Y-102420000D03*
X89500000Y-99880000D03*
X92040000Y-110040000D03*
X92040000Y-107500000D03*
X92040000Y-104960000D03*
X92040000Y-102420000D03*
X92040000Y-99880000D03*
X94580000Y-110040000D03*
X94580000Y-107500000D03*
X94580000Y-104960000D03*
X94580000Y-102420000D03*
X94580000Y-99880000D03*
%TD*%
%TO.C,P3*%
X112500000Y-157500000D03*
%TD*%
D14*
%TO.C,R4*%
X93474609Y-153525391D03*
X93474609Y-157335391D03*
%TD*%
D11*
%TO.C,P7*%
X133200000Y-136000000D03*
%TD*%
D23*
%TO.C,J30*%
X171500000Y-70750000D03*
X171500000Y-109250000D03*
X171500000Y-141750000D03*
D24*
X186000000Y-78000000D03*
D25*
X186000000Y-81000000D03*
X186000000Y-84000000D03*
X186000000Y-87000000D03*
X186000000Y-90000000D03*
X186000000Y-93000000D03*
X186000000Y-96000000D03*
X186000000Y-99000000D03*
X186000000Y-102000000D03*
X183500000Y-79500000D03*
X183500000Y-82500000D03*
X183500000Y-85500000D03*
X183500000Y-88500000D03*
X183500000Y-91500000D03*
X183500000Y-94500000D03*
X183500000Y-97500000D03*
X183500000Y-100500000D03*
X180500000Y-79500000D03*
X180500000Y-82500000D03*
X180500000Y-85500000D03*
X180500000Y-88500000D03*
X180500000Y-91500000D03*
X180500000Y-94500000D03*
X180500000Y-97500000D03*
X180500000Y-100500000D03*
X178000000Y-78000000D03*
X178000000Y-81000000D03*
X178000000Y-84000000D03*
X178000000Y-87000000D03*
X178000000Y-90000000D03*
X178000000Y-93000000D03*
X178000000Y-96000000D03*
X178000000Y-99000000D03*
X178000000Y-102000000D03*
X186000000Y-116500000D03*
X186000000Y-119500000D03*
X186000000Y-122500000D03*
X186000000Y-125500000D03*
X186000000Y-128500000D03*
X186000000Y-131500000D03*
X186000000Y-134500000D03*
X183500000Y-118000000D03*
X183500000Y-121000000D03*
X183500000Y-124000000D03*
X183500000Y-127000000D03*
X183500000Y-130000000D03*
X183500000Y-133000000D03*
X180500000Y-118000000D03*
X180500000Y-121000000D03*
X180500000Y-124000000D03*
X180500000Y-127000000D03*
X180500000Y-130000000D03*
X180500000Y-133000000D03*
X178000000Y-116500000D03*
X178000000Y-119500000D03*
X178000000Y-122500000D03*
X178000000Y-125500000D03*
X178000000Y-128500000D03*
X178000000Y-131500000D03*
X178000000Y-134500000D03*
%TD*%
D26*
%TO.C,J9*%
X97110000Y-153395000D03*
X102890000Y-153395000D03*
D27*
X95680000Y-152895000D03*
D28*
X95680000Y-157075000D03*
D27*
X104320000Y-152895000D03*
D28*
X104320000Y-157075000D03*
%TD*%
D12*
%TO.C,H3*%
X144100000Y-156500000D03*
X144802944Y-154802944D03*
X144802944Y-158197056D03*
X146500000Y-154100000D03*
D13*
X146500000Y-156500000D03*
D12*
X146500000Y-158900000D03*
X148197056Y-154802944D03*
X148197056Y-158197056D03*
X148900000Y-156500000D03*
%TD*%
D17*
%TO.C,M4*%
X88125000Y-97325000D03*
X86925000Y-97325000D03*
X89325000Y-97325000D03*
X90525000Y-97325000D03*
X84065000Y-82900000D03*
X83065000Y-82900000D03*
%TD*%
D14*
%TO.C,F2*%
X68550000Y-137400000D03*
X73450000Y-137400000D03*
%TD*%
D29*
%TO.C,J6*%
X148150000Y-122100000D03*
D30*
X145610000Y-122100000D03*
X143070000Y-122100000D03*
X140530000Y-122100000D03*
X137990000Y-122100000D03*
X135450000Y-122100000D03*
%TD*%
D31*
%TO.C,U3*%
X122203250Y-84570000D03*
X122203250Y-107430000D03*
D14*
X109503250Y-89650000D03*
X109503250Y-92190000D03*
X109503250Y-94730000D03*
X109503250Y-97270000D03*
X109503250Y-99810000D03*
X109503250Y-102350000D03*
%TD*%
D11*
%TO.C,P16*%
X58080000Y-148500000D03*
%TD*%
%TO.C,G4*%
X97120000Y-110040000D03*
X97120000Y-107500000D03*
X97120000Y-104960000D03*
X97120000Y-102420000D03*
X97120000Y-99880000D03*
X99660000Y-110040000D03*
X99660000Y-107500000D03*
X99660000Y-104960000D03*
X99660000Y-102420000D03*
X99660000Y-99880000D03*
X102200000Y-110040000D03*
X102200000Y-107500000D03*
X102200000Y-104960000D03*
X102200000Y-102420000D03*
X102200000Y-99880000D03*
%TD*%
D32*
%TO.C,D8*%
X104550000Y-79480477D03*
X106450000Y-79480477D03*
X105500000Y-81355477D03*
%TD*%
D33*
%TO.C,C10*%
X62125000Y-146040000D03*
X62125000Y-144040000D03*
%TD*%
D34*
%TO.C,C27*%
X111800000Y-94109999D03*
X111800000Y-95690001D03*
%TD*%
D35*
%TO.C,D4*%
X69000000Y-83650000D03*
X69000000Y-80350000D03*
%TD*%
D21*
%TO.C,BT1*%
X142000000Y-138399858D03*
X142000000Y-130900000D03*
D36*
X142000000Y-142499952D03*
D37*
X142000000Y-126499933D03*
%TD*%
D38*
%TO.C,U10*%
X51245000Y-98075000D03*
X52515000Y-98075000D03*
X53785000Y-98075000D03*
X55055000Y-98075000D03*
X55055000Y-103025000D03*
X53785000Y-103025000D03*
X52515000Y-103025000D03*
X51245000Y-103025000D03*
%TD*%
D39*
%TO.C,R31*%
X52550000Y-119000000D03*
X52550000Y-117400000D03*
%TD*%
D40*
%TO.C,C30*%
X107980002Y-77400000D03*
X106400000Y-77400000D03*
%TD*%
D33*
%TO.C,C7*%
X56125000Y-146040000D03*
X56125000Y-144040000D03*
%TD*%
D34*
%TO.C,C33*%
X147000000Y-125209999D03*
X147000000Y-126790001D03*
%TD*%
D41*
%TO.C,C29*%
X104709999Y-82917977D03*
X106290001Y-82917977D03*
%TD*%
D39*
%TO.C,R34*%
X55900000Y-119000000D03*
X55900000Y-117400000D03*
%TD*%
D42*
%TO.C,C17*%
X66600000Y-149500000D03*
X66600000Y-151500000D03*
%TD*%
D43*
%TO.C,R20*%
X76862500Y-97600000D03*
X70937500Y-97600000D03*
%TD*%
D42*
%TO.C,C3*%
X58125000Y-140040000D03*
X58125000Y-142040000D03*
%TD*%
D33*
%TO.C,C23*%
X68600000Y-155500000D03*
X68600000Y-153500000D03*
%TD*%
D38*
%TO.C,U4*%
X103595000Y-85725000D03*
X104865000Y-85725000D03*
X106135000Y-85725000D03*
X107405000Y-85725000D03*
X107405000Y-90675000D03*
X106135000Y-90675000D03*
X104865000Y-90675000D03*
X103595000Y-90675000D03*
%TD*%
D42*
%TO.C,C1*%
X54125000Y-140040000D03*
X54125000Y-142040000D03*
%TD*%
D43*
%TO.C,R26*%
X76862500Y-118600000D03*
X70937500Y-118600000D03*
%TD*%
D38*
%TO.C,U11*%
X51245000Y-106625000D03*
X52515000Y-106625000D03*
X53785000Y-106625000D03*
X55055000Y-106625000D03*
X55055000Y-111575000D03*
X53785000Y-111575000D03*
X52515000Y-111575000D03*
X51245000Y-111575000D03*
%TD*%
D44*
%TO.C,C31*%
X109600000Y-87290001D03*
X109600000Y-85709999D03*
%TD*%
D45*
%TO.C,F9*%
X80100000Y-124762500D03*
X80100000Y-126337500D03*
%TD*%
D42*
%TO.C,C14*%
X60600000Y-149500000D03*
X60600000Y-151500000D03*
%TD*%
D33*
%TO.C,C19*%
X60600000Y-155500000D03*
X60600000Y-153500000D03*
%TD*%
D45*
%TO.C,F6*%
X80050000Y-96812500D03*
X80050000Y-98387500D03*
%TD*%
D43*
%TO.C,R27*%
X76862500Y-125600000D03*
X70937500Y-125600000D03*
%TD*%
%TO.C,R21*%
X76862500Y-104600000D03*
X70937500Y-104600000D03*
%TD*%
D42*
%TO.C,C4*%
X60125000Y-140040000D03*
X60125000Y-142040000D03*
%TD*%
D45*
%TO.C,F10*%
X133150000Y-126762500D03*
X133150000Y-128337500D03*
%TD*%
D35*
%TO.C,D2*%
X69000000Y-91150000D03*
X69000000Y-87850000D03*
%TD*%
D46*
%TO.C,D1*%
X136900000Y-144000000D03*
X139100000Y-144000000D03*
%TD*%
D39*
%TO.C,R19*%
X78512500Y-112400000D03*
X78512500Y-110800000D03*
%TD*%
D47*
%TO.C,R33*%
X82000000Y-131200000D03*
X82000000Y-132800000D03*
%TD*%
D33*
%TO.C,C21*%
X64600000Y-155500000D03*
X64600000Y-153500000D03*
%TD*%
D45*
%TO.C,F8*%
X80100000Y-117762500D03*
X80100000Y-119337500D03*
%TD*%
D39*
%TO.C,R23*%
X78512500Y-119400000D03*
X78512500Y-117800000D03*
%TD*%
%TO.C,R7*%
X99000000Y-156421682D03*
X99000000Y-154821682D03*
%TD*%
%TO.C,R24*%
X78512500Y-126400000D03*
X78512500Y-124800000D03*
%TD*%
D45*
%TO.C,F7*%
X80150000Y-110812500D03*
X80150000Y-112387500D03*
%TD*%
D44*
%TO.C,C32*%
X111400000Y-87290001D03*
X111400000Y-85709999D03*
%TD*%
D39*
%TO.C,R16*%
X55050000Y-70950000D03*
X55050000Y-69350000D03*
%TD*%
D38*
%TO.C,U9*%
X51245000Y-89325000D03*
X52515000Y-89325000D03*
X53785000Y-89325000D03*
X55055000Y-89325000D03*
X55055000Y-94275000D03*
X53785000Y-94275000D03*
X52515000Y-94275000D03*
X51245000Y-94275000D03*
%TD*%
D39*
%TO.C,R30*%
X86200000Y-134650000D03*
X86200000Y-133050000D03*
%TD*%
D43*
%TO.C,R22*%
X76862500Y-111600000D03*
X70937500Y-111600000D03*
%TD*%
D39*
%TO.C,R25*%
X78512500Y-133400000D03*
X78512500Y-131800000D03*
%TD*%
D45*
%TO.C,L2*%
X104500000Y-74212500D03*
X104500000Y-75787500D03*
%TD*%
D42*
%TO.C,C16*%
X64600000Y-149500000D03*
X64600000Y-151500000D03*
%TD*%
D39*
%TO.C,R17*%
X78512500Y-98400000D03*
X78512500Y-96800000D03*
%TD*%
D33*
%TO.C,C22*%
X66600000Y-155500000D03*
X66600000Y-153500000D03*
%TD*%
D39*
%TO.C,R8*%
X101500000Y-156421682D03*
X101500000Y-154821682D03*
%TD*%
%TO.C,R3*%
X66000000Y-142800000D03*
X66000000Y-141200000D03*
%TD*%
%TO.C,R15*%
X52500000Y-70950000D03*
X52500000Y-69350000D03*
%TD*%
%TO.C,R13*%
X80300000Y-87500000D03*
X80300000Y-85900000D03*
%TD*%
D42*
%TO.C,C5*%
X62125000Y-140040000D03*
X62125000Y-142040000D03*
%TD*%
D45*
%TO.C,F5*%
X80050000Y-103812500D03*
X80050000Y-105387500D03*
%TD*%
D47*
%TO.C,R32*%
X83850000Y-130800000D03*
X83850000Y-132400000D03*
%TD*%
D41*
%TO.C,C28*%
X103009999Y-77400000D03*
X104590001Y-77400000D03*
%TD*%
D38*
%TO.C,U6*%
X52530000Y-73250000D03*
X53800000Y-73250000D03*
X55070000Y-73250000D03*
X56340000Y-73250000D03*
X56340000Y-78200000D03*
X55070000Y-78200000D03*
X53800000Y-78200000D03*
X52530000Y-78200000D03*
%TD*%
D39*
%TO.C,R29*%
X54250000Y-119000000D03*
X54250000Y-117400000D03*
%TD*%
%TO.C,R18*%
X78512500Y-105400000D03*
X78512500Y-103800000D03*
%TD*%
D45*
%TO.C,L1*%
X106500000Y-74212500D03*
X106500000Y-75787500D03*
%TD*%
D42*
%TO.C,C15*%
X62600000Y-149500000D03*
X62600000Y-151500000D03*
%TD*%
D43*
%TO.C,R28*%
X76862500Y-132600000D03*
X70937500Y-132600000D03*
%TD*%
D33*
%TO.C,C8*%
X58125000Y-146040000D03*
X58125000Y-144040000D03*
%TD*%
%TO.C,C9*%
X60125000Y-146040000D03*
X60125000Y-144040000D03*
%TD*%
%TO.C,C6*%
X54125000Y-146040000D03*
X54125000Y-144040000D03*
%TD*%
D42*
%TO.C,C2*%
X56125000Y-140040000D03*
X56125000Y-142040000D03*
%TD*%
%TO.C,C18*%
X68600000Y-149500000D03*
X68600000Y-151500000D03*
%TD*%
D39*
%TO.C,R12*%
X80300000Y-84100000D03*
X80300000Y-82500000D03*
%TD*%
D33*
%TO.C,C20*%
X62600000Y-155500000D03*
X62600000Y-153500000D03*
%TD*%
D47*
%TO.C,R5*%
X106900000Y-97400000D03*
X106900000Y-99000000D03*
%TD*%
%TO.C,R6*%
X127600000Y-88400000D03*
X127600000Y-90000000D03*
%TD*%
D39*
%TO.C,R2*%
X66000000Y-139800000D03*
X66000000Y-138200000D03*
%TD*%
D48*
%TO.C,U8*%
X77800000Y-82500000D03*
X77800000Y-83770000D03*
X77800000Y-85040000D03*
X77800000Y-86310000D03*
X72850000Y-86310000D03*
X72850000Y-85040000D03*
X72850000Y-83770000D03*
X72850000Y-82500000D03*
%TD*%
M02*
