%TF.GenerationSoftware,KiCad,Pcbnew,8.0.9-8.0.9-0~ubuntu24.04.1*%
%TF.CreationDate,2026-09-24T09:44:27+00:00*%
%TF.ProjectId,uaefi,75616566-692e-46b6-9963-61645f706362,E*%
%TF.SameCoordinates,Original*%
%TF.FileFunction,Profile,NP*%
%FSLAX46Y46*%
G04 Gerber Fmt 4.6, Leading zero omitted, Abs format (unit mm)*
G04 Created by KiCad (PCBNEW 8.0.9-8.0.9-0~ubuntu24.04.1) date 2026-09-24 09:44:27*
%MOMM*%
%LPD*%
G01*
G04 APERTURE LIST*
%TA.AperFunction,Profile*%
%ADD10C,0.100000*%
%TD*%
%ADD11C,0.350000*%
%ADD12C,0.300000*%
%ADD13O,2.000000X0.700000*%
%ADD14C,0.299999*%
%ADD15O,0.600000X1.700000*%
%ADD16O,0.600000X1.200000*%
G04 APERTURE END LIST*
D10*
X158000000Y-45500000D02*
X158000000Y-174500000D01*
X53500000Y-178000000D02*
G75*
G02*
X50000000Y-174500000I0J3500000D01*
G01*
X158000000Y-174500000D02*
G75*
G02*
X154500000Y-178000000I-3500000J0D01*
G01*
X50000000Y-45500000D02*
G75*
G02*
X53500000Y-42000000I3500000J0D01*
G01*
X50000000Y-174500000D02*
X50000000Y-45500000D01*
X154500000Y-178000000D02*
X53500000Y-178000000D01*
X53500000Y-42000000D02*
X154500000Y-42000000D01*
X154500000Y-42000000D02*
G75*
G02*
X158000000Y-45500000I0J-3500000D01*
G01*
D11*
X63315000Y-107250000D03*
X60775000Y-107250000D03*
X63315000Y-109790000D03*
X60775000Y-109790000D03*
X133200000Y-140700000D03*
X61900000Y-170500000D03*
X118900000Y-170500000D03*
X68400000Y-166000000D03*
X72400000Y-166000000D03*
X76400000Y-166000000D03*
X80400000Y-166000000D03*
X84400000Y-166000000D03*
X88400000Y-166000000D03*
X92400000Y-166000000D03*
X96400000Y-166000000D03*
X100400000Y-166000000D03*
X104400000Y-166000000D03*
X108400000Y-166000000D03*
X112400000Y-166000000D03*
X70400000Y-170000000D03*
X74400000Y-170000000D03*
X78400000Y-170000000D03*
X82400000Y-170000000D03*
X86400000Y-170000000D03*
X90400000Y-170000000D03*
X94400000Y-170000000D03*
X98400000Y-170000000D03*
X102400000Y-170000000D03*
X106400000Y-170000000D03*
X110400000Y-170000000D03*
X68400000Y-174000000D03*
X72400000Y-174000000D03*
X76400000Y-174000000D03*
X80400000Y-174000000D03*
X84400000Y-174000000D03*
X88400000Y-174000000D03*
X92400000Y-174000000D03*
X96400000Y-174000000D03*
X100400000Y-174000000D03*
X104400000Y-174000000D03*
X108400000Y-174000000D03*
X112400000Y-174000000D03*
X63315000Y-98850000D03*
X60775000Y-98850000D03*
X63315000Y-101390000D03*
X60775000Y-101390000D03*
D12*
X147775000Y-93250000D03*
X144775000Y-93250000D03*
X145775000Y-93250000D03*
X146775000Y-93250000D03*
X138125000Y-119841200D03*
X139125000Y-119841200D03*
X142421000Y-119841200D03*
X141405000Y-119841200D03*
X137125000Y-119841200D03*
D11*
X91600000Y-114000000D03*
X89190000Y-70775000D03*
X86650000Y-70775000D03*
X89190000Y-73315000D03*
X86650000Y-73315000D03*
X82000000Y-102500000D03*
X84900000Y-102500000D03*
X55540000Y-148500000D03*
X51100000Y-63500000D03*
X51802944Y-61802944D03*
X51802944Y-65197056D03*
X53500000Y-61100000D03*
X53500000Y-63500000D03*
X53500000Y-65900000D03*
X55197056Y-61802944D03*
X55197056Y-65197056D03*
X55900000Y-63500000D03*
X144100000Y-63500000D03*
X144802944Y-61802944D03*
X144802944Y-65197056D03*
X146500000Y-61100000D03*
X146500000Y-63500000D03*
X146500000Y-65900000D03*
X148197056Y-61802944D03*
X148197056Y-65197056D03*
X148900000Y-63500000D03*
X68400000Y-140550000D03*
X68400000Y-145450000D03*
X133000000Y-157000000D03*
X133000000Y-154500000D03*
X133000000Y-152000000D03*
X133000000Y-149500000D03*
X133000000Y-147000000D03*
X112500000Y-152500000D03*
X51100000Y-156500000D03*
X51802944Y-154802944D03*
X51802944Y-158197056D03*
X53500000Y-154100000D03*
X53500000Y-156500000D03*
X53500000Y-158900000D03*
X55197056Y-154802944D03*
X55197056Y-158197056D03*
X55900000Y-156500000D03*
D12*
X99175000Y-97325000D03*
X97975000Y-97325000D03*
X100375000Y-97325000D03*
X101575000Y-97325000D03*
X95115000Y-82900000D03*
X94115000Y-82900000D03*
D11*
X53000000Y-148500000D03*
X109250000Y-156900000D03*
X107500000Y-156100000D03*
X109250000Y-155300000D03*
X107500000Y-154500000D03*
X109250000Y-153700000D03*
D13*
X108375000Y-158950000D03*
X108375000Y-151650000D03*
D11*
X70600000Y-140550000D03*
X70600000Y-145450000D03*
D12*
X129574999Y-86875000D03*
X128624999Y-86875000D03*
X127675001Y-86875000D03*
X128674999Y-78175000D03*
X129574999Y-78175000D03*
D11*
X73000000Y-149000000D03*
X90874995Y-139175001D03*
X90874995Y-145574998D03*
X90874995Y-147475001D03*
X90874995Y-151775001D03*
D12*
X91324994Y-154174998D03*
X91324994Y-155174999D03*
D11*
X90874995Y-158025001D03*
X75374998Y-138724999D03*
X75374998Y-140574998D03*
X75374998Y-145525001D03*
X75374998Y-157574999D03*
X89060000Y-114000000D03*
D14*
X81999999Y-113024999D03*
X82524999Y-112149997D03*
X83274997Y-113325001D03*
X86824998Y-113249998D03*
D11*
X130490000Y-70775000D03*
X127950000Y-70775000D03*
X130490000Y-73315000D03*
X127950000Y-73315000D03*
X138890000Y-70775000D03*
X136350000Y-70775000D03*
X138890000Y-73315000D03*
X136350000Y-73315000D03*
X118900000Y-50500000D03*
X61900000Y-50500000D03*
X112400000Y-55000000D03*
X108400000Y-55000000D03*
X104400000Y-55000000D03*
X100400000Y-55000000D03*
X96400000Y-55000000D03*
X92400000Y-55000000D03*
X88400000Y-55000000D03*
X84400000Y-55000000D03*
X80400000Y-55000000D03*
X76400000Y-55000000D03*
X72400000Y-55000000D03*
X68400000Y-55000000D03*
X110400000Y-51000000D03*
X106400000Y-51000000D03*
X102400000Y-51000000D03*
X98400000Y-51000000D03*
X94400000Y-51000000D03*
X90400000Y-51000000D03*
X86400000Y-51000000D03*
X82400000Y-51000000D03*
X78400000Y-51000000D03*
X74400000Y-51000000D03*
X70400000Y-51000000D03*
X112400000Y-47000000D03*
X108400000Y-47000000D03*
X104400000Y-47000000D03*
X100400000Y-47000000D03*
X96400000Y-47000000D03*
X92400000Y-47000000D03*
X88400000Y-47000000D03*
X84400000Y-47000000D03*
X80400000Y-47000000D03*
X76400000Y-47000000D03*
X72400000Y-47000000D03*
X68400000Y-47000000D03*
X80790000Y-70775000D03*
X78250000Y-70775000D03*
X80790000Y-73315000D03*
X78250000Y-73315000D03*
X72800000Y-140550000D03*
X72800000Y-145450000D03*
X89500000Y-110040000D03*
X89500000Y-107500000D03*
X89500000Y-104960000D03*
X89500000Y-102420000D03*
X89500000Y-99880000D03*
X92040000Y-110040000D03*
X92040000Y-107500000D03*
X92040000Y-104960000D03*
X92040000Y-102420000D03*
X92040000Y-99880000D03*
X94580000Y-110040000D03*
X94580000Y-107500000D03*
X94580000Y-104960000D03*
X94580000Y-102420000D03*
X94580000Y-99880000D03*
X112500000Y-157500000D03*
X93474609Y-153525391D03*
X93474609Y-157335391D03*
X139265000Y-81650000D03*
X136725000Y-81650000D03*
X139265000Y-84190000D03*
X136725000Y-84190000D03*
X133200000Y-136000000D03*
D12*
X95800010Y-118600000D03*
X95800000Y-122900000D03*
X95800000Y-123699990D03*
X95800000Y-124500000D03*
X95800000Y-125300000D03*
X95800000Y-126100000D03*
X95800000Y-126900000D03*
X95800000Y-127700000D03*
X95800000Y-128500000D03*
X95800000Y-129300000D03*
X95800000Y-130100000D03*
X95800000Y-130900000D03*
X95800000Y-131700000D03*
X95800000Y-132500000D03*
X95800000Y-133300000D03*
X95800010Y-134099990D03*
X95800000Y-134900000D03*
X95800000Y-136300000D03*
X95800000Y-137099990D03*
X95800000Y-137899990D03*
X95800000Y-138699990D03*
X95800000Y-139499990D03*
X95800000Y-140300000D03*
X96200000Y-147500000D03*
X97000000Y-147500000D03*
X97800000Y-147500000D03*
X98600010Y-147500000D03*
X99400000Y-147500000D03*
X100200000Y-147500000D03*
X101000000Y-147500000D03*
X101800010Y-147500000D03*
X102600000Y-147499990D03*
X103400000Y-147499990D03*
X104200000Y-147499990D03*
X105000000Y-147499990D03*
X107400010Y-147499990D03*
X108200010Y-147499990D03*
X109000000Y-147500000D03*
X109800010Y-147500000D03*
X110600010Y-147500000D03*
X111400010Y-147500000D03*
X112200010Y-147500000D03*
X113000010Y-147499990D03*
X113800010Y-147499990D03*
X118100010Y-147499990D03*
X120800010Y-147499990D03*
X121800000Y-147499990D03*
X129200010Y-147499990D03*
X102399990Y-112099990D03*
X103600000Y-112099990D03*
X104800000Y-112099990D03*
X106000000Y-112099990D03*
X107200000Y-112099990D03*
X108400000Y-112099990D03*
X109600000Y-112099990D03*
X110800000Y-112099990D03*
X112000000Y-112099990D03*
X113200000Y-112099990D03*
X114400000Y-112099990D03*
X115600000Y-112099990D03*
X116800000Y-112099990D03*
X118000000Y-112099990D03*
X119200000Y-112099990D03*
X120400000Y-112099990D03*
X121600000Y-112099990D03*
X122800010Y-112099990D03*
X124000010Y-112099990D03*
X125200010Y-112099990D03*
X126400010Y-112099990D03*
X128800010Y-112099990D03*
X129200010Y-114600000D03*
X129200010Y-115600000D03*
X129200010Y-126299990D03*
X129200010Y-127300000D03*
X129200010Y-128299990D03*
X129200010Y-129299990D03*
X129200010Y-130299990D03*
X129200010Y-131299990D03*
X129200010Y-132299990D03*
X129200010Y-133299990D03*
X129200010Y-135899990D03*
X129200010Y-136699990D03*
X129200010Y-141400000D03*
X129200010Y-142799990D03*
D11*
X113690000Y-70775000D03*
X111150000Y-70775000D03*
X113690000Y-73315000D03*
X111150000Y-73315000D03*
X97110000Y-153395000D03*
X102890000Y-153395000D03*
D15*
X95680000Y-152895000D03*
D16*
X95680000Y-157075000D03*
D15*
X104320000Y-152895000D03*
D16*
X104320000Y-157075000D03*
D11*
X144100000Y-156500000D03*
X144802944Y-154802944D03*
X144802944Y-158197056D03*
X146500000Y-154100000D03*
X146500000Y-156500000D03*
X146500000Y-158900000D03*
X148197056Y-154802944D03*
X148197056Y-158197056D03*
X148900000Y-156500000D03*
D12*
X88125000Y-97325000D03*
X86925000Y-97325000D03*
X89325000Y-97325000D03*
X90525000Y-97325000D03*
X84065000Y-82900000D03*
X83065000Y-82900000D03*
D11*
X63990000Y-70775000D03*
X61450000Y-70775000D03*
X63990000Y-73315000D03*
X61450000Y-73315000D03*
X63315000Y-82050000D03*
X60775000Y-82050000D03*
X63315000Y-84590000D03*
X60775000Y-84590000D03*
X68550000Y-137400000D03*
X73450000Y-137400000D03*
X72390000Y-70775000D03*
X69850000Y-70775000D03*
X72390000Y-73315000D03*
X69850000Y-73315000D03*
X148150000Y-122100000D03*
X145610000Y-122100000D03*
X143070000Y-122100000D03*
X140530000Y-122100000D03*
X137990000Y-122100000D03*
X135450000Y-122100000D03*
X63315000Y-90450000D03*
X60775000Y-90450000D03*
X63315000Y-92990000D03*
X60775000Y-92990000D03*
X63315000Y-122450000D03*
X60775000Y-122450000D03*
X63315000Y-124990000D03*
X60775000Y-124990000D03*
X122090000Y-70775000D03*
X119550000Y-70775000D03*
X122090000Y-73315000D03*
X119550000Y-73315000D03*
X122203250Y-84570000D03*
X122203250Y-107430000D03*
X109503250Y-89650000D03*
X109503250Y-92190000D03*
X109503250Y-94730000D03*
X109503250Y-97270000D03*
X109503250Y-99810000D03*
X109503250Y-102350000D03*
X58080000Y-148500000D03*
X97120000Y-110040000D03*
X97120000Y-107500000D03*
X97120000Y-104960000D03*
X97120000Y-102420000D03*
X97120000Y-99880000D03*
X99660000Y-110040000D03*
X99660000Y-107500000D03*
X99660000Y-104960000D03*
X99660000Y-102420000D03*
X99660000Y-99880000D03*
X102200000Y-110040000D03*
X102200000Y-107500000D03*
X102200000Y-104960000D03*
X102200000Y-102420000D03*
X102200000Y-99880000D03*
X142000000Y-138399858D03*
X142000000Y-130900000D03*
M02*
